<?xml version="1.0" encoding="utf-8"?>
<!-- Generator: Adobe Illustrator 23.0.5, SVG Export Plug-In . SVG Version: 6.00 Build 0)  -->
<svg version="1.1" id="Layer_1" xmlns="http://www.w3.org/2000/svg" xmlns:xlink="http://www.w3.org/1999/xlink" x="0px" y="0px"
	 viewBox="0 0 50 50" style="enable-background:new 0 0 50 50;" xml:space="preserve">
<style type="text/css">
	.st0{fill:url(#SVGID_1_);}
	.st1{fill:url(#SVGID_2_);}
	.st2{fill:url(#SVGID_3_);}
	.st3{fill:url(#SVGID_4_);}
	.st4{fill:url(#SVGID_5_);}
	.st5{fill:url(#SVGID_6_);}
	.st6{fill:url(#SVGID_7_);}
	.st7{fill:url(#SVGID_8_);}
	.st8{fill:url(#SVGID_9_);}
	.st9{fill:url(#SVGID_10_);}
	.st10{fill:url(#SVGID_11_);}
	.st11{fill:url(#SVGID_12_);}
	.st12{fill:url(#SVGID_13_);}
	.st13{fill:url(#SVGID_14_);}
	.st14{fill:url(#SVGID_15_);}
</style>
<g>
	<linearGradient id="SVGID_1_" gradientUnits="userSpaceOnUse" x1="63.9453" y1="38.234" x2="5.0253" y2="-1.846">
		<stop  offset="0" style="stop-color:#E9127F"/>
		<stop  offset="1" style="stop-color:#F0582A"/>
	</linearGradient>
	<path class="st0" d="M26,21.8h14.8c0.5,0,0.9-0.4,0.9-0.9v-7c0-0.5-0.4-0.9-0.9-0.9H26c-0.5,0-0.9,0.4-0.9,0.9v7
		C25.1,21.4,25.5,21.8,26,21.8z M26.2,14.2h14.4v6.6H26.2V14.2z"/>
	<linearGradient id="SVGID_2_" gradientUnits="userSpaceOnUse" x1="57.3048" y1="47.996" x2="-1.6152" y2="7.916">
		<stop  offset="0" style="stop-color:#E9127F"/>
		<stop  offset="1" style="stop-color:#F0582A"/>
	</linearGradient>
	<path class="st1" d="M49.2,34.5h-2.4V11.1c0-1.1-0.9-2-2-2H5.1c-1.1,0-2,0.9-2,2v23.4H0.8c-0.3,0-0.5,0.2-0.5,0.5v4
		c0,1,0.8,1.8,1.8,1.8h45.6c0,0,0,0,0,0c1.2,0,2.1-1,2.1-2.1V35C49.8,34.7,49.5,34.5,49.2,34.5z M4.2,11.1c0-0.5,0.4-0.9,0.9-0.9
		h39.8c0.5,0,0.9,0.4,0.9,0.9v23.4H4.2V11.1z M48.7,38.7c0,0.6-0.5,1.1-1.1,1.1c0,0,0,0,0,0H2.1c-0.4,0-0.7-0.3-0.7-0.7v-3.5h47.4
		V38.7z"/>
	<linearGradient id="SVGID_3_" gradientUnits="userSpaceOnUse" x1="47.4479" y1="62.4862" x2="-11.4721" y2="22.4062">
		<stop  offset="0" style="stop-color:#E9127F"/>
		<stop  offset="1" style="stop-color:#F0582A"/>
	</linearGradient>
	<path class="st2" d="M3.1,38.2h15.7c0.3,0,0.5-0.2,0.5-0.5s-0.2-0.5-0.5-0.5H3.1c-0.3,0-0.5,0.2-0.5,0.5S2.8,38.2,3.1,38.2z"/>
	<linearGradient id="SVGID_4_" gradientUnits="userSpaceOnUse" x1="57.0698" y1="48.3414" x2="-1.8502" y2="8.2615">
		<stop  offset="0" style="stop-color:#E9127F"/>
		<stop  offset="1" style="stop-color:#F0582A"/>
	</linearGradient>
	<path class="st3" d="M41.4,38.6c0.5,0,0.9-0.4,0.9-0.9c0-0.5-0.4-0.9-0.9-0.9c-0.5,0-0.9,0.4-0.9,0.9
		C40.5,38.2,40.9,38.6,41.4,38.6z M41.4,37.5c0.1,0,0.2,0.1,0.2,0.2c0,0.1-0.1,0.2-0.2,0.2c-0.1,0-0.2-0.1-0.2-0.2
		C41.2,37.6,41.3,37.5,41.4,37.5z"/>
	<linearGradient id="SVGID_5_" gradientUnits="userSpaceOnUse" x1="57.873" y1="47.1607" x2="-1.047" y2="7.0807">
		<stop  offset="0" style="stop-color:#E9127F"/>
		<stop  offset="1" style="stop-color:#F0582A"/>
	</linearGradient>
	<path class="st4" d="M43.9,38.6c0.5,0,0.9-0.4,0.9-0.9c0-0.5-0.4-0.9-0.9-0.9c-0.5,0-0.9,0.4-0.9,0.9
		C43.1,38.2,43.4,38.6,43.9,38.6z M43.9,37.5c0.1,0,0.2,0.1,0.2,0.2c0,0.1-0.1,0.2-0.2,0.2c-0.1,0-0.2-0.1-0.2-0.2
		C43.7,37.6,43.8,37.5,43.9,37.5z"/>
	<linearGradient id="SVGID_6_" gradientUnits="userSpaceOnUse" x1="58.6091" y1="46.0785" x2="-0.3109" y2="5.9985">
		<stop  offset="0" style="stop-color:#E9127F"/>
		<stop  offset="1" style="stop-color:#F0582A"/>
	</linearGradient>
	<path class="st5" d="M46.3,38.6c0.5,0,0.9-0.4,0.9-0.9c0-0.5-0.4-0.9-0.9-0.9c-0.5,0-0.9,0.4-0.9,0.9
		C45.4,38.2,45.8,38.6,46.3,38.6z M46.3,37.5c0.1,0,0.2,0.1,0.2,0.2c0,0.1-0.1,0.2-0.2,0.2c-0.1,0-0.2-0.1-0.2-0.2
		C46.1,37.6,46.1,37.5,46.3,37.5z"/>
	<linearGradient id="SVGID_7_" gradientUnits="userSpaceOnUse" x1="60.7492" y1="42.9325" x2="1.8292" y2="2.8525">
		<stop  offset="0" style="stop-color:#E9127F"/>
		<stop  offset="1" style="stop-color:#F0582A"/>
	</linearGradient>
	<path class="st6" d="M25.4,24.8h15.7c0.3,0,0.5-0.2,0.5-0.5c0-0.3-0.2-0.5-0.5-0.5H25.4c-0.3,0-0.5,0.2-0.5,0.5
		C24.9,24.5,25.1,24.8,25.4,24.8z"/>
	<linearGradient id="SVGID_8_" gradientUnits="userSpaceOnUse" x1="58.6221" y1="46.0595" x2="-0.2979" y2="5.9795">
		<stop  offset="0" style="stop-color:#E9127F"/>
		<stop  offset="1" style="stop-color:#F0582A"/>
	</linearGradient>
	<path class="st7" d="M41.3,26.4H19.6c-0.3,0-0.5,0.2-0.5,0.5s0.2,0.5,0.5,0.5h21.7c0.3,0,0.5-0.2,0.5-0.5S41.6,26.4,41.3,26.4z"/>
	<linearGradient id="SVGID_9_" gradientUnits="userSpaceOnUse" x1="52.9932" y1="54.3344" x2="-5.9268" y2="14.2544">
		<stop  offset="0" style="stop-color:#E9127F"/>
		<stop  offset="1" style="stop-color:#F0582A"/>
	</linearGradient>
	<path class="st8" d="M8,27.5h9.5c0.3,0,0.5-0.2,0.5-0.5s-0.2-0.5-0.5-0.5H8c-0.3,0-0.5,0.2-0.5,0.5S7.7,27.5,8,27.5z"/>
	<linearGradient id="SVGID_10_" gradientUnits="userSpaceOnUse" x1="52.3618" y1="55.2626" x2="-6.5582" y2="15.1826">
		<stop  offset="0" style="stop-color:#E9127F"/>
		<stop  offset="1" style="stop-color:#F0582A"/>
	</linearGradient>
	<path class="st9" d="M8,30.1h13.3c0.3,0,0.5-0.2,0.5-0.5c0-0.3-0.2-0.5-0.5-0.5H8c-0.3,0-0.5,0.2-0.5,0.5C7.4,29.9,7.7,30.1,8,30.1
		z"/>
	<linearGradient id="SVGID_11_" gradientUnits="userSpaceOnUse" x1="57.981" y1="47.0019" x2="-0.939" y2="6.9219">
		<stop  offset="0" style="stop-color:#E9127F"/>
		<stop  offset="1" style="stop-color:#F0582A"/>
	</linearGradient>
	<path class="st10" d="M41.3,29H23.4c-0.3,0-0.5,0.2-0.5,0.5c0,0.3,0.2,0.5,0.5,0.5h17.9c0.3,0,0.5-0.2,0.5-0.5
		C41.9,29.3,41.6,29,41.3,29z"/>
	<linearGradient id="SVGID_12_" gradientUnits="userSpaceOnUse" x1="54.2953" y1="52.4201" x2="-4.6247" y2="12.3401">
		<stop  offset="0" style="stop-color:#E9127F"/>
		<stop  offset="1" style="stop-color:#F0582A"/>
	</linearGradient>
	<path class="st11" d="M41.3,31.7H8c-0.3,0-0.5,0.2-0.5,0.5c0,0.3,0.2,0.5,0.5,0.5h33.4c0.3,0,0.5-0.2,0.5-0.5
		C41.9,31.9,41.6,31.7,41.3,31.7z"/>
	<linearGradient id="SVGID_13_" gradientUnits="userSpaceOnUse" x1="56.5105" y1="49.1636" x2="-2.4095" y2="9.0836">
		<stop  offset="0" style="stop-color:#E9127F"/>
		<stop  offset="1" style="stop-color:#F0582A"/>
	</linearGradient>
	<path class="st12" d="M11.1,22.3c0.1,0.1,0.2,0.2,0.4,0.2c0.1,0,0.3-0.1,0.4-0.2c0.2-0.2,0.2-0.5,0-0.8l-3-3l2.9-3
		c0.2-0.2,0.2-0.6,0-0.8s-0.6-0.2-0.8,0l-3.3,3.4c-0.2,0.2-0.2,0.5,0,0.7L11.1,22.3z"/>
	<linearGradient id="SVGID_14_" gradientUnits="userSpaceOnUse" x1="58.5852" y1="46.1137" x2="-0.3348" y2="6.0337">
		<stop  offset="0" style="stop-color:#E9127F"/>
		<stop  offset="1" style="stop-color:#F0582A"/>
	</linearGradient>
	<path class="st13" d="M17.6,22.3c0.1,0.1,0.2,0.2,0.4,0.2c0.1,0,0.3-0.1,0.4-0.2l3.3-3.4c0.2-0.2,0.2-0.5,0-0.7l-3.3-3.4
		c-0.2-0.2-0.5-0.2-0.8,0c-0.2,0.2-0.2,0.5,0,0.8l2.9,3l-3,3C17.4,21.8,17.4,22.1,17.6,22.3z"/>
	<linearGradient id="SVGID_15_" gradientUnits="userSpaceOnUse" x1="57.5976" y1="47.5656" x2="-1.3224" y2="7.4856">
		<stop  offset="0" style="stop-color:#E9127F"/>
		<stop  offset="1" style="stop-color:#F0582A"/>
	</linearGradient>
	<path class="st14" d="M12.9,23.9c0.1,0,0.1,0,0.2,0c0.2,0,0.4-0.1,0.5-0.4l3.6-9.8c0.1-0.3,0-0.6-0.3-0.7c-0.3-0.1-0.6,0-0.7,0.3
		l-3.6,9.8C12.5,23.5,12.7,23.8,12.9,23.9z"/>
</g>
</svg>
