<?xml version="1.0" encoding="utf-8"?>
<!-- Generator: Adobe Illustrator 25.2.1, SVG Export Plug-In . SVG Version: 6.00 Build 0)  -->
<svg version="1.1" id="Layer_1" xmlns="http://www.w3.org/2000/svg" xmlns:xlink="http://www.w3.org/1999/xlink" x="0px" y="0px"
	 viewBox="0 0 277.6 68.3" style="enable-background:new 0 0 277.6 68.3;" xml:space="preserve">
<style type="text/css">
	.st0{fill:url(#SVGID_1_);}
	.st1{fill:url(#SVGID_2_);}
	.st2{fill:url(#SVGID_3_);}
	.st3{fill:url(#SVGID_4_);}
	.st4{fill:#FFFFFF;}
	.st5{fill:url(#SVGID_5_);}
	.st6{fill:url(#SVGID_6_);}
	.st7{fill:url(#SVGID_7_);}
	.st8{fill:url(#SVGID_8_);}
</style>
<g>
	<g id="sMfbnh_2_">
		<g>
			<linearGradient id="SVGID_1_" gradientUnits="userSpaceOnUse" x1="49.2203" y1="53.3072" x2="15.8224" y2="11.3099">
				<stop  offset="0" style="stop-color:#E71487"/>
				<stop  offset="1" style="stop-color:#F15A2C"/>
			</linearGradient>
			<path class="st0" d="M14.8,52.6c-0.4-0.2-0.6-0.4-0.9-0.5c-1.3-0.8-2.7-1.5-4-2.3C7,48,5.5,45.4,5.5,42.1
				c-0.1-6.8-0.1-13.7,0-20.5c0-3.3,1.5-6,4.4-7.7C15.8,10.4,21.7,7,27.7,3.6c2.9-1.6,5.9-1.6,8.8,0c6,3.4,11.9,6.8,17.9,10.3
				c2.9,1.7,4.4,4.4,4.4,7.7c0.1,6.8,0.1,13.6,0,20.5c0,3.3-1.5,6-4.4,7.7c-6.8,4-13.5,7.8-20.3,11.8c-0.1,0-0.1,0-0.2,0.1
				c0-0.2,0-0.3,0-0.5c0-3.1,0-6.1,0-9.2c0-0.8,0.3-1.3,1-1.7c4.5-2.5,8.9-5.1,13.3-7.7c0.9-0.5,1.3-1.2,1.3-2.3c0-5.7,0-11.3,0-17
				c0-1-0.4-1.7-1.3-2.2c-4.9-2.8-9.8-5.7-14.7-8.5c-0.9-0.5-1.7-0.5-2.6,0c-4.9,2.9-9.9,5.7-14.8,8.5c-0.8,0.5-1.2,1.2-1.2,2.2
				c0,9.6,0,19.1,0,28.7C14.8,52.2,14.8,52.4,14.8,52.6z"/>
			<linearGradient id="SVGID_2_" gradientUnits="userSpaceOnUse" x1="30.5621" y1="61.85" x2="19.1629" y2="28.6522">
				<stop  offset="0" style="stop-color:#E71487"/>
				<stop  offset="1" style="stop-color:#F15A2C"/>
			</linearGradient>
			<path class="st1" d="M30.4,61.6c-1.1-0.6-2.2-1.2-3.2-1.9c-2.7-1.5-5.3-3.1-8-4.6c-0.6-0.4-0.9-0.9-0.9-1.6c0-9.1,0-18.2,0-27.3
				c0-0.1,0-0.3,0-0.5c0.8,0.4,0.6,0.2,2.9,2.6c1.7,1.7,3.8,2.8,6.1,3.2c2.2,0.4,3.1,1,3.1,2.3c0,9.1,0,18.2,0,27.3
				C30.4,61.3,30.4,61.4,30.4,61.6z"/>
			<linearGradient id="SVGID_3_" gradientUnits="userSpaceOnUse" x1="34.0397" y1="47.2735" x2="44.3994" y2="27.9223">
				<stop  offset="0" style="stop-color:#E71487"/>
				<stop  offset="1" style="stop-color:#F15A2C"/>
			</linearGradient>
			<path class="st2" d="M45.5,26c0.2-0.1,0.4,0,0.4,0.3c0,0,0,0.1,0,0.1c0,4.1,0,8.2,0,12.3c0,0.8-0.3,1.4-1,1.8
				c-3.6,2-7.1,4.1-10.7,6.2c0,0,0,0,0,0c-0.2,0.1-0.4,0-0.4-0.3v0c0-4.1,0-8.3,0-12.4c0-0.8,0.3-1.3,1-1.7
				C38.4,30.2,41.9,28.1,45.5,26C45.5,26.1,45.5,26.1,45.5,26z"/>
			<linearGradient id="SVGID_4_" gradientUnits="userSpaceOnUse" x1="43.6325" y1="26.3873" x2="22.2339" y2="19.7877">
				<stop  offset="0" style="stop-color:#E71487"/>
				<stop  offset="1" style="stop-color:#F15A2C"/>
			</linearGradient>
			<path class="st3" d="M20,22.8c0.2-0.1,0.3-0.2,0.4-0.3c3.6-2.1,7.2-4.1,10.7-6.2c0.8-0.5,1.5-0.4,2.3,0.3c3,2.4,6.4,4.3,9.9,5.7
				c0.4,0.1,0.5,0.3,0.8,0.5c-0.1,0.1-0.3,0.2-0.4,0.2c-3.6,2.1-7.2,4.2-10.8,6.2c-0.8,0.5-1.5,0.4-2.3-0.3c-3-2.5-6.3-4.5-10-5.8
				C20.4,23.1,20.3,23,20,22.8z"/>
		</g>
	</g>
	<g>
		<g>
			<g>
				<path d="M69.5,11.7h3.7l4.4,11.4L82,12.8l4.4,10.4l4.3-11.4h3.8l-8.1,19.7L82,20.2l-4.6,11.2L69.5,11.7z"/>
				<path d="M97.5,22.8h-2.3v-3.4h2.3v-7.7h14.8v3.4h-11.2v4.3h7.8v3.4h-7.8v4.8h11.2V31H97.5V22.8z"/>
				<path d="M116.2,22.8h-2.3v-3.4h2.3v-7.7h10.3c2.9,0,5.6,1.7,5.6,5.2c0,1.8-0.9,3.2-2.4,3.8c2,0.6,3.4,2.2,3.4,4.7
					c0,3.4-2.5,5.6-5.9,5.6h-11V22.8z M119.8,19.4h6.3c1.6,0,2.4-1,2.4-2.2c0-1.1-0.8-2.1-2.4-2.1h-6.3V19.4z M119.8,27.6h7
					c1.6,0,2.8-1,2.8-2.4c0-1.4-1.2-2.4-2.8-2.4h-7V27.6z"/>
				<path d="M144.8,11.7h8.1c6.5,0,10.3,4.5,10.3,9.6s-4,9.6-10.3,9.6h-8.1V11.7z M148.4,27.6h4.6c4.1,0,6.8-2.9,6.8-6.3
					s-2.6-6.3-6.8-6.3h-4.6V27.6z"/>
				<path d="M167,22.8h-2.3v-3.4h2.3v-7.7h14.8v3.4h-11.2v4.3h7.8v3.4h-7.8v4.8h11.2V31H167V22.8z"/>
				<path d="M186.5,25.4c1.4,1.5,3.5,2.6,5.7,2.6c2.7,0,4.6-1,4.6-2.9c0-4.3-12.4-0.2-12.4-8c0-3.4,3.6-5.8,8-5.8
					c3.2,0,5.8,1,7.7,2.9l-2.6,2.4c-1.7-1.7-3.3-2.3-5.2-2.3c-2.9,0-4,1.4-4,2.6c0,4.3,12.4,0,12.4,8c0,4-4.1,6.4-8.5,6.4
					c-2.7,0-5.8-1-8.3-3.6L186.5,25.4z"/>
				<path d="M204.2,11.7h3.6V31h-3.6V11.7z"/>
				<path d="M221.6,11.3c3.1,0,6.1,1.3,8.2,4l-2.9,2.2c-1.2-1.8-3.1-2.8-5.3-2.8c-3.5,0-6.6,2.9-6.6,6.7s3.1,6.7,6.6,6.7
					c3.2,0,5.8-1.9,6.5-5.2h-6.6v-3.4H232V22c0,3.2-2.9,9.4-10.3,9.4c-5.8,0-10.3-4.4-10.3-10C211.3,15.7,215.9,11.3,221.6,11.3z"/>
				<path d="M238.8,19.2V31h-3.6V11.3l12.4,12.2V11.7h3.6v19.7L238.8,19.2z"/>
				<path d="M256.9,25.4c1.4,1.5,3.5,2.6,5.7,2.6c2.7,0,4.6-1,4.6-2.9c0-4.3-12.4-0.2-12.4-8c0-3.4,3.6-5.8,8-5.8
					c3.2,0,5.8,1,7.7,2.9l-2.6,2.4c-1.7-1.7-3.3-2.3-5.2-2.3c-2.9,0-4,1.4-4,2.6c0,4.3,12.4,0,12.4,8c0,4-4.1,6.4-8.5,6.4
					c-2.7,0-5.8-1-8.2-3.6L256.9,25.4z"/>
			</g>
		</g>
		<g>
			<path d="M72.4,51.7h-2.7v-3.9h2.7V36.3h10.7c5,0,8.1,3.3,8.1,7.7s-3.1,7.7-8.1,7.7h-6.6v7.1h-4.2V51.7z M76.6,47.8h6.2
				c2.9,0,4.3-1.8,4.3-3.8s-1.3-3.8-4.3-3.8h-6.2V47.8z"/>
			<path d="M95,51.7h-2.7v-3.9H95V36.3h10.7c5,0,8.1,3.3,8.1,7.7c0,3.3-2.3,5.8-5.3,6.8l5.6,8h-5.2l-4.7-7.1h-5.1v7.1H95V51.7z
				 M99.2,47.8h6.2c2.9,0,4.3-1.8,4.3-3.8s-1.3-3.8-4.3-3.8h-6.2V47.8z"/>
			<path d="M117.9,36.3h4.2v22.5h-4.2V36.3z"/>
			<path d="M127.6,35.9l10,10.1l10-10.1v23h-4.2V44.9l-5.8,6.1l-5.8-6.1v13.9h-4.2V35.9z"/>
			<path d="M153.4,49.3h-2.7v-3.9h2.7v-9h17.3v3.9h-13.1v5.1h9.1v3.9h-9.1v5.6h13.1v3.9h-17.3V49.3z"/>
		</g>
	</g>
</g>
</svg>
