<?xml version="1.0" encoding="utf-8"?>
<!-- Generator: Adobe Illustrator 25.2.1, SVG Export Plug-In . SVG Version: 6.00 Build 0)  -->
<svg version="1.1" xmlns="http://www.w3.org/2000/svg" xmlns:xlink="http://www.w3.org/1999/xlink" x="0px" y="0px"
	 viewBox="0 0 996.8 723.2" style="enable-background:new 0 0 996.8 723.2;" xml:space="preserve">
<style type="text/css">
	.st0{fill:#FFFFFF;}
	.st1{fill:#FFFFFF;stroke:#FFFFFF;stroke-width:18;stroke-linecap:round;stroke-linejoin:round;stroke-miterlimit:10;}
	.st2{fill:#315477;}
	.st3{fill:#FDC212;}
	.st4{fill:#315478;}
	.st5{fill:#FEC311;}
	.st6{fill:#B19637;}
	.st7{fill:#F6F7F8;}
	.st8{fill:#FAFAFB;}
	.st9{fill:#C1CAD5;}
	.st10{fill:#FEFEFE;}
	.st11{fill:#335475;}
	.st12{fill:#335578;}
	.st13{fill:#F9BF15;}
	.st14{fill:#F17C21;}
	.st15{fill:#F89A53;}
	.st16{fill:#102A4A;}
	.st17{fill:#F47D21;}
	.st18{fill:#112B4B;}
	.st19{fill:#00AB64;}
	.st20{fill:#F7F7F8;}
	.st21{fill:#F1F1F1;}
	.st22{fill:#F3F3F3;}
	.st23{fill:#112A36;}
	.st24{fill:#EFEEEF;}
	.st25{fill:#FCFCFC;}
	.st26{fill:#0B293F;}
	.st27{fill:#0B2938;}
	.st28{fill:#0F2946;}
	.st29{fill:#FEDC3A;}
	.st30{fill:#FEE68E;}
	.st31{fill:#DEE6F4;}
	.st32{fill:#375385;}
	.st33{fill:#FFD537;}
	.st34{fill:#0F0C04;}
	.st35{fill:#FFD838;}
	.st36{fill:#F5D764;}
	.st37{fill:#F4D87A;}
	.st38{fill:#DAB457;}
	.st39{fill:#090A0C;}
	.st40{fill:#EDAC3B;}
	.st41{fill:#BE8931;}
	.st42{fill:#FFEDB0;}
	.st43{fill:#C44F27;}
	.st44{fill:#E1422E;}
	.st45{fill:#DD4530;}
	.st46{fill:none;stroke:#FFFFFF;stroke-width:5;stroke-linecap:round;stroke-linejoin:round;stroke-miterlimit:10;}
	.st47{fill:#C8302A;}
	.st48{fill:#7E8C94;}
	.st49{fill:#F2654D;}
	.st50{fill:#F2664E;}
	.st51{fill:#F2644C;}
	.st52{fill:#EF442F;}
	.st53{fill:#E4573C;}
	.st54{fill:#EF5E43;}
	.st55{fill:#D95338;}
	.st56{fill:#EDEDED;}
	.st57{fill:#F04B2D;}
	.st58{fill:#094D79;}
	.st59{fill:#F9A61C;}
	.st60{fill:#F68920;}
	.st61{fill:#035382;}
	.st62{fill:#0064A0;}
	.st63{fill:#0E5684;}
	.st64{fill:#FBA920;}
	.st65{fill:#FBAD27;}
	.st66{fill:#F7F7F7;}
	.st67{fill:#FEFDFC;}
</style>
<g id="Layer_1">
	<g>
		<path class="st10" d="M720.3,550.2c-14.9,0.1-25.1-4.2-33-13.4c-2-2.3-4-3-6.9-2.8c-24.9,1.2-42.7-17-41.1-42
			c0.1-2.2-0.6-3.2-2.1-4.5c-19.6-17.5-20-41.9-1-59.5c1.7-1.5,2.1-2.8,1.8-5.1c-3-22.7,15.1-43.3,38.1-43.1c4.4,0,7-1.2,9.9-4.5
			c14.7-16.8,40.1-17.1,55.9-0.9c2.4,2.4,4.4,3.3,7.9,3.1c24.1-1.9,42.5,15.2,42.2,39.4c0,3.2,1.1,4.8,3.4,6.7
			c18.2,14.3,19.8,41.1,3.2,57.3c-2.7,2.6-3.2,4.8-2.7,8.4c2.9,21.6-15.2,42.1-37.4,42.3c-3.9,0-6.4,0.9-9,4.2
			C741.4,546.1,730.3,550.2,720.3,550.2z M771.1,424.6c-0.2-0.6-0.5-1.6-1-2.6c-2.5-4.6-7.8-4.9-12.2-0.4
			c-17.2,17.4-34.5,34.7-51.5,52.2c-2.8,2.9-4.5,3.3-7.6,0.3c-8.1-7.8-16.5-15.2-24.8-22.7c-3.4-3.1-7-3.8-10.7-0.6
			c-3.3,2.9-2.8,7.1,1.2,10.8c10.9,10.1,22,20,32.9,30c3.7,3.3,7.4,3.5,11-0.1c20-20.2,40-40.4,60-60.6
			C770,429.3,771.1,427.5,771.1,424.6z"/>
		<circle class="st10" cx="497.1" cy="328.8" r="265.6"/>
		<g id="ivOBeT.tif_1_">
			<g>
				<path class="st14" d="M135.6,718.3c0-7.6,0-15.1,0-22.7c240.3,0,480.7,0,721,0c1.7,0,3.3,0.2,5,0.2c0.1,7.9,0.2,15.8,0.3,23.7
					c0.1,0.2,0,0.4-0.2,0.6c-0.2,0-0.3,0-0.5,0c-240.1,0-480.2,0-720.2,0c-1.3,0-2.8-0.6-3.7,0.9c-0.6,0-1.2,0-1.8,0
					c0.1-0.6,0.1-1.2,0.2-1.8c0.1-0.1,0.3-0.2,0.3-0.3C135.9,718.8,135.7,718.6,135.6,718.3z"/>
				<path class="st15" d="M137.3,721.1c1-1.5,2.5-0.9,3.7-0.9c240.1,0,480.2,0,720.2,0c0.2,0,0.3,0,0.5,0c0.1,0.3,0.1,0.6-0.1,0.9
					C620.2,721.1,378.7,721.1,137.3,721.1z"/>
				<path class="st16" d="M861.6,695.9c-1.7-0.1-3.3-0.2-5-0.2c-240.3,0-480.7,0-721,0c-0.1-0.3-0.2-0.6-0.2-0.9
					c0-7.6,0.1-15.3,0.1-22.9c0-43.8,0-87.6,0-131.4c0-7.6-0.1-15.3-0.1-22.9c0.1-0.3,0.2-0.6,0.2-0.9c169.1,0,338.2,0,507.3,0
					c1.5,0,3-0.1,4.6-0.1c9.2,10.8,20.5,17.4,35,17.5c1.8,0,2.7,1.2,3.8,2.1c18.7,16.2,47.1,15.3,64.9-2.2c1.2-1.2,2.4-2.2,4.2-2.4
					c11.9-1,21.5-6.6,29.6-15.1c19.1,0,38.2,0,57.2,0.1c6.5,0,13,0.2,19.5,0.3c0,0.8-0.1,1.5-0.1,2.3c0,49.8,0,99.6,0.1,149.5
					c0,1.2,0.2,2.4,0.2,3.6C862.1,680.2,862.5,688.1,861.6,695.9z M427.5,597.3c-2.5-4.8-4.9-9.6-7.5-14.4c-1-1.9-1.6-3.2,0.8-4.8
					c5.3-3.7,6-9.3,4.6-15c-1.4-5.5-5.6-7.9-10.9-9c-6.3-1.2-12.7-0.4-19.1-0.8c-3-0.2-3.8,0.7-3.8,3.7c0.2,11.1,0.1,22.2,0.1,33.3
					c0,8,0,7.9,7.9,7.7c2.5-0.1,3.1-0.8,3-3.1c-0.2-3.2,0.1-6.4-0.1-9.6c-0.2-2.6,0.9-2.9,3.1-2.9c4.4,0,4.4,3.9,5.3,6.3
					C413.8,596.7,418.6,600.2,427.5,597.3z M569.5,575.6c0,2.6-0.1,5.2,0,7.7c0.2,4.8-2.1,11.4,0.9,13.9c2.9,2.4,9.3,0.8,14.1,0.7
					c10.1-0.1,17.8-6.8,19.6-16.8c2.1-11.9-2.8-22.5-12.3-26.1c-1.1-0.4-2.3-0.7-3.5-1c-5.1-1.2-10.3-0.4-15.4-0.7
					c-3-0.2-3.5,1-3.5,3.6C569.6,563.2,569.5,569.4,569.5,575.6z M350.7,575.5c0,6.4,0.1,12.8,0,19.1c0,2.3,0.2,3.5,3.1,3.5
					c8.2-0.2,16.4-0.2,24.6,0c3.5,0.1,3.1-1.9,3-4c-0.1-2.1,0.9-4.7-3-4.5c-4.2,0.3-8.5-0.2-12.8,0.1c-3.3,0.2-4.4-0.9-3.9-4
					c0.2-1,0.1-2.1,0-3.2c-0.3-2.3,0.5-3.2,3-3.1c3.3,0.2,6.7-0.2,10,0.1c3.3,0.3,3.8-1.2,3.6-4c-0.2-2.3,0.7-5-3.5-4.6
					c-3.5,0.4-7-0.1-10.5,0.1c-4.2,0.2-2.4-2.9-2.6-4.7c-0.1-1.8-1.1-4.4,2.7-4.2c4.7,0.2,9.4-0.1,14.1,0.1c3.9,0.2,3.1-2.3,3.1-4.5
					c0-2.2,0.6-4.5-3.2-4.3c-8.2,0.3-16.4,0.2-24.6,0c-2.8-0.1-3.2,1.1-3.1,3.5C350.8,563,350.7,569.2,350.7,575.5z M644.9,640
					c0.2,0,0.4,0,0.6,0c0,6,0.2,12-0.1,18c-0.1,2.9,0.9,3.7,3.6,3.6c2.4-0.1,4.4,0.2,4.3-3.4c-0.2-9.7-0.1-19.4-0.1-29.1
					c0-1,0.3-2.2-0.7-3c-2.1-1.8-9.4,0.2-10.3,2.8c-2.5,6.9-4.9,13.8-7.7,21.6c-0.9-1.9-1.4-2.9-1.8-4c-2.1-5.8-4.3-11.6-6.1-17.5
					c-1.7-5.6-6-2.7-9.1-3c-3.3-0.3-1.9,2.8-2,4.5c-0.1,9,0.1,17.9-0.1,26.9c-0.1,3.3,0.7,4.6,4.2,4.5c3.1-0.1,3.8-1.1,3.7-4
					c-0.2-5.9-0.1-11.7-0.1-17.6c2.7,5.7,4.8,11.6,7,17.5c0.7,1.9,0.9,4,3.9,4.1c3,0,3.3-1.9,4-3.9
					C640.6,651.8,642.7,645.9,644.9,640z M528.5,575.2c0,6.7,0.1,13.4,0,20c0,2.2,0.6,2.8,2.8,2.8c8.5-0.1,17-0.1,25.5,0
					c3.5,0.1,2.6-2.3,2.5-4c-0.1-1.8,1.3-4.6-2.5-4.5c-3.5,0.1-7,0-10.5,0c-7,0-6.8,0-6.8-7.1c0-2.8,1.1-3.3,3.5-3.1
					c3.5,0.2,7-0.1,10.5,0.1c3.7,0.2,2.8-2.3,2.8-4.3c0-1.9,0.9-4.5-2.8-4.3c-3.6,0.2-7.3-0.2-10.9,0.1c-4.1,0.3-2.8-2.6-2.9-4.5
					c0-2-1.1-4.7,3-4.5c4.5,0.3,9.1-0.1,13.7,0.1c3.8,0.2,3.1-2.3,3.1-4.5c0-2.3,0.5-4.5-3.3-4.3c-8,0.3-16.1,0.2-24.2,0
					c-2.9-0.1-3.6,1-3.5,3.6C528.6,563,528.5,569.1,528.5,575.2z M321.2,583.4c-0.3,0-0.6,0-0.9,0c-2-7.4-4-14.7-6-22.1
					c-2.1-8-2.1-7.8-10.2-8c-3.3-0.1-4.2,0.6-2.9,4c3.9,10.8,7.4,21.7,11.1,32.6c3,9,3,8.9,12.6,8.1c1.3-0.1,2.1-0.3,2.6-1.8
					c4.7-14.1,9.5-28.3,14.5-42.8c-3.2,0-5.9,0.2-8.6-0.1c-3.1-0.3-4.1,0.9-4.8,3.8C326.2,565.9,323.6,574.6,321.2,583.4z
					 M463.3,575.4c0,5,0,10,0,15c0,7.7,0,7.6,7.6,7.6c2.7,0,3.8-0.6,3.6-3.5c-0.3-3.6,0.1-7.3-0.1-10.9c-0.1-2.3,0.5-3.3,3-3.1
					c3.3,0.2,6.7-0.2,10,0.1c3.1,0.2,4-0.7,4.1-3.9c0.2-4.1-1-5.5-5-4.9c-1.8,0.3-3.6,0-5.5,0c-6.9,0-6.8,0-6.7-6.8
					c0.1-2.4,0.8-3.1,3.2-3c4.2,0.2,8.5-0.1,12.7,0.1c4.2,0.2,2.5-2.8,2.7-4.7c0.2-2,0.8-4.2-2.9-4.1c-7.7,0.2-15.5,0.2-23.2,0
					c-3.2-0.1-3.8,1.1-3.7,3.9C463.4,563.3,463.3,569.4,463.3,575.4z M644.4,567.1c0-4.7-0.1-8.9,0-13.2c0.1-2.4-1-2.7-3-2.7
					c-2.1,0-3.4,0.1-3.3,2.8c0.1,13.7,0,27.3,0.1,41c0,1-0.7,2.7,1.2,2.9c1.4,0.1,3.6,0.9,4.2-0.6c1-2.7,1.9-1.2,3.1-0.4
					c7.3,4.2,15.1,1.4,18.3-6.4c1.4-3.3,1.4-6.8,1.4-10.3C666.2,566.5,657.1,560.8,644.4,567.1z M468.5,646.1
					c0.1,4.8,1.9,11.5,9.4,14.6c5.7,2.4,11.6,1.8,16.1-2.8c6.1-6.3,6-14.2,3.9-22.2c-1.6-5.9-5.7-9.5-11.9-10.4c-0.1,0-0.3,0-0.5,0
					C474.8,624.7,468.5,631.4,468.5,646.1z M441.8,643.3c0,5,0.1,10-0.1,15c-0.1,2.7,0.9,3.3,3.4,3.3c5.6-0.2,11.2-0.1,16.8,0
					c2.4,0,3.8,0,3.9-3.2c0-3.5-1.8-3.1-4-3c-2.6,0-5.2-0.3-7.7,0.1c-3.9,0.5-5.1-0.7-5-4.8c0-3.9,1.2-5,4.9-4.5
					c1.9,0.3,3.9-0.1,5.9,0.1c2.1,0.1,3.3-0.2,3.3-2.8c0-2.7-0.9-3.5-3.4-3.2c-2.1,0.2-4.3-0.2-6.4,0.1c-3.3,0.4-4.3-0.6-4.3-4.1
					c0-3.6,1.1-4.4,4.4-4.1c3.2,0.3,6.4-0.1,9.6,0.1c2.4,0.2,2.8-0.8,2.7-2.9c-0.1-1.9,0.2-3.5-2.7-3.4c-6.1,0.2-12.1,0.2-18.2,0
					c-2.4-0.1-3.2,0.7-3.1,3.1C441.9,633.5,441.8,638.4,441.8,643.3z M580.6,643.4c0,1.2-0.1,2.4,0,3.6c0.6,8.2,6,14.1,13.4,14.8
					c8.4,0.7,14.6-3.9,16.3-12.5c0.9-4.3,0.9-8.7-0.4-13.1c-2.1-7.2-7.1-10.9-14.3-10.9c-7.3,0-12,3.7-14.4,10.9
					C580.5,638.6,580.6,641,580.6,643.4z M423.9,625.3c-8,0-13.2,4-13.1,10.1c0.1,4.5,2.7,7.3,6.5,9c3,1.4,6.2,2.3,9.2,3.7
					c3.3,1.6,3.7,5.1,1,6.8c-2.9,1.9-8.8,0.6-9.8-2.6c-1.5-4.5-5.3-2.8-6.9-2.1c-2.5,1.1-0.6,4,0.5,5.8c3.1,5.1,12,7.3,18.9,4.9
					c3.7-1.3,6.3-3.7,6.7-7.8c0.4-3.9-0.9-7.1-4.1-9.5c-3-2.2-6.6-2.9-9.9-4.3c-2.3-1-5.5-1.8-4.2-5.2c1.2-3.2,4.2-2.9,7-2.4
					c1.8,0.3,2.8,1.4,3.5,3.1c1.5,3.3,4.7,1.9,6.6,1.4c2.6-0.7,0.7-3.2,0.1-4.5C433.6,626.7,429.1,625.3,423.9,625.3z M516.9,661.8
					c6.8,0,11.7-2.8,12.7-7.4c1.3-6.1-1.4-10.2-8.4-13.1c-1.8-0.7-3.7-1.3-5.5-2c-2.2-0.9-5.1-1.8-4.1-4.9c1-3.3,4-3.1,6.8-2.8
					c2.1,0.3,3,1.6,3.9,3.4c1.6,3.1,4.7,1.6,6.7,1.1c1.7-0.4,0.7-2.9-0.1-4.3c-2.8-5.6-7.8-6.6-13.5-6.4c-6.2,0.2-10.7,3.4-11.6,8.2
					c-1,5,1.4,8.7,7.5,11.4c2.8,1.2,5.7,2.1,8.4,3.3c1.8,0.8,2.9,2.3,2.4,4.4c-0.4,1.8-1.8,2.7-3.7,2.8c-3.6,0.2-6.8,0.4-8.3-4.2
					c-1.1-3.1-4.5-1.3-6.7-1.1c-1.9,0.2-0.6,2.3-0.3,3.4C504.4,658.6,510,661.8,516.9,661.8z M381.7,643.5c0.1,3.2-0.1,6.3,0.8,9.5
					c1.8,6.2,5.6,9,12,8.8c5.8-0.2,9.9-3.7,10.9-9.7c0.9-5.4,1-10.9,0.1-16.3c-1.1-6.9-4.8-10.4-11-10.5c-6.9-0.2-10.5,2.7-12.3,9.6
					C381.6,637.8,381.9,640.6,381.7,643.5z M547.9,643.7c-0.3,3.2,0.2,6.8,1.8,10.1c2.8,5.9,7.6,8.3,14,8c6-0.3,10.7-3.2,12.4-8.2
					c0.5-1.4,2.2-3.8,0-4.2c-2.1-0.4-5.7-2.2-7,1.6c-1.3,4.1-4.3,4.8-7.9,4.3c-3.6-0.5-5-3.2-5.2-6.5c-0.3-3-0.3-6.1-0.2-9.1
					c0.2-3.6,1.1-7.1,5.2-8c4-0.8,6.9,0.3,8.4,4.8c1,3,4.3,1.5,6.4,1.2c2.4-0.3,0.7-2.4,0.4-3.6c-2.2-7.2-10.1-10.8-18.1-8.3
					C551.3,628,547.9,633.8,547.9,643.7z M515.1,575.6c0-6.2-0.1-12.5,0.1-18.7c0.1-2.7-0.5-4-3.5-3.6c-1.2,0.2-2.4,0.2-3.6,0
					c-3.2-0.5-4.1,0.9-4,4c0.2,11.1,0.1,22.2,0.1,33.3c0,7.6,0,7.4,7.8,7.4c2.6,0,3.3-0.7,3.3-3.3C515,588.4,515.1,582,515.1,575.6z
					 M439.2,575.6c0,6.1,0.3,12.1-0.1,18.2c-0.2,3.8,1.2,4.7,4.5,4.3c0.7-0.1,1.5-0.1,2.3,0c3.4,0.6,4.3-0.8,4.2-4.2
					c-0.2-11.1-0.1-22.1-0.1-33.2c0-7.4,0-7.3-7.5-7.4c-3,0-3.5,1-3.4,3.6C439.4,563.1,439.2,569.4,439.2,575.6z M669.4,565.4
					c3.5,9.8,7,19.4,10.5,29.1c1.9,5.3-1,10.7-6.4,11.5c-1.9,0.3-2.5,0.7-2.6,2.6c0,2.2,1.3,2.5,2.9,2.6c4.7,0.4,8.1-2.1,9.6-6.2
					c4.9-13.1,9.4-26.4,14.1-39.6c-6.2-0.8-6.2-0.8-7.9,4.6c-1.8,5.8-3.7,11.6-5.5,17.5c-2.9-5.9-5.2-11.7-6.8-17.7
					C676.3,565.4,674.2,564,669.4,565.4z M363.5,634.5c0,8.3,0.1,16.3-0.1,24.3c-0.1,2.8,1.5,2.8,3.4,2.7c1.9-0.1,4,0.5,3.9-2.7
					c-0.1-10.1-0.1-20.3,0-30.4c0-2.1-0.6-2.8-2.6-2.1c-3.7,1.3-7.4,2.7-11.1,3.9c-3,1-2.2,3.6-1.8,5.3c0.5,2.1,2.3,0.6,3.6,0.3
					C360.3,635.4,361.8,635,363.5,634.5z M538.3,653.6c-2.2,0.6-4,1.7-3.8,4.3c0.1,2.6,1.9,3.8,4.2,3.7c2.4-0.1,3.9-1.5,3.8-4.1
					C542.4,654.8,540.6,654.1,538.3,653.6z"/>
				<path class="st17" d="M647.5,516.6c-1.5,0-3,0.1-4.6,0.1c-169.1,0-338.2,0-507.3,0c0-6.8,0.1-13.7-0.2-20.5
					c-0.2-3.8,1-4.9,4.8-4.8c30.1,0.2,60.2,0.1,90.3,0.1c1.5,0,3,0,5,0c-1.2-4.5-3.1-8.6-3.5-13.1c-0.8-9,1.3-17.1,6.4-24.5
					c0.7-1,2.3-1.8,1.5-3.5c-0.8-1.6-2.3-1.1-3.6-1.1c-15.9-0.5-28.4-9.2-33.5-23.6c-5-14.1-0.9-28.7,10.9-39.1
					c0.9-0.8,2.3-1.2,2-2.8c-0.4-1.8-1.9-1.6-3.2-2c-14.7-3.9-25.3-15.8-26.7-30c-1.6-15.5,5.8-28.9,19.6-36.1
					c1.1-0.6,2.9-0.6,3-2.4c0.1-2.1-1.9-2.1-3.1-2.8c-12.9-7.3-20.3-21.5-18.4-35.4c2.1-15.2,12.6-26.7,27.7-30.2
					c1.3-0.3,2.8-0.1,3.4-1.8c0.5-1.8-1-2.4-1.9-3.2c-11.3-10.5-14.8-25.6-9.2-39.5c5.5-13.8,18.4-22.2,34-22.1
					c1.3,0,2.7,0.7,3.7-0.9c1-1.7-0.5-2.5-1.1-3.6c-8.3-13.2-8.1-28.6,0.5-40.6c8.8-12.2,23.3-17.1,38.8-13.2
					c1.1,0.3,2.1,1.3,3.4,0.1c1.5-1.4,0.2-2.6-0.1-3.7c-5-14.8-1.1-29.9,10.1-39.3c11.5-9.6,26.9-11,40.4-3.8c1.1,0.6,2.2,2,3.7,1
					c1.5-0.9,0.7-2.5,0.7-3.7c-0.9-20.1,10.3-35.1,29.2-38.6c11.5-2.1,21.6,1.2,30.3,9.1c1,0.9,1.8,2.8,3.7,2
					c1.6-0.6,1.4-2.2,1.5-3.5c2-14.7,12.6-26.3,27.2-29.6c14.1-3.3,29.1,2.8,37.3,15.1c0.9,1.3,1.1,3.6,3.2,3.3
					c2.1-0.2,1.9-2.5,2.5-3.9c5.8-13.3,18.8-21.6,33.7-21.3c13.9,0.3,26.8,9.5,31.9,22.7c0.7,1.7,0.1,4.3,2.7,4.7
					c2.3,0.3,2.7-2.2,3.7-3.5c9.1-11.4,24.1-16.2,38.1-12c13.8,4.2,23.9,16.7,25,31.1c0.1,1.2-0.6,2.8,1,3.7c1.9,1,2.7-0.7,3.8-1.6
					c12.2-9.5,27.8-10.8,40.5-3.3c12.8,7.6,19.2,21.4,16.9,36.5c-0.2,1.4-1.1,3,0.6,4.1c1.5,0.9,2.5-0.5,3.7-1
					c13.3-6.2,29.1-3.8,39.4,6c11,10.4,14.2,25.6,8.5,39.7c-0.5,1.3-2.1,2.5-0.9,4.1c1.4,1.9,3.1,0.4,4.6,0.1
					c14.9-2.5,29.2,3.7,36.9,16.2c7.7,12.5,6.9,27.7-2.2,40.2c-0.8,1.1-2.2,1.9-1.5,3.5c0.7,1.7,2.3,1,3.6,1.1
					c15.5,1,27.8,10.1,32.5,24.4c4.7,14.2,0.1,29-11.8,38.8c-1,0.8-2.6,1.3-2.3,3c0.3,1.8,2.1,1.6,3.3,2c15,4.8,24.6,16.7,25.7,32
					c1,14.1-7.2,27.7-20.7,34.1c-1.3,0.6-3.3,0.6-3.2,2.7c0.1,1.9,2,2.1,3.2,2.8c12.1,7.7,18,18.8,17.1,33
					c-0.9,13.1-7.7,22.7-19.3,28.9c-2.5,1.4-4.1,1.6-6.1-1.3c-8.9-12.7-21.6-18.6-37.2-19.2c3.6-15.8,5.9-31.7,6.6-47.7
					c1.4-31.3-2.8-61.7-12.7-91.4c-5.7-17.3-13-33.9-22.7-49.5c-14.4-24.4-32.2-45.9-54-64.1c-8.4-7.4-17.1-14.3-26.8-19.9
					c-12.9-8.9-26.6-16.1-41.2-21.7c-7.2-2.7-14.5-5.3-21.7-8c-28.6-9.2-57.8-12.6-87.7-11.1c-7.4-0.1-14.7,0.9-21.9,1.9
					c-9.9,1.2-19.7,3-29.3,5.7c-9,2.3-17.9,4.7-26.4,8.5c-16.8,5.9-32.6,13.8-47.4,23.8c-3.4,1.7-6.5,3.8-9.4,6.3
					c-13.9,9.1-26.2,20.2-37.6,32.2c-13.2,13.7-24.9,28.5-34.2,45.2c-7.5,11.7-13.6,24.1-18.4,37.2c-4.3,9.1-7.2,18.7-9.7,28.4
					c-7.3,28.4-10,57.1-7.4,86.4c2.1,24.7,7.2,48.8,16.7,71.8c5.9,15.4,13.2,30.1,22.5,43.8c7.4,12.8,16.8,24.1,26.6,35.1
					c1,1.1,2.1,1.5,3.6,1.5c9.1-0.1,18.2-0.1,27.3-0.2c24.3,0,48.7,0,73,0c20,0.1,39.9,0.2,59.9,0.2c10.7,0,21.5-0.1,32.2-0.2
					c24.9,0,49.9,0,74.8,0c17.6,0.1,35.2,0.2,52.8,0.1c3.4,0,4.6,0.8,4.9,4.4C639.8,503.4,643.4,510.2,647.5,516.6z"/>
				<path class="st18" d="M422.8,413c-18.3-0.1-36.7-0.2-55-0.1c-3.5,0-4.2-1-4.2-4.3c0.2-10.1,0-20.3-0.1-30.4
					c0.1-10.6,0.2-21.2,0.2-31.8c0-25.6-0.1-51.2-0.2-76.7c0.5-7.1,0.5-7.1,7.8-7.1c12,0,24-0.1,36-0.2c10.3,0,20.7,0,31,0
					c5.6,0.1,11.2,0.3,16.8,0.1c2.6-0.1,3.4,0.8,3.3,3.3c-0.2,3,0,6.1,0,9.5c2.5-1.2,3.2-2.8,3.9-4.5c1.6-3.4,3.1-6.9,4.9-10.2
					c5.9-11.3,11.8-22.5,17.8-33.7c4.1-6.2,7-12.9,10.4-19.5c1.6-3,1.8-6.2,1.7-9.6c-0.5-12.4-2-24.7-3-37.1
					c-0.8-9,2.5-13.4,11.1-16.1c4.1-1.3,8.3-1.6,12.5-1.7c14,2.2,23.4,10.4,29.8,22.7c3.1,5.9,5.2,12.2,7.3,18.4
					c0.7,7,2.1,14,1.7,21.2c-0.6,9.9-2.9,19.4-4.6,29.1c-0.4,2.3-0.7,3.5,2.4,3.5c17-0.2,34-0.2,50.9-0.2c5.3,0.1,10.6-0.3,15.8,0.5
					c12.9,2,21.2,9.9,26,21.8c2,9,1.8,17.8-3,25.9c-1,1.7,0,2.5,0.7,3.6c10,15,7.8,32.2-5.7,44c-1.2,1-2.2,1.7-1.7,3.7
					c3.2,13.3-0.7,24.4-10.6,33.6c-4.3,1.4-5.5,4.3-5.3,8.8c0.4,9.1-3.1,16.9-9.6,23.3c-6.7,6.6-14.8,9.4-24.1,9.4
					c-3.7,0-7.3,0-11,0c-0.3,0-0.6,0-0.9,0c-6.7,0-13.4,0-20.1,0c-0.9,0-1.8,0-2.7,0c-19.8,0-39.6,0-59.4,0
					c-12.7,1.1-23.8-4.4-35.5-9c0,2-0.2,3.7,0,5.2c0.5,3.5-0.7,4.5-4.3,4.5C443.7,412.7,433.2,413,422.8,413z M536.2,250.6
					c1.5-13.3,4.6-25.8,6.5-38.6c2.6-17.3-0.9-33.2-11.5-47.3c-5.2-6.9-12.2-9.7-20.8-8.1c-2.5,0.5-3.9,1.4-3.4,4.5
					c1,7.2,1.4,14.5,2.4,21.7c2,14.8,0,28.4-7.7,41.8c-10.2,17.5-20.2,35.2-28.4,53.8c-2.3,5.3-6.7,8.6-12.2,10.1
					c-2.1,0.5-2.6,1.3-2.6,3.3c0.1,31.3,0,62.6,0,93.9c0,1.2-0.2,2.5,1.2,3.1c9.3,4.3,18.5,9.7,28.9,10c17.3,0.6,34.7,0.2,52,0.2
					c16.3,0,32.5,0.1,48.8,0c13.8-0.2,22.8-13.4,18.1-26c-1.2-3.1-3.7-5.3-5.3-8.5c10.5,0.7,18.6-2.7,22.2-12.6
					c3.6-10.1-0.4-17.9-9.2-23.8c14.7-2.2,21-6.3,22.5-16.3c1.9-12.7-5.3-19.8-17.4-23.1c10.7-3.7,16.5-12.6,14.9-21.7
					c-1.7-9.8-9.8-16.3-20.5-16.4c-12.9,0-25.8,0-38.8,0C562.8,250.6,549.7,250.6,536.2,250.6z"/>
				<path class="st19" d="M719.6,535c-12.5,0.1-21.1-3.5-27.7-11.2c-1.7-2-3.3-2.5-5.8-2.4c-20.9,1-35.8-14.3-34.5-35.2
					c0.1-1.8-0.5-2.7-1.7-3.8c-16.4-14.7-16.8-35.1-0.8-49.9c1.4-1.3,1.8-2.4,1.5-4.3c-2.5-19,12.7-36.3,31.9-36.1
					c3.7,0,5.9-1,8.3-3.8c12.3-14.1,33.6-14.3,46.8-0.7c2,2,3.7,2.8,6.6,2.6c20.2-1.6,35.6,12.8,35.4,33c0,2.6,0.9,4.1,2.8,5.6
					c15.3,12,16.6,34.5,2.7,48.1c-2.2,2.2-2.7,4-2.3,7c2.4,18.1-12.8,35.3-31.3,35.5c-3.3,0-5.4,0.8-7.5,3.6
					C737.3,531.5,728,535,719.6,535z M762.2,429.7c-0.2-0.5-0.4-1.4-0.8-2.1c-2.1-3.9-6.6-4.1-10.3-0.3
					c-14.4,14.6-28.9,29.1-43.2,43.8c-2.4,2.5-3.8,2.7-6.4,0.2c-6.8-6.5-13.9-12.7-20.8-19.1c-2.8-2.6-5.9-3.2-8.9-0.5
					c-2.7,2.4-2.4,6,1,9.1c9.1,8.4,18.4,16.8,27.6,25.1c3.1,2.8,6.2,3,9.2-0.1c16.8-16.9,33.6-33.9,50.3-50.8
					C761.3,433.6,762.2,432.1,762.2,429.7z"/>
				<path class="st20" d="M363.5,269.7c0.1,25.6,0.1,51.2,0.2,76.7c0,10.6-0.1,21.2-0.2,31.8c-2.1,0.1-3.1,1.8-4.3,3
					c-7.9,7.5-15.7,15.1-23.6,22.6c-0.9,0.8-1.7,1.7-3.1,1.7c-5.2-4.5-10.1-9.4-14.6-14.6c1.2,0,2.4,0.2,3.4,1.1
					c3.1,2.9,3.8,1,3.9-2c0-0.8,0-1.5,0-2.3c0-42.8,0-85.7,0-128.5c0-2.8-0.3-5.4-1.9-7.8c2.4-2.5,4.6-5.3,7.2-7.5
					c2.7-2.3,2.4-3.6,0-6c-15.6-15.3-30.8-31.1-46.9-45.9c-1.4-1.3-3.1-2.5-3.2-4.7c9.3-16.7,21.1-31.5,34.2-45.2
					c11.5-12,23.7-23,37.6-32.2c2,1.5,1.2,3.6,1.2,5.5c0.1,32,0,64.1,0,96.1c0,2.6-0.4,5.5,3.7,5.3c-6.8,6.9-13.5,13.9-20.4,20.7
					c-2.4,2.4-2.9,4-0.2,6.7c8,7.7,15.7,15.6,23.5,23.4C361.1,268.6,361.9,269.7,363.5,269.7z"/>
				<path class="st17" d="M135.4,517.6c0,7.6,0.1,15.3,0.1,22.9c-4.6,0.1-9.1,0.1-13.7,0.2c-5.2,0-10.3,0-15.5,0
					c-6.1,0-12.2,0-18.2,0c-11.7,0-23.4,0-35.8,0c7,12.1,13.7,23.8,20.5,35.3c4.7,8,9.5,16,14.2,24.1c3,4.2,3.1,8.3-0.2,12.4
					c-0.3,0.3-0.7,0.6-0.9,1c-10.6,18.4-21.2,36.7-31.7,55.1c-0.6,1-1.7,1.8-1.2,3.2c12,0,24,0,36,0c5.8,0,11.6,0,17.3,0
					c5.2,0,10.3,0,15.5,0c4.6,0.1,9.1,0.1,13.7,0.2c0,7.6-0.1,15.3-0.1,22.9c-40.8,0-81.7,0-123.2,0c5.6-9.8,10.9-18.9,16.2-28.1
					C39.2,648,50,629.2,61,610.5c1.8-3.1,2-5.3,0.1-8.5c-15.6-26.6-30.9-53.2-46.4-79.9c-0.7-1.3-1.4-2.6-2.4-4.5
					C53.8,517.6,94.6,517.6,135.4,517.6z"/>
				<path class="st17" d="M862.5,517.6c40.7,0,81.4,0,122,0c0.5,2-0.9,3.1-1.6,4.3c-15.4,26.7-30.8,53.3-46.3,79.9
					c-1.8,3.1-2,5.4-0.1,8.6c15.6,26.5,30.9,53.2,46.3,79.9c0.7,1.3,1.9,2.4,1.8,4.5c-40.7,0-81.3,0-122,0
					c-0.1-7.4-0.3-14.8-0.4-22.3c5.5-1.6,11.1-0.1,16.6-0.8c5.2,0,10.3,0,15.5,0c5.8,0,11.6,0,17.3,0c11,0,22,0,33.7,0
					c-2.9-4.9-5.5-9.5-8.1-14c-8-13.5-15.3-27.4-23.9-40.6c-5.7-7.3-6-14.6,0.1-21.9c10.6-18,21.1-36,32-54.5c-11.8,0-22.8,0-33.8,0
					c-5.8,0-11.6,0-17.3,0c-5.2,0-10.3,0-15.5,0c-4.5,0-9.1-0.2-13.6-0.1c-2.3,0.1-3.2-0.6-3.2-3
					C862.4,530.9,862.4,524.2,862.5,517.6z"/>
				<path class="st21" d="M672.8,316c0-18.5,0-37.1,0-55.6c0-1.7-0.7-4,1.3-4.9c2.1-1,3.7,0.7,5.2,2c17.5,15.5,33.2,32.9,50.1,49.1
					c4.8,4.6,9.6,9.3,14.6,13.6c3.2,2.8,2.7,5.1-0.1,7.4c-5.5,4.6-10.5,9.6-15.5,14.7c-3.4,3.5-7.2,6.6-10.2,10.4
					c-7.4,9-16.8,14.9-27.3,19.4c-2.3,1-4.6,2.5-6.3,4.3c-2.7,2.7-6,2-9,1.7c-3-0.4-2.6-3.3-2.6-5.5
					C672.8,353.7,672.8,334.9,672.8,316z"/>
				<path class="st21" d="M317.9,391c4.5,5.2,9.4,10.1,14.6,14.6c0.3,2.1-1.1,3.3-2.4,4.6c-12.6,12.6-25.1,25.2-37.7,37.7
					c-2.6,2.5-5.5,4.7-8.3,7c-9.3-13.7-16.6-28.4-22.5-43.8c2.6-0.8,1.5-3,1.5-4.6c0.1-18.9,0-37.9,0.1-56.8c0-2.5-1.3-6.4,0.9-7.1
					c2.7-0.9,5.8,1.5,8.3,3.5c0.8,0.7,1.5,1.5,2.3,2.2c8.4,8.4,16.7,16.7,25.1,25.1C305.7,379.2,311.8,385.1,317.9,391z"/>
				<path class="st22" d="M664.2,124.5c21.8,18.1,39.6,39.7,54,64.1c-1.9,0.1-2.8,1.7-4,2.8c-10.7,10.7-21.4,21.4-32.2,32.1
					c-3.4,3.4-7,6.6-11.4,8.7c-3.5,1.7-5.9,4.5-7,8.3c-2.2-1.5-4-3.3-5.5-5.5c3.5,0.5,4.7-0.8,4.6-4.5c-0.1-33.6-0.1-67.2,0-100.7
					C662.8,128,661.9,125.7,664.2,124.5z"/>
				<path class="st21" d="M581.5,491.2c-24.9,0-49.9,0-74.8,0c0-22.7,0-45.5,0-68.2c0-1.4-0.8-3.4,0.8-4.1c1.4-0.6,3,0.7,4.1,1.5
					c3.4,2.7,6.8,5.6,9.9,8.6c19.1,19,38.2,38.1,57.3,57.2C580.2,487.7,581.9,488.9,581.5,491.2z"/>
				<path class="st21" d="M414.6,491.2c-24.3,0-48.7,0-73,0c0-22,0-44.1,0-66.1c0-1.9-0.9-4.4,1.3-5.4c2-0.8,3.5,1.3,4.9,2.6
					c18.9,16.9,36,35.7,54.3,53.3c3.7,3.6,7.5,7,11.4,10.5C415.2,487.6,416.1,489.1,414.6,491.2z"/>
				<path class="st21" d="M422.8,413c10.4-0.1,20.9-0.3,31.3-0.1c3.6,0.1,4.8-1,4.3-4.5c-0.2-1.6,0-3.2,0-5.2
					c11.8,4.6,22.8,10.1,35.5,9c-1.5,1.3-3.1,2.4-4.5,3.8c-16.5,16.5-33,33-49.6,49.5c-3.5,3.5-7.3,6.8-11,10.1
					c-3.5,3-5.2,2.4-5.9-2.1c-0.2-1.3-0.1-2.7-0.1-4.1C422.8,450.6,422.8,431.8,422.8,413z"/>
				<path class="st21" d="M587.9,412.3c9.3,0,17.4-2.8,24.1-9.4c6.5-6.4,10-14.2,9.6-23.3c-0.2-4.5,1-7.4,5.3-8.8
					c0.4,0,0.8,0.1,1.2,0.1c0,19.2,0,38.4,0,57.6c0,2.6-0.1,5,3.7,4.5c-3.3,8.5-8.7,15.3-15.4,21.5c-7,6.5-13.5,13.5-20.4,20.1
					c-1.7,1.6-4,4.2-6.1,3.3c-2.4-1-1.9-4.4-1.9-6.9c0-15.6,0-31.3,0-46.9C587.9,420.1,587.9,416.2,587.9,412.3z"/>
				<path class="st23" d="M862.5,517.6c-0.1,6.6-0.1,13.3-0.3,19.9c-0.1,2.4,0.9,3.1,3.2,3c4.5-0.1,9.1,0.1,13.6,0.1
					c0,43.7,0,87.3,0,131c-5.5,0.7-11.1-0.8-16.6,0.8c-0.1-0.1-0.3-0.2-0.5-0.2c-0.1-1.2-0.2-2.4-0.2-3.6c0-49.8,0-99.6-0.1-149.5
					c0-0.8,0.1-1.5,0.1-2.3c0.2-0.2,0.3-0.4,0.5-0.6C862.3,516.8,862.4,517.2,862.5,517.6z"/>
				<path class="st24" d="M658.2,235c1.5,2.2,3.3,4,5.5,5.5c-2.6,5.6-8,8.6-11.7,13.1c-1.7,2.1-4.5,3.3-4.8,6.4
					c-4.8-11.9-13.1-19.8-26-21.8c-5.2-0.8-10.5-0.4-15.8-0.5c0-15.7,0-31.4,0-47.1c0-2.1-0.4-4.4,2.7-4.8c1.4,1.2,2.8,2.3,4,3.6
					C627.4,204.6,642.8,219.8,658.2,235z"/>
				<path class="st17" d="M862.2,516.5c-0.1,0.2-0.3,0.4-0.5,0.6c-6.5-0.1-13-0.3-19.5-0.3c-19.1-0.1-38.2-0.1-57.2-0.1
					c5.1-6.9,9.2-14.2,10.1-22.9c0.2-2.1,1.6-2.2,3.2-2.2c20.3,0,40.6,0,60.9,0c2.5,0,3.2,1.2,3.2,3.3
					C862.3,501.9,862.2,509.2,862.2,516.5z"/>
				<path class="st24" d="M631.7,432.9c-3.7,0.6-3.7-1.8-3.7-4.5c0.1-19.2,0-38.4,0-57.6c6.8,6.7,13.7,13.4,20.5,20
					c1.4,1.4,1.2,2.4,0,3.8c-6.9,8-10.4,17.4-11.1,27.7C637.1,427.1,633.7,429.5,631.7,432.9z"/>
				<path class="st15" d="M861.9,672.4c0.2,0,0.3,0,0.5,0.2c0.1,7.4,0.2,14.8,0.4,22.3c-0.1,6.7-0.1,13.3-0.2,20
					c0,1.6,0.4,3.3-0.6,4.9c-0.1-7.9-0.2-15.8-0.3-23.7C862.5,688.1,862.1,680.2,861.9,672.4z"/>
				<path class="st21" d="M553.3,412.2c0.9,0,1.8,0,2.7,0C555.1,413.1,554.2,413.1,553.3,412.2z"/>
				<path class="st21" d="M576.1,412.3c0.3,0,0.6,0,0.9,0C576.7,412.7,576.4,412.7,576.1,412.3z"/>
				<path class="st15" d="M135.6,718.3c0.1,0.2,0.3,0.4,0.3,0.7c0,0.1-0.2,0.2-0.3,0.3C135.6,719,135.6,718.7,135.6,718.3z"/>
				<path class="st23" d="M121.8,540.7c4.6-0.1,9.1-0.1,13.7-0.2c0,43.8,0,87.6,0,131.4c-4.6-0.1-9.1-0.1-13.7-0.2
					C121.8,628,121.8,584.4,121.8,540.7z"/>
				<path class="st20" d="M427.5,597.3c-8.9,2.9-13.8-0.6-16.5-8.5c-0.8-2.4-0.9-6.3-5.3-6.3c-2.2,0-3.3,0.3-3.1,2.9
					c0.2,3.2-0.1,6.4,0.1,9.6c0.1,2.3-0.6,3.1-3,3.1c-7.9,0.2-7.9,0.3-7.9-7.7c0-11.1,0.1-22.2-0.1-33.3c0-3,0.8-3.9,3.8-3.7
					c6.4,0.4,12.8-0.5,19.1,0.8c5.3,1,9.5,3.5,10.9,9c1.4,5.8,0.7,11.4-4.6,15c-2.4,1.6-1.8,2.9-0.8,4.8
					C422.6,587.7,425.1,592.5,427.5,597.3z M407.3,562.1c-4.6-0.1-5.3,0.1-4.5,3.5c0.7,2.8-3.8,8.2,3.2,8.5c6.6,0.3,8.9-1.4,8.9-6.1
					C415,563.7,413,562.1,407.3,562.1z"/>
				<path class="st20" d="M569.5,575.6c0-6.2,0.1-12.4-0.1-18.7c-0.1-2.7,0.5-3.9,3.5-3.6c5.1,0.4,10.3-0.5,15.4,0.7
					c1.2,0.3,2.4,0.5,3.5,1c9.5,3.6,14.5,14.2,12.3,26.1c-1.8,10-9.6,16.7-19.6,16.8c-4.8,0-11.2,1.7-14.1-0.7
					c-3-2.5-0.7-9.1-0.9-13.9C569.4,580.8,569.5,578.2,569.5,575.6z M580.5,575.5c0,2.9,0,5.8,0,8.6c0,5.6,2.2,7,7.3,4.6
					c2.5-1.2,3.9-3.3,4.6-5.9c1.2-4.5,1.3-9,0.1-13.5c-1.4-5.1-4.3-7.2-9.5-7.3c-2,0-2.6,0.6-2.6,2.6
					C580.6,568.3,580.5,571.9,580.5,575.5z"/>
				<path class="st22" d="M350.7,575.5c0-6.2,0.1-12.5,0-18.7c-0.1-2.4,0.3-3.5,3.1-3.5c8.2,0.2,16.4,0.3,24.6,0
					c3.8-0.1,3.3,2.1,3.2,4.3c0,2.2,0.8,4.7-3.1,4.5c-4.7-0.3-9.4,0.1-14.1-0.1c-3.8-0.2-2.8,2.4-2.7,4.2c0.1,1.8-1.7,4.9,2.6,4.7
					c3.5-0.2,7,0.3,10.5-0.1c4.1-0.4,3.3,2.2,3.5,4.6c0.2,2.7-0.3,4.3-3.6,4c-3.3-0.3-6.7,0.1-10-0.1c-2.5-0.1-3.3,0.7-3,3.1
					c0.1,1,0.2,2.1,0,3.2c-0.5,3.1,0.7,4.3,3.9,4c4.2-0.3,8.5,0.1,12.8-0.1c3.9-0.2,3,2.4,3,4.5c0.1,2.1,0.5,4.1-3,4
					c-8.2-0.2-16.4-0.2-24.6,0c-2.9,0.1-3.1-1.1-3.1-3.5C350.8,588.2,350.7,581.8,350.7,575.5z"/>
				<path class="st24" d="M644.9,640c-2.2,5.9-4.4,11.8-6.5,17.7c-0.7,2-1,3.9-4,3.9c-3.1,0-3.2-2.2-3.9-4.1
					c-2.2-5.9-4.3-11.8-7-17.5c0,5.9-0.1,11.7,0.1,17.6c0.1,2.9-0.6,3.9-3.7,4c-3.6,0.1-4.3-1.2-4.2-4.5c0.2-8.9,0-17.9,0.1-26.9
					c0-1.6-1.3-4.7,2-4.5c3.1,0.3,7.4-2.6,9.1,3c1.8,5.9,4,11.7,6.1,17.5c0.4,1.1,0.9,2.1,1.8,4c2.8-7.8,5.2-14.7,7.7-21.6
					c0.9-2.6,8.2-4.6,10.3-2.8c1,0.8,0.7,2,0.7,3c0,9.7-0.1,19.4,0.1,29.1c0.1,3.6-1.9,3.3-4.3,3.4c-2.7,0.1-3.7-0.7-3.6-3.6
					c0.2-6,0.1-12,0.1-18C645.3,640,645.1,640,644.9,640z"/>
				<path class="st21" d="M528.5,575.2c0-6.1,0.1-12.2-0.1-18.2c-0.1-2.7,0.5-3.7,3.5-3.6c8,0.2,16.1,0.3,24.2,0
					c3.8-0.1,3.3,2.1,3.3,4.3c0,2.2,0.7,4.7-3.1,4.5c-4.5-0.2-9.1,0.2-13.7-0.1c-4-0.3-3,2.4-3,4.5c0,2-1.2,4.8,2.9,4.5
					c3.6-0.3,7.3,0.1,10.9-0.1c3.7-0.2,2.8,2.3,2.8,4.3c0,1.9,0.9,4.5-2.8,4.3c-3.5-0.2-7,0.1-10.5-0.1c-2.4-0.1-3.5,0.4-3.5,3.1
					c0,7.1-0.2,7.1,6.8,7.1c3.5,0,7,0.1,10.5,0c3.8-0.1,2.5,2.7,2.5,4.5c0.1,1.7,0.9,4.1-2.5,4c-8.5-0.2-17-0.1-25.5,0
					c-2.2,0-2.9-0.6-2.8-2.8C528.5,588.5,528.5,581.9,528.5,575.2z"/>
				<path class="st20" d="M321.2,583.4c2.4-8.7,4.9-17.4,7.1-26.2c0.7-2.8,1.8-4.1,4.8-3.8c2.7,0.3,5.4,0.1,8.6,0.1
					c-4.9,14.6-9.8,28.7-14.5,42.8c-0.5,1.5-1.2,1.7-2.6,1.8c-9.5,0.8-9.5,0.9-12.6-8.1c-3.7-10.9-7.2-21.8-11.1-32.6
					c-1.2-3.4-0.4-4,2.9-4c8.1,0.1,8.1,0,10.2,8c2,7.4,4,14.7,6,22.1C320.6,583.4,320.9,583.4,321.2,583.4z"/>
				<path class="st24" d="M463.3,575.4c0-6.1,0.1-12.1,0-18.2c-0.1-2.8,0.5-4,3.7-3.9c7.7,0.2,15.5,0.3,23.2,0
					c3.6-0.1,3,2.1,2.9,4.1c-0.2,1.9,1.5,4.9-2.7,4.7c-4.2-0.2-8.5,0.1-12.7-0.1c-2.3-0.1-3.1,0.6-3.2,3c-0.1,6.8-0.3,6.8,6.7,6.8
					c1.8,0,3.7,0.2,5.5,0c4-0.6,5.2,0.8,5,4.9c-0.2,3.2-1,4.2-4.1,3.9c-3.3-0.3-6.7,0.1-10-0.1c-2.5-0.1-3.1,0.8-3,3.1
					c0.2,3.6-0.2,7.3,0.1,10.9c0.2,2.9-0.9,3.5-3.6,3.5c-7.6,0-7.6,0.1-7.6-7.6C463.3,585.5,463.3,580.5,463.3,575.4z"/>
				<path class="st24" d="M644.4,567.1c12.7-6.3,21.8-0.7,22,13.1c0,3.5,0,7-1.4,10.3c-3.2,7.8-11,10.6-18.3,6.4
					c-1.3-0.7-2.1-2.3-3.1,0.4c-0.6,1.5-2.8,0.7-4.2,0.6c-1.9-0.1-1.2-1.8-1.2-2.9c0-13.7,0-27.3-0.1-41c0-2.7,1.3-2.8,3.3-2.8
					c2,0,3.1,0.4,3,2.7C644.3,558.2,644.4,562.5,644.4,567.1z M644.4,581.3c0,1.5,0.1,3,0,4.5c-0.4,4.1,2,6.3,5.4,7.3
					c3.7,1.1,7.2,0.1,9-3.5c2.6-5.4,2.7-11.1,0-16.6c-1.9-3.7-5.5-4.3-9-3.3c-3.3,0.9-5.5,3-5.3,6.9
					C644.5,578.3,644.4,579.8,644.4,581.3z"/>
				<path class="st22" d="M468.5,646.1c0-14.7,6.3-21.4,17-20.8c0.2,0,0.3,0,0.5,0c6.2,0.9,10.3,4.5,11.9,10.4
					c2.2,7.9,2.3,15.8-3.9,22.2c-4.4,4.6-10.3,5.2-16.1,2.8C470.4,657.6,468.6,650.9,468.5,646.1z M491.2,643.7
					c0.2-2.6,0.1-5.1-1-7.5c-1.2-2.7-3-4.4-6.2-4.5c-3.3-0.1-5.6,1.5-6.6,4.5c-1.7,5.1-1.8,10.4,0.3,15.5c1,2.6,3.2,3.9,6,3.9
					c2.7,0,4.6-1.2,5.9-3.5C491.1,649.4,491.4,646.6,491.2,643.7z"/>
				<path class="st24" d="M441.8,643.3c0-4.9,0.1-9.7,0-14.6c-0.1-2.4,0.7-3.1,3.1-3.1c6.1,0.1,12.1,0.2,18.2,0
					c2.9-0.1,2.6,1.5,2.7,3.4c0.1,2.1-0.3,3.1-2.7,2.9c-3.2-0.2-6.4,0.2-9.6-0.1c-3.2-0.3-4.4,0.5-4.4,4.1c0,3.5,1,4.5,4.3,4.1
					c2.1-0.3,4.3,0.1,6.4-0.1c2.5-0.2,3.4,0.6,3.4,3.2c0,2.7-1.2,3-3.3,2.8c-2-0.1-4,0.2-5.9-0.1c-3.6-0.5-4.8,0.6-4.9,4.5
					c0,4.1,1.1,5.3,5,4.8c2.5-0.3,5.2,0,7.7-0.1c2.1,0,4-0.4,4,3c0,3.2-1.5,3.3-3.9,3.2c-5.6-0.1-11.2-0.1-16.8,0
					c-2.5,0.1-3.5-0.6-3.4-3.3C441.9,653.3,441.8,648.3,441.8,643.3z"/>
				<path class="st22" d="M580.6,643.4c0-2.4-0.1-4.8,0.7-7.2c2.3-7.2,7.1-10.9,14.4-10.9c7.2,0,12.1,3.8,14.3,10.9
					c1.3,4.3,1.3,8.8,0.4,13.1c-1.7,8.6-8,13.2-16.3,12.5c-7.4-0.6-12.8-6.6-13.4-14.8C580.5,645.8,580.6,644.6,580.6,643.4z
					 M603.4,643c-0.4-1.9-0.7-4.5-1.5-6.9c-0.9-2.8-3-4.4-6.1-4.5c-3.1-0.1-5.3,1.5-6.4,4.2c-2.1,5.3-2,10.6,0.2,15.8
					c1.1,2.6,3.2,3.9,6.1,3.9c2.9,0,4.8-1.5,6.1-4C602.9,649.1,603,646.3,603.4,643z"/>
				<path class="st22" d="M423.9,625.3c5.2,0,9.7,1.4,12.1,6.4c0.6,1.3,2.6,3.8-0.1,4.5c-2,0.5-5.2,2-6.6-1.4
					c-0.7-1.7-1.8-2.8-3.5-3.1c-2.8-0.4-5.9-0.7-7,2.4c-1.3,3.5,1.9,4.2,4.2,5.2c3.3,1.4,6.9,2.2,9.9,4.3c3.3,2.4,4.6,5.6,4.1,9.5
					c-0.4,4.1-3,6.5-6.7,7.8c-7,2.4-15.8,0.2-18.9-4.9c-1.1-1.8-3-4.6-0.5-5.8c1.6-0.7,5.5-2.5,6.9,2.1c1,3.2,6.9,4.5,9.8,2.6
					c2.7-1.7,2.3-5.2-1-6.8c-3-1.5-6.2-2.3-9.2-3.7c-3.8-1.7-6.5-4.5-6.5-9C410.8,629.3,415.9,625.3,423.9,625.3z"/>
				<path class="st22" d="M516.9,661.8c-6.9,0-12.5-3.2-13.8-8.2c-0.3-1.1-1.6-3.2,0.3-3.4c2.2-0.2,5.6-2,6.7,1.1
					c1.6,4.6,4.8,4.4,8.3,4.2c1.8-0.1,3.2-1,3.7-2.8c0.5-2.1-0.6-3.6-2.4-4.4c-2.8-1.2-5.7-2.1-8.4-3.3c-6.1-2.7-8.4-6.4-7.5-11.4
					c0.9-4.8,5.4-8,11.6-8.2c5.6-0.2,10.6,0.9,13.5,6.4c0.7,1.4,1.8,3.9,0.1,4.3c-2,0.5-5.1,2-6.7-1.1c-0.9-1.7-1.8-3.1-3.9-3.4
					c-2.8-0.4-5.8-0.5-6.8,2.8c-1,3.2,1.9,4,4.1,4.9c1.8,0.7,3.7,1.3,5.5,2c7.1,2.9,9.7,7,8.4,13.1
					C528.6,659,523.7,661.8,516.9,661.8z"/>
				<path class="st21" d="M381.7,643.5c0.1-2.9-0.1-5.8,0.6-8.6c1.7-6.9,5.3-9.8,12.3-9.6c6.2,0.2,9.8,3.7,11,10.5
					c0.9,5.4,0.8,10.9-0.1,16.3c-1,6-5.1,9.5-10.9,9.7c-6.4,0.2-10.2-2.7-12-8.8C381.7,649.9,381.8,646.7,381.7,643.5z M398.6,643.5
					c-0.1-2.6-0.2-5.3-0.4-8c-0.2-2.3-1.5-3.9-4-4.1c-2.5-0.2-4,1.1-4.5,3.5c-1.1,5.7-1,11.4,0,17.1c0.4,2.3,1.7,3.9,4.3,3.8
					c2.8-0.1,4-1.9,4.2-4.4C398.5,648.8,398.5,646.2,398.6,643.5z"/>
				<path class="st21" d="M547.9,643.7c0-9.9,3.4-15.7,10.2-17.8c8-2.5,15.9,1.1,18.1,8.3c0.4,1.2,2,3.3-0.4,3.6
					c-2.1,0.3-5.4,1.8-6.4-1.2c-1.5-4.5-4.4-5.6-8.4-4.8c-4.2,0.9-5.1,4.4-5.2,8c-0.1,3-0.1,6.1,0.2,9.1c0.3,3.2,1.6,6,5.2,6.5
					c3.6,0.5,6.5-0.2,7.9-4.3c1.3-3.9,4.9-2,7-1.6c2.1,0.4,0.4,2.8,0,4.2c-1.7,5-6.4,7.9-12.4,8.2c-6.4,0.3-11.2-2.1-14-8
					C548.1,650.5,547.6,646.9,547.9,643.7z"/>
				<path class="st20" d="M515.1,575.6c0,6.4-0.1,12.8,0.1,19.1c0.1,2.6-0.7,3.3-3.3,3.3c-7.8,0-7.8,0.2-7.8-7.4
					c0-11.1,0.1-22.2-0.1-33.3c-0.1-3.2,0.8-4.5,4-4c1.2,0.2,2.4,0.2,3.6,0c2.9-0.4,3.6,0.9,3.5,3.6
					C515,563.2,515.1,569.4,515.1,575.6z"/>
				<path class="st20" d="M439.2,575.6c0-6.2,0.1-12.4-0.1-18.6c-0.1-2.7,0.5-3.7,3.4-3.6c7.5,0.1,7.5-0.1,7.5,7.4
					c0,11.1-0.1,22.1,0.1,33.2c0.1,3.4-0.8,4.8-4.2,4.2c-0.7-0.1-1.5-0.1-2.3,0c-3.3,0.5-4.8-0.5-4.5-4.3
					C439.5,587.7,439.2,581.6,439.2,575.6z"/>
				<path class="st22" d="M669.4,565.4c4.8-1.4,6.9,0,8,4.3c1.6,6,3.9,11.9,6.8,17.7c1.8-5.8,3.7-11.6,5.5-17.5
					c1.7-5.4,1.7-5.4,7.9-4.6c-4.7,13.3-9.2,26.5-14.1,39.6c-1.5,4.1-4.9,6.5-9.6,6.2c-1.5-0.1-2.9-0.4-2.9-2.6c0-2,0.6-2.3,2.6-2.6
					c5.4-0.8,8.3-6.2,6.4-11.5C676.5,584.8,672.9,575.2,669.4,565.4z"/>
				<path class="st21" d="M363.5,634.5c-1.7,0.5-3.2,0.9-4.6,1.2c-1.3,0.3-3.1,1.8-3.6-0.3c-0.4-1.7-1.2-4.3,1.8-5.3
					c3.7-1.2,7.4-2.6,11.1-3.9c2.1-0.7,2.6,0,2.6,2.1c-0.1,10.1-0.1,20.3,0,30.4c0,3.3-2,2.7-3.9,2.7c-1.9,0.1-3.5,0.1-3.4-2.7
					C363.6,650.8,363.5,642.8,363.5,634.5z"/>
				<path class="st24" d="M538.3,653.6c2.2,0.4,4.1,1.1,4.2,3.9c0.1,2.6-1.4,4-3.8,4.1c-2.4,0.1-4.1-1.2-4.2-3.7
					C534.3,655.3,536.1,654.3,538.3,653.6z"/>
				<path class="st25" d="M517.7,142.9c-4.2,0.1-8.4,0.4-12.5,1.7c-8.6,2.7-11.9,7.1-11.1,16.1c1,12.4,2.5,24.7,3,37.1
					c0.1,3.4-0.1,6.6-1.7,9.6c-3.4,6.5-6.3,13.3-10.4,19.5c-3.4-2.3-6-5.6-8.9-8.4c-11.7-11.5-23.3-23-35-34.5
					c-7.9-8.9-16.4-17-25.5-24.6c0-0.6,0-1.2,0-1.8c8.1-7.4,16.6-14.4,23.7-22.8c9.5-8.7,18.6-17.9,27.4-27.4
					c9.9-9.7,19.8-19.5,29.7-29.2c1.7-1.7,1.4-3.1-0.2-4.6c-3.2-3.2-6.3-6.5-9.5-9.8c29.9-1.5,59.2,1.9,87.7,11.1
					c-1,2.9-1.2,5.9-1.1,8.9c0.1,19.4,0,38.8,0.1,58.2c0,2.4,0.1,4.6-2.8,5.5c-1.2-1.1-2.6-2.1-3.7-3.3
					c-13.5-13.5-27.1-27-40.6-40.5c-0.9-0.9-1.8-1.7-2.6-2.6c-1.4-1.6-3.3-2.8-5.1-2.2c-1.9,0.6-0.9,3-0.9,4.5
					C517.7,116.5,517.7,129.7,517.7,142.9z"/>
				<path class="st25" d="M317.9,391c-6.1-5.9-12.2-11.8-18.2-17.8c-8.4-8.3-16.7-16.7-25.1-25.1c-0.8-0.8-1.4-1.6-2.3-2.2
					c-2.5-2-5.6-4.3-8.3-3.5c-2.1,0.7-0.8,4.6-0.9,7.1c-0.1,18.9,0,37.9-0.1,56.8c0,1.6,1.1,3.8-1.5,4.6
					c-9.5-23-14.6-47.1-16.7-71.8c-2.5-29.2,0.2-58,7.4-86.4c2.5-9.7,5.4-19.3,9.7-28.4c1.3,2,1.2,4.3,1.2,6.6c0,23.5,0,47.1,0,70.6
					c0,1.1,0,2.1,0,3.2c0.1,1.5,0.4,2.2,2.2,1.3c4.1-2,7.5-4.7,10.7-7.9c12.1-12.4,24.4-24.6,36.7-36.8c3.4-3.4,7-6.7,10.5-10.1
					c1.5,2.4,1.9,5,1.9,7.8c-0.1,42.8,0,85.7,0,128.5c0,0.8,0,1.5,0,2.3c-0.1,3-0.9,4.9-3.9,2C320.3,391.1,319.2,390.9,317.9,391z"
					/>
				<path class="st10" d="M658.2,235c-15.4-15.2-30.7-30.4-46.1-45.6c-1.3-1.3-2.7-2.4-4-3.6c-7.1-8.4-15.5-15.7-23.2-23.5
					c-2.5-2.5-2.7-4.1-0.1-6.7c6.1-5.9,11.9-12.1,17.8-18.1c10-9.9,20.1-19.8,30.1-29.6c1.4-1.3,2.5-3.2,4.7-3.3
					c9.7,5.7,18.5,12.5,26.8,19.9c-2.3,1.3-1.4,3.5-1.4,5.3c0,33.6-0.1,67.2,0,100.7C662.8,234.2,661.7,235.6,658.2,235z"/>
				<path class="st20" d="M602.5,137.5c-5.9,6.1-11.7,12.2-17.8,18.1c-2.6,2.5-2.4,4.1,0.1,6.7c7.8,7.8,16.1,15.1,23.2,23.5
					c-3.1,0.3-2.7,2.7-2.7,4.8c0,15.7,0,31.4,0,47.1c-17,0.1-34,0-50.9,0.2c-3.1,0-2.9-1.2-2.4-3.5c1.8-9.7,4-19.2,4.6-29.1
					c0.4-7.2-0.9-14.1-1.7-21.2c1.1,0,2-0.5,2.8-1.3c7.4-7.4,14.7-14.8,22.2-22.1c1.5-1.5,1.1-2.4-0.2-3.7c-3.1-3.1-6.1-6.3-9.1-9.5
					c2.9-0.8,2.8-3.1,2.8-5.5c0-19.4,0-38.8-0.1-58.2c0-3.1,0.2-6,1.1-8.9c7.2,2.7,14.5,5.3,21.7,8c0,16,0,32,0,48
					C596.1,137.4,596.1,137.4,602.5,137.5z"/>
				<path class="st21" d="M323.4,251.4c-3.5,3.4-7.1,6.6-10.5,10.1c-12.3,12.2-24.6,24.4-36.7,36.8c-3.2,3.3-6.7,5.9-10.7,7.9
					c-1.8,0.9-2.2,0.2-2.2-1.3c0-1.1,0-2.1,0-3.2c0-23.5,0-47.1,0-70.6c0-2.3,0.1-4.6-1.2-6.6c4.8-13.1,10.9-25.5,18.4-37.2
					c0.1,2.2,1.8,3.4,3.2,4.7c16.1,14.8,31.3,30.6,46.9,45.9c2.4,2.3,2.7,3.7,0,6C327.9,246.2,325.8,248.9,323.4,251.4z"/>
				<path class="st21" d="M415.5,157.5c0,0.6,0,1.2,0,1.8c-4.3,3.6-8.3,7.5-11.9,11.9c-6.2,6-12.3,12-18.5,18
					c-9.4,9.2-18.7,18.4-28.1,27.6c-4.1,0.2-3.7-2.7-3.7-5.3c0-32,0-64.1,0-96.1c0-1.9,0.8-4-1.2-5.5c2.9-2.5,6-4.6,9.4-6.3
					c3.7,4.8,8.3,8.8,12.6,13.1c10.9,10.9,22,21.7,33,32.6C409.7,152.4,412.4,155.1,415.5,157.5z"/>
				<path class="st20" d="M415.5,157.5c-3.1-2.4-5.8-5.1-8.2-8.2c2.2-1.7,2.8-4,2.8-6.8c-0.1-12.9,0.1-25.8-0.1-38.7
					c-0.1-8,0.9-16.1-0.9-24c8.5-3.8,17.4-6.2,26.4-8.5c0,19.6,0.1,39.3,0.1,58.9c0,2.7,0,5,3.7,4.4
					C432.1,143.1,423.7,150.2,415.5,157.5z"/>
				<path class="st25" d="M409.1,79.8c1.8,7.9,0.8,16,0.9,24c0.2,12.9,0,25.8,0.1,38.7c0,2.8-0.6,5.1-2.8,6.8
					c-11-10.9-22.1-21.7-33-32.6c-4.3-4.3-8.9-8.3-12.6-13.1C376.4,93.7,392.2,85.7,409.1,79.8z"/>
				<path class="st21" d="M439.2,134.7c-3.7,0.6-3.7-1.8-3.7-4.4c0-19.6,0-39.3-0.1-58.9c9.6-2.7,19.4-4.5,29.3-5.7
					c0,11.8,0,23.6,0,35.4c0,2.4,0.3,4.5,1.9,6.3C457.9,116.9,448.7,126,439.2,134.7z"/>
				<path class="st22" d="M602.5,137.5c-6.4,0-6.4,0-6.4-6.6c0-16,0-32,0-48c14.6,5.6,28.4,12.8,41.2,21.7c-2.3,0.1-3.3,1.9-4.7,3.3
					C622.6,117.7,612.6,127.6,602.5,137.5z"/>
				<path class="st24" d="M466.6,107.4c-1.6-1.8-1.9-3.9-1.9-6.3c0.1-11.8,0-23.6,0-35.4c7.3-1,14.6-2,21.9-1.9
					c3.1,3.3,6.3,6.5,9.5,9.8c1.6,1.6,1.8,3,0.2,4.6C486.4,87.9,476.5,97.6,466.6,107.4z"/>
				<path class="st10" d="M536.2,250.6c13.5,0,26.6,0,39.6,0c12.9,0,25.8,0,38.8,0c10.7,0,18.8,6.5,20.5,16.4
					c1.6,9.2-4.3,18.1-14.9,21.7c12.1,3.4,19.3,10.4,17.4,23.1c-1.5,10-7.7,14.1-22.5,16.3c8.8,5.9,12.8,13.8,9.2,23.8
					c-3.6,10-11.7,13.3-22.2,12.6c1.6,3.2,4.2,5.4,5.3,8.5c4.8,12.6-4.3,25.9-18.1,26c-16.3,0.2-32.5,0-48.8,0
					c-17.3,0-34.7,0.4-52-0.2c-10.5-0.3-19.6-5.7-28.9-10c-1.4-0.7-1.2-1.9-1.2-3.1c0-31.3,0-62.6,0-93.9c0-2,0.5-2.8,2.6-3.3
					c5.5-1.4,9.9-4.8,12.2-10.1c8.2-18.6,18.2-36.3,28.4-53.8c7.8-13.4,9.8-27,7.7-41.8c-1-7.2-1.3-14.5-2.4-21.7
					c-0.5-3.2,1-4,3.4-4.5c8.6-1.6,15.6,1.2,20.8,8.1c10.6,14.1,14,30,11.5,47.3C540.8,224.8,537.7,237.3,536.2,250.6z"/>
				<path class="st10" d="M357.1,216.8c9.4-9.2,18.7-18.4,28.1-27.6c6.1-6,12.3-12,18.5-18c3.7-0.6,3.7,1.8,3.7,4.5
					c0,28.9,0,57.8,0,86.7c-12,0.1-24,0.2-36,0.2c-7.4,0-7.4,0-7.8,7.1c-1.6,0-2.4-1.1-3.4-2.1c-7.8-7.8-15.6-15.8-23.5-23.4
					c-2.7-2.6-2.2-4.3,0.2-6.7C343.7,230.7,350.4,223.7,357.1,216.8z"/>
				<path class="st20" d="M407.3,262.3c0-28.9,0-57.8,0-86.7c0-2.6,0.1-5-3.7-4.5c3.6-4.3,7.5-8.3,11.9-11.9
					c9.1,7.6,17.7,15.7,25.5,24.6c-2.9,0.8-2.8,3.1-2.8,5.5c0,24.3,0,48.6,0,72.9C428,262.3,417.6,262.3,407.3,262.3z"/>
				<path class="st21" d="M438.3,262.3c0-24.3,0-48.6,0-72.9c0-2.4-0.1-4.6,2.8-5.5c11.7,11.5,23.3,23,35,34.5
					c2.9,2.9,5.5,6.1,8.9,8.4c-5.9,11.2-11.9,22.5-17.8,33.7c-1.7,3.4-3.3,6.8-4.9,10.2c-0.8,1.6-1.4,3.3-3.9,4.5
					c0-3.4-0.2-6.5,0-9.5c0.2-2.6-0.7-3.4-3.3-3.3C449.6,262.6,443.9,262.4,438.3,262.3z"/>
				<path class="st24" d="M570.6,147.5c3,3.2,6,6.4,9.1,9.5c1.3,1.3,1.7,2.2,0.2,3.7c-7.5,7.3-14.8,14.7-22.2,22.1
					c-0.8,0.8-1.7,1.3-2.8,1.3c-2.1-6.3-4.2-12.5-7.3-18.4c-6.4-12.2-15.8-20.5-29.8-22.7c0-13.2,0-26.4,0-39.6c0-1.5-1-3.9,0.9-4.5
					c1.8-0.6,3.7,0.6,5.1,2.2c0.8,0.9,1.7,1.7,2.6,2.6c13.5,13.5,27,27,40.6,40.5C568,145.4,569.4,146.4,570.6,147.5z"/>
				<path class="st20" d="M762.2,429.7c0.1,2.4-0.9,3.9-2.2,5.2c-16.8,16.9-33.5,33.9-50.3,50.8c-3,3-6.1,2.9-9.2,0.1
					c-9.2-8.4-18.5-16.7-27.6-25.1c-3.4-3.1-3.7-6.7-1-9.1c3-2.7,6.1-2.1,8.9,0.5c7,6.3,14,12.5,20.8,19.1c2.6,2.5,4,2.2,6.4-0.2
					c14.3-14.7,28.7-29.2,43.2-43.8c3.7-3.7,8.1-3.5,10.3,0.3C761.8,428.4,762,429.3,762.2,429.7z"/>
				<path class="st26" d="M88,540.7c6.1,0,12.2,0,18.2,0c0,43.7,0,87.3,0,131c-5.8,0-11.6,0-17.3,0c0-17.6,0-35.2,0-52.8
					c0-2.4,0.3-4.9-2.2-6.5c3.3-4.1,3.3-8.2,0.2-12.4c1.2-1.9,1.1-4,1.1-6.2C88,576.2,88,558.4,88,540.7z"/>
				<ellipse class="st27" cx="114" cy="606.2" rx="11" ry="92.6"/>
				<path class="st28" d="M86.7,612.4c2.5,1.6,2.2,4.1,2.2,6.5c0,17.6,0,35.2,0,52.8c-12,0-24,0-36,0c-0.5-1.4,0.6-2.2,1.2-3.2
					c10.6-18.4,21.1-36.7,31.7-55.1C86.1,613,86.4,612.8,86.7,612.4z"/>
				<path class="st28" d="M88,540.7c0,17.7,0,35.5,0,53.2c0,2.1,0.2,4.3-1.1,6.2c-4.8-8-9.5-16-14.2-24.1
					c-6.8-11.6-13.4-23.2-20.5-35.3C64.6,540.7,76.3,540.7,88,540.7z"/>
				<path class="st26" d="M911.8,671.7c-5.8,0-11.6,0-17.3,0c0-43.7,0-87.3,0-131c5.8,0,11.6,0,17.3,0c0,16.5,0,32.9,0,49.4
					c0,1.9-0.6,4,1.8,5.2c-6.1,7.3-5.8,14.6-0.1,21.9c-2.7,0.7-1.6,3-1.6,4.5C911.7,638.4,911.8,655,911.8,671.7z"/>
				<ellipse class="st27" cx="886.7" cy="606.2" rx="11" ry="92.6"/>
				<path class="st28" d="M911.8,671.7c0-16.7,0-33.3,0-50c0-1.6-1.1-3.8,1.6-4.5c8.6,13.2,15.9,27.1,23.9,40.6
					c2.7,4.5,5.3,9.1,8.1,14C933.8,671.7,922.8,671.7,911.8,671.7z"/>
				<path class="st28" d="M913.6,595.2c-2.3-1.1-1.8-3.3-1.8-5.2c0-16.5,0-32.9,0-49.4c11,0,22,0,33.8,0
					C934.7,559.2,924.1,577.2,913.6,595.2z"/>
				<path class="st18" d="M407.3,562.1c5.7,0.1,7.6,1.6,7.6,5.9c0,4.6-2.3,6.4-8.9,6.1c-7-0.3-2.5-5.6-3.2-8.5
					C402.1,562.1,402.7,562,407.3,562.1z"/>
				<path class="st18" d="M580.5,575.5c0-3.6,0.1-7.3,0-10.9c-0.1-2,0.6-2.6,2.6-2.6c5.2,0.1,8.1,2.2,9.5,7.3
					c1.2,4.5,1.1,9-0.1,13.5c-0.7,2.6-2.1,4.7-4.6,5.9c-5.2,2.4-7.3,1.1-7.3-4.6C580.5,581.3,580.5,578.4,580.5,575.5z"/>
				<path class="st18" d="M644.4,581.3c0-1.5,0.1-3,0-4.6c-0.3-3.9,2-6,5.3-6.9c3.6-1,7.1-0.4,9,3.3c2.8,5.5,2.7,11.2,0,16.6
					c-1.7,3.6-5.3,4.6-9,3.5c-3.4-1-5.8-3.3-5.4-7.3C644.5,584.3,644.4,582.8,644.4,581.3z"/>
				<path class="st18" d="M491.2,643.7c0.2,2.9-0.1,5.7-1.5,8.3c-1.3,2.3-3.2,3.5-5.9,3.5c-2.9,0-5-1.3-6-3.9
					c-2-5.1-2-10.3-0.3-15.5c1-3,3.3-4.6,6.6-4.5c3.1,0.1,5,1.8,6.2,4.5C491.3,638.5,491.4,641.1,491.2,643.7z"/>
				<path class="st18" d="M603.4,643c-0.5,3.3-0.5,6.1-1.7,8.6c-1.2,2.5-3.2,4-6.1,4c-2.9,0-5-1.3-6.1-3.9
					c-2.2-5.2-2.3-10.6-0.2-15.8c1.1-2.7,3.2-4.2,6.4-4.2c3.1,0.1,5.2,1.7,6.1,4.5C602.7,638.5,603,641.1,603.4,643z"/>
				<path class="st18" d="M398.6,643.5c-0.1,2.7-0.2,5.2-0.4,7.8c-0.2,2.5-1.4,4.3-4.2,4.4c-2.6,0.1-3.9-1.5-4.3-3.8
					c-1-5.7-1-11.4,0-17.1c0.5-2.4,1.9-3.7,4.5-3.5c2.6,0.2,3.8,1.8,4,4.1C398.5,638.2,398.5,640.9,398.6,643.5z"/>
			</g>
		</g>
	</g>
</g>
<g id="Layer_2">
</g>
</svg>
