<?xml version="1.0" encoding="utf-8"?>
<!-- Generator: Adobe Illustrator 25.2.1, SVG Export Plug-In . SVG Version: 6.00 Build 0)  -->
<svg version="1.1" xmlns="http://www.w3.org/2000/svg" xmlns:xlink="http://www.w3.org/1999/xlink" x="0px" y="0px"
	 viewBox="0 0 920.1 723.2" style="enable-background:new 0 0 920.1 723.2;" xml:space="preserve">
<style type="text/css">
	.st0{fill:#FFFFFF;}
	.st1{fill:#FFFFFF;stroke:#FFFFFF;stroke-width:18;stroke-linecap:round;stroke-linejoin:round;stroke-miterlimit:10;}
	.st2{fill:#315477;}
	.st3{fill:#FDC212;}
	.st4{fill:#315478;}
	.st5{fill:#FEC311;}
	.st6{fill:#B19637;}
	.st7{fill:#F6F7F8;}
	.st8{fill:#FAFAFB;}
	.st9{fill:#C1CAD5;}
	.st10{fill:#FEFEFE;}
	.st11{fill:#335475;}
	.st12{fill:#335578;}
	.st13{fill:#F9BF15;}
	.st14{fill:#F17C21;}
	.st15{fill:#F89A53;}
	.st16{fill:#102A4A;}
	.st17{fill:#F47D21;}
	.st18{fill:#112B4B;}
	.st19{fill:#00AB64;}
	.st20{fill:#F7F7F8;}
	.st21{fill:#F1F1F1;}
	.st22{fill:#F3F3F3;}
	.st23{fill:#112A36;}
	.st24{fill:#EFEEEF;}
	.st25{fill:#FCFCFC;}
	.st26{fill:#0B293F;}
	.st27{fill:#0B2938;}
	.st28{fill:#0F2946;}
	.st29{fill:#FEDC3A;}
	.st30{fill:#FEE68E;}
	.st31{fill:#DEE6F4;}
	.st32{fill:#375385;}
	.st33{fill:#FFD537;}
	.st34{fill:#0F0C04;}
	.st35{fill:#FFD838;}
	.st36{fill:#F5D764;}
	.st37{fill:#F4D87A;}
	.st38{fill:#DAB457;}
	.st39{fill:#090A0C;}
	.st40{fill:#EDAC3B;}
	.st41{fill:#BE8931;}
	.st42{fill:#FFEDB0;}
	.st43{fill:#C44F27;}
	.st44{fill:#E1422E;}
	.st45{fill:#DD4530;}
	.st46{fill:none;stroke:#FFFFFF;stroke-width:5;stroke-linecap:round;stroke-linejoin:round;stroke-miterlimit:10;}
	.st47{fill:#C8302A;}
	.st48{fill:#7E8C94;}
	.st49{fill:#F2654D;}
	.st50{fill:#F2664E;}
	.st51{fill:#F2644C;}
	.st52{fill:#EF442F;}
	.st53{fill:#E4573C;}
	.st54{fill:#EF5E43;}
	.st55{fill:#D95338;}
	.st56{fill:#EDEDED;}
	.st57{fill:#F04B2D;}
	.st58{fill:#094D79;}
	.st59{fill:#F9A61C;}
	.st60{fill:#F68920;}
	.st61{fill:#035382;}
	.st62{fill:#0064A0;}
	.st63{fill:#0E5684;}
	.st64{fill:#FBA920;}
	.st65{fill:#FBAD27;}
	.st66{fill:#F7F7F7;}
	.st67{fill:#FEFDFC;}
	.st68{fill:#2E6792;}
	.st69{font-family:'SFUIDisplay-Semibold';}
	.st70{font-size:32.1997px;}
	.st71{font-size:48.5425px;}
	.st72{font-size:26.4956px;}
</style>
<g id="Layer_1">
	<g>
		<path class="st58" d="M813.3,400.7c-9.2,0.1-18.3,0.1-27.5,0.4c-3.5,0.1-3.5-1.7-3.2-4.3c1.2-11.4,1.9-22.8,2-34.3
			c0.5-154.9-106.5-290.1-258.1-321.6C406.8,16,302.8,48.8,217.6,136.7c-51.5,53.1-79.7,117.7-87.6,191.2
			c-2.5,22.9-2.3,45.8,0.4,68.6c0.4,3.7-0.5,4.7-4,4.6c-8-0.3-16-0.3-24-0.4c-3.4-33.3-2.8-66.4,3.2-99.3
			c17.7-97.8,67.3-175.6,148.3-232.8C307.6,30.4,368,9.6,434,5.3C607.4-5.8,763.2,107.6,804.7,275c10,40.2,13.1,81,8.8,122.2
			C813.4,398.4,813.4,399.5,813.3,400.7z"/>
		<path class="st58" d="M157.7,555.8c10.6-1.2,21.3-0.2,32-0.5c3.1-0.1,4.1,2.5,5.5,4.4c26.3,34.4,58,62.8,95.4,84.5
			c64.4,37.4,133.9,51.9,207.7,42.2c90.4-12,163.5-55,219.5-127.1c2.2-2.8,4.4-4.3,8.1-4.1c10.7,0.5,21.4-0.6,32,0.6
			c-55.7,83.5-132.2,137.8-231,155.9c-136,24.9-250.6-16.7-342.6-120C174.4,580.5,165.7,568.4,157.7,555.8z"/>
		<path class="st59" d="M392.4,107.6c0.5-12.6,7-22,16.9-29c7.4-5.2,15.7-8,25.2-7.9c27.5,0.3,55,0.2,82.5,0c4.9,0,6.1,1.5,5.9,6.1
			c-0.4,8.4-0.3,16.8,0,25.2c0.2,4.5-1.1,5.8-5.7,5.8c-25.6-0.2-51.2-0.1-76.7-0.1c-2.7,0-5.3,0.2-7.8,1.2c-1.3-2-3.4-1.4-5.2-1.4
			C415.7,107.6,404.1,107.6,392.4,107.6z"/>
		<path class="st60" d="M392.4,107.6c11.7,0,23.3-0.1,35,0c1.8,0,3.9-0.6,5.2,1.4c-3,2.5-3.7,5.8-3.7,9.7
			c0.1,26.7-0.1,53.4,0.2,80.1c0,4.6-1.3,5.9-5.7,5.7c-9-0.3-17.9-0.1-26.9-0.1c-2.5,0-4.3-0.1-4.3-3.5
			C392.3,169.8,392.3,138.7,392.4,107.6z"/>
		<path class="st61" d="M487.5,163.7c0.1-10.6,0.1-10.6-10.3-10.6c-11.2,0-22.5-0.1-33.7,0.1c-3.2,0-4.4-0.8-4.3-4.2
			c0.2-8,0.1-16,0-24c-0.1-4.9,2.3-7,7-7c24.8,0,49.6,0,74.4,0c2.6,0,3.8,0.7,3.7,3.5c-0.2,14.9-0.2,29.7-0.3,44.6
			c-0.3,0-0.6-0.1-0.8-0.1c0-11.8,0-23.6,0-36.9c-7.2,17.6-18.5,29.2-35.3,34.9L487.5,163.7z"/>
		<path class="st62" d="M523.1,166c0.3,0,0.6,0,0.8,0.1c0,22-16,38.2-37.7,38.2c-14.1,0-28.2-0.1-42.4,0.1c-3.8,0.1-4.9-1.1-4.8-4.8
			c0.2-9.3,0.3-18.7,0-28c-0.2-4.5,1.5-5.3,5.6-5.3c13.5,0.2,27.1,0,40.6-0.1c0.7,0,1.5,0.1,2.2,0.1
			C499.4,166.1,511.2,166,523.1,166z"/>
		<path class="st63" d="M288.8,289.3c0,2.3-0.3,4.6,0.1,6.9c1.4,7.7-2.8,11.5-9.2,14.3c-17.1,7.5-35.3,3.5-46.1-10.2
			c-10.3-13-10.4-30.4-0.2-44c11.4-15.3,34.5-19.1,50.3-8.1c1.6,1.1,5.5,1.9,2.4,5.4c-2,2.2-3,5.2-7.6,2.5
			c-18.9-11.5-40-1.3-42.8,20.2c-1.2,9.3,4.5,20.4,13.4,25.4c9.2,5.2,18.3,4.2,27.2-0.7c3.6-2,2.3-5.3,2.4-8.2
			c0.1-9.9,0.1-9.9-9.7-9.9c-1.5,0-3.1,0.3-4.6-0.1c-2-0.6-6,1.9-5.7-1.7c0.2-3.1,0.4-8,6.4-7.6c6.5,0.4,13,0.2,19.5,0
			c3.3-0.1,4.4,1,4.2,4.3C288.6,281.6,288.8,285.4,288.8,289.3z"/>
		<path class="st64" d="M602.4,267.1c7-6.3,14.6-8.6,20.7-4.7c5.9,3.7,9.4,2.3,14.8,0c13.4-5.6,24.2,2.1,24.3,16.6
			c0,9.6-0.4,19.1,0.2,28.7c0.3,5.7-2.6,6.3-6.8,6.3c-5.4,0-2.7-4.2-2.8-6.3c-0.3-9.2-0.1-18.3-0.2-27.5c-0.1-7.2-2.8-10.6-8.4-10.7
			c-6.6-0.1-11.1,4.2-11.2,11c-0.1,9.4-0.4,18.7,0.1,28.1c0.3,6.1-3.9,4.9-7.2,5.3c-4.6,0.6-2.9-3-3-5c-0.2-9.9,0-19.9-0.1-29.8
			c0-6.3-2.8-9.5-8.1-9.6c-6.2-0.1-11.2,3.9-11.3,9.7c-0.2,9.9-0.3,19.9,0,29.8c0.2,5.9-3.9,4.4-6.9,4.9c-4.3,0.8-3.4-2.5-3.4-4.8
			c0-13.9-0.1-27.9,0-41.8c0-2.5-1.1-5.7,3.3-5.9C599.8,261.3,604.2,259.5,602.4,267.1z"/>
		<path class="st63" d="M469.8,307.4c-6.5,5.2-14.4,8.3-23.7,5.9c-11-2.9-18-10.1-20.1-21.1c-2-10.4,1.2-19.5,9.9-25.8
			c8.9-6.6,18.7-7.1,28.7-2.1c6.3,3.2,6.3,3.2,6.3-4c0-4.6,0.2-9.2-0.1-13.8c-0.2-3.2,0.7-4.6,4.1-5.3c4.6-1,5.9,0,5.9,4.8
			c-0.2,20.2-0.2,40.5,0,60.8c0,4.5-0.5,6.9-5.8,7.1C468.5,314.1,473.4,308.9,469.8,307.4z M471.8,288.1c0.2-10.6-7.3-17.8-18.7-18
			c-10-0.2-18.2,7.6-18.2,17.3c0,9.1,8.2,17.2,17.8,17.5C463.8,305.2,471.6,298.3,471.8,288.1z"/>
		<path class="st63" d="M390.9,314.1c-15.5-0.1-28.3-12-28.4-26.4c-0.1-14.7,12.8-26.7,28.7-26.6c15.6,0.1,28.3,11.9,28.4,26.4
			C419.8,301.9,406.6,314.1,390.9,314.1z M391.1,270.1c-10.4,0-18.9,7.7-18.9,17.4c0,9.5,8.5,17.4,18.9,17.4
			c10.5,0,18.8-7.7,18.8-17.4C409.9,277.8,401.7,270.2,391.1,270.1z"/>
		<path class="st63" d="M328.4,261c15.9,0.1,28.7,12.1,28.4,26.9c-0.2,14.4-13.1,26.2-28.6,26.2c-15.5,0-28.3-11.9-28.5-26.4
			C299.6,273.1,312.6,261,328.4,261z M328.3,305c10.3,0,19-7.9,18.9-17.4c0-9.6-8.5-17.4-18.9-17.4c-10.5,0-18.8,7.6-18.8,17.4
			C309.6,297.2,317.9,305,328.3,305z"/>
		<path class="st64" d="M492.3,278.2c0-10.1,0.1-20.2-0.1-30.4c-0.1-3.4,0.5-5.2,4.6-5c9.4,0.3,18.7,0.4,28.1,0
			c5.8-0.2,4.7,4.1,5,6.9c0.5,4-3.2,2.3-5,2.3c-6.1,0.2-12.2,0.3-18.3,0c-3.4-0.1-4.3,1.1-4.1,4.3c0.2,4,0.2,8,0,12
			c-0.2,3.1,1.1,3.9,4,3.8c4.6-0.2,9.2,0.1,13.7-0.1c4.2-0.2,3.8,2.4,3.9,5.2c0.1,3-0.5,4.7-4.1,4.5c-4.6-0.2-9.2,0.1-13.7-0.1
			c-3-0.1-4,0.9-3.9,3.9c0.2,7.8-0.2,15.7,0.2,23.5c0.3,5.9-4,4.3-6.9,4.8c-4.3,0.8-3.4-2.5-3.4-4.8
			C492.2,298.8,492.3,288.5,492.3,278.2z"/>
		<path class="st64" d="M687.4,314.1c-5.3,0-10.3-1.2-14.3-4.9c-1.4-1.3-4.9-2.6-1.7-5.2c1.9-1.6,3.6-5.6,7.4-1.8
			c3.2,3.3,7.5,3.6,11.8,2.6c2.8-0.6,5.1-2.2,5.5-5.2c0.4-2.9-1.3-5.1-3.8-6.5c-3.2-1.8-6.9-2.3-10.3-3.3
			c-8.6-2.5-12.3-7.2-11.5-14.7c0.9-7.8,6.9-13.6,14.8-14.2c5.9-0.5,11.4,0.5,16.1,4.5c1.5,1.3,3.3,2.6,0.9,4.5
			c-1.7,1.4-2.4,5.6-6.1,2.4c-3.1-2.6-6.7-3.7-10.7-2.6c-2.5,0.6-4.7,1.8-5.1,4.7c-0.4,3.1,1.1,5.2,3.9,6.3c2.5,1,5.1,1.7,7.6,2.4
			c11,2.9,15.1,8.1,13.8,17.6C704.5,308.6,697,314.1,687.4,314.1z"/>
		<path class="st64" d="M569.2,270c4.4-6.4,9.6-9.6,16.7-9.5c3.1,0,3.7,1.1,2.4,3.7c-1.5,3.1-2.2,6.2-7.1,6.7
			c-7.4,0.8-11.9,8.3-12.1,17.9c-0.2,6.9-0.2,13.8,0,20.6c0.2,5.6-4,3.9-6.8,4.4c-3.9,0.8-3.1-2.3-3.1-4.4c0-14.1,0.2-28.3-0.1-42.4
			c-0.1-4.6,1.6-5.8,5.8-6c5.2-0.2,3.3,3.4,3.7,5.8C568.8,267.6,568.9,268.2,569.2,270z"/>
		<path class="st65" d="M547.2,287.6c0,7.2-0.2,14.5,0.1,21.7c0.2,5.5-3.8,4-6.6,4.6c-4.1,0.9-3.6-2.1-3.6-4.6
			c0-14.5,0.2-28.9-0.1-43.4c-0.1-5.8,3.9-4.4,6.9-4.8c4.3-0.6,3.2,2.6,3.3,4.8C547.3,273.2,547.2,280.4,547.2,287.6z"/>
		<path class="st65" d="M548.5,248c-1.8,3-3.4,6.8-6,6.9c-3.1,0.1-5.8-3.7-6-6.5c-0.2-2.7,2.8-6.4,5.4-6.6
			C545.1,241.4,546,246,548.5,248z"/>
		<path class="st61" d="M487.5,166.1c-0.7,0-1.5-0.1-2.2-0.1c0.7-0.8,1.4-1.6,2.2-2.4c0,0,0.3,0.3,0.3,0.3
			C487.7,164.7,487.6,165.4,487.5,166.1z"/>
		<path class="st58" d="M487.5,166.1c0.1-0.7,0.2-1.4,0.2-2.2c16.9-5.7,28.1-17.2,35.3-34.9c0,13.3,0,25.1,0,36.9
			C511.2,166,499.4,166.1,487.5,166.1z"/>
		<path class="st66" d="M471.8,288.1c-0.2,10.1-8.1,17.1-19.1,16.8c-9.6-0.2-17.8-8.3-17.8-17.5c0-9.8,8.2-17.5,18.2-17.3
			C464.5,270.4,472,277.6,471.8,288.1z"/>
		<path class="st66" d="M391.1,270.1c10.6,0,18.8,7.6,18.8,17.4c0,9.7-8.3,17.4-18.8,17.4c-10.3,0-18.9-7.9-18.9-17.4
			C372.2,277.9,380.6,270.1,391.1,270.1z"/>
		<path class="st66" d="M328.3,305c-10.5,0-18.8-7.7-18.8-17.4c0-9.8,8.2-17.4,18.8-17.4c10.4,0,18.9,7.8,18.9,17.4
			C347.3,297,338.7,304.9,328.3,305z"/>
		<path class="st67" d="M708.2,555.5c-167.8,0-335.6,0-505.1,0c61,75.4,138.2,118.4,233.8,123.8C548,685.5,638.4,642.4,708.9,557
			C708.7,556.5,708.4,556,708.2,555.5z"/>
		<text transform="matrix(1 0 0 1 365.7667 618.8976)" class="st68 st69 st70">Goodfirms.co</text>
		<path class="st65" d="M915,550.2c-19.3-23.7-39.1-46.9-60.7-68.6c-3.2-3.2-3.1-4.8,0.2-7.9c22.2-21.1,42.4-44,61.2-68.1
			c0.9-1.1,2.7-2.1,1.7-3.8c-0.7-1.2-2.5-0.6-3.7-0.6c-14.1,0-28.3,0-42.4,0c-19.3-0.1-38.6-0.2-57.8-0.3
			c-9.2,0.1-18.3,0.1-27.5,0.4c-3.5,0.1-3.5-1.7-3.2-4.3c1.2-11.4,1.9-22.8,2-34.3c0.5-154.9-106.5-290.1-258.1-321.6
			C406.8,16,302.8,48.8,217.6,136.7c-51.5,53.1-79.7,117.7-87.6,191.2c-2.5,22.9-2.3,45.8,0.4,68.6c0.4,3.7-0.5,4.7-4,4.6
			c-8-0.3-16-0.3-24-0.4c-2.3,0.1-4.6,0.3-6.8,0.3c-29,0-58,0-87.1,0.1c-1.9,0-4.7-1.2-5.7,0.9c-0.8,1.7,1.6,3.2,2.7,4.7
			c18.8,23.9,38.8,46.6,60.9,67.6c2.8,2.6,2.7,4.1,0.1,6.7c-21.7,21.9-41.6,45.2-61,69c-1.1,1.4-3.6,2.6-2.4,4.6
			c0.8,1.4,3.2,0.6,4.8,0.6c47.5,0,95.1,0,142.6,0c2.5,0,4.9,0.3,7.4,0.5c10.6-1.2,21.3-0.2,32-0.5c3.1-0.1,4.1,2.5,5.5,4.4
			c26.3,34.4,58,62.8,95.4,84.5c64.4,37.4,133.9,51.9,207.7,42.2c90.4-12,163.5-55,219.5-127.1c2.2-2.8,4.4-4.3,8.1-4.1
			c10.7,0.5,21.4-0.6,32,0.6c2.5-0.2,4.9-0.5,7.4-0.5c49.1,0,98.2,0,147.3-0.1c1.6,0,3.9,0.9,4.7-0.8
			C918.1,552.6,916,551.4,915,550.2z M140.2,317.4c6.3-44.6,20.8-86.4,45-124.4c49-77,118-126.6,207.5-144.3
			c103.2-20.3,196,4.6,275.5,74c54.6,47.7,88.1,108.1,101.9,179.3c5.9,30.4,6.5,61,4.1,91.8c-0.4,5.7-2.4,7.4-8.3,7.4
			C662.7,401,559.5,401,456.3,401s-206.4-0.1-309.6,0.1c-5.7,0-7.4-1.6-7.8-7.2C136.7,368.4,136.6,342.8,140.2,317.4z M436.8,679.3
			c-95.6-5.3-172.8-48.4-233.8-123.8c169.5,0,337.3,0,505.1,0c0.2,0.5,0.5,1,0.7,1.5C638.4,642.4,548,685.5,436.8,679.3z"/>
		<text transform="matrix(1 0 0 1 96.9591 490.5699)" class="st67 st69 st71">Top Web Development Company</text>
		<path class="st67" d="M770.1,302c-13.8-71.2-47.3-131.6-101.9-179.3c-79.5-69.4-172.3-94.4-275.5-74
			C303.2,66.3,234.2,116,185.2,192.9c-24.2,38-38.8,79.8-45,124.4c-3.6,25.4-3.5,51-1.4,76.6c0.5,5.6,2.1,7.2,7.8,7.2
			c103.2-0.2,206.4-0.1,309.6-0.1s206.4-0.1,309.6,0.1c5.9,0,7.9-1.7,8.3-7.4C776.6,363,776,332.4,770.1,302z M565,261.1
			c5.2-0.2,3.3,3.4,3.7,5.8c0.1,0.7,0.2,1.4,0.6,3.1c4.4-6.4,9.6-9.6,16.7-9.5c3.1,0,3.7,1.1,2.4,3.7c-1.5,3.1-2.2,6.2-7.1,6.7
			c-7.4,0.8-11.8,8.3-12.1,17.9c-0.2,6.9-0.2,13.8,0,20.6c0.2,5.6-4,3.9-6.8,4.4c-3.9,0.8-3.1-2.3-3.1-4.4c0-14.1,0.2-28.3-0.1-42.4
			C559,262.4,560.7,261.3,565,261.1z M470.7,246.5c-0.2-3.2,0.7-4.6,4.1-5.3c4.6-1,5.9,0,5.9,4.8c-0.2,20.2-0.2,40.5,0,60.8
			c0,4.5-0.5,6.9-5.8,7.1c-6.4,0.3-1.4-4.9-5.1-6.5c-6.5,5.2-14.4,8.3-23.7,5.9c-11-2.9-18-10.1-20.1-21.1
			c-2-10.4,1.2-19.5,9.9-25.8c8.9-6.6,18.7-7.1,28.7-2.1c6.3,3.2,6.3,3.2,6.3-4C470.8,255.6,471,251,470.7,246.5z M547.2,287.6
			c0,7.2-0.2,14.5,0.1,21.7c0.2,5.5-3.8,4-6.6,4.6c-4.1,0.9-3.6-2.1-3.6-4.6c0-14.5,0.2-28.9-0.1-43.4c-0.1-5.8,3.9-4.4,6.9-4.8
			c4.3-0.6,3.2,2.6,3.3,4.8C547.3,273.2,547.2,280.4,547.2,287.6z M541.8,241.7c3.3-0.3,4.1,4.3,6.7,6.2c-1.8,3-3.4,6.8-6,6.9
			c-3.1,0.1-5.8-3.7-6-6.5C536.2,245.6,539.3,242,541.8,241.7z M529.8,249.7c0.5,4-3.2,2.3-5,2.3c-6.1,0.2-12.2,0.3-18.3,0
			c-3.4-0.1-4.3,1.1-4.1,4.3c0.2,4,0.2,8,0,12c-0.2,3.1,1.1,3.9,4,3.8c4.6-0.2,9.2,0.1,13.7-0.1c4.2-0.2,3.8,2.4,3.9,5.2
			c0.1,3-0.5,4.7-4.1,4.5c-4.6-0.2-9.2,0.1-13.7-0.1c-3-0.1-4,0.9-3.9,3.9c0.2,7.8-0.2,15.7,0.2,23.5c0.3,5.9-4,4.3-6.9,4.8
			c-4.3,0.8-3.4-2.5-3.4-4.8c-0.1-10.3,0-20.6,0-30.9c0-10.1,0.1-20.2-0.1-30.4c-0.1-3.4,0.5-5.2,4.6-5c9.4,0.3,18.7,0.4,28.1,0
			C530.6,242.5,529.5,246.9,529.8,249.7z M524.2,121.5c-0.2,14.9-0.2,29.7-0.3,44.6c0,22-16,38.2-37.7,38.2
			c-14.1,0-28.2-0.1-42.4,0.1c-3.8,0.1-4.9-1.1-4.8-4.8c0.2-9.3,0.3-18.7,0-28c-0.2-4.5,1.5-5.3,5.6-5.3c13.5,0.2,27.1,0,40.6-0.1
			c0.7-0.8,1.4-1.6,2.2-2.4c0.1-10.6,0.1-10.6-10.3-10.6c-11.2,0-22.5-0.1-33.7,0.1c-3.2,0-4.4-0.8-4.3-4.2c0.2-8,0.1-16,0-24
			c-0.1-4.9,2.3-7,7-7c24.8,0,49.6,0,74.4,0C523,117.9,524.2,118.7,524.2,121.5z M392.4,107.6c0.5-12.6,7-22,16.9-29
			c7.4-5.2,15.7-8,25.2-7.9c27.5,0.3,55,0.2,82.5,0c4.9,0,6.1,1.5,5.9,6.1c-0.4,8.4-0.3,16.8,0,25.2c0.2,4.5-1.1,5.8-5.7,5.8
			c-25.6-0.2-51.2-0.1-76.7-0.1c-2.7,0-5.3,0.2-7.8,1.2c-3,2.5-3.7,5.8-3.7,9.7c0.1,26.7-0.1,53.4,0.2,80.1c0,4.6-1.3,5.9-5.7,5.7
			c-9-0.3-17.9-0.1-26.9-0.1c-2.5,0-4.3-0.1-4.3-3.5C392.3,169.8,392.3,138.7,392.4,107.6z M391.2,261c15.6,0.1,28.3,11.9,28.4,26.4
			c0.1,14.5-13.1,26.7-28.8,26.7c-15.5-0.1-28.3-12-28.4-26.4C362.5,272.9,375.4,261,391.2,261z M328.4,261
			c15.9,0.1,28.7,12.1,28.4,26.9c-0.2,14.4-13.1,26.2-28.6,26.2c-15.5,0-28.3-11.9-28.5-26.4C299.6,273.1,312.6,261,328.4,261z
			 M233.3,256.2c11.4-15.3,34.5-19.1,50.3-8.1c1.6,1.1,5.5,1.9,2.4,5.4c-2,2.2-3,5.2-7.6,2.5c-18.9-11.5-40-1.3-42.8,20.2
			c-1.2,9.3,4.5,20.4,13.4,25.4c9.2,5.2,18.3,4.2,27.2-0.7c3.6-2,2.3-5.3,2.4-8.2c0.1-9.9,0.1-9.9-9.7-9.9c-1.5,0-3.1,0.3-4.6-0.1
			c-2-0.6-6,1.9-5.7-1.7c0.2-3.1,0.4-8,6.4-7.6c6.5,0.4,13,0.2,19.5,0c3.3-0.1,4.4,1,4.2,4.3c-0.2,3.8-0.1,7.6-0.1,11.5
			c0,2.3-0.3,4.6,0.1,6.9c1.4,7.7-2.8,11.5-9.2,14.3c-17.1,7.5-35.3,3.5-46.1-10.2C223.2,287.3,223.1,269.8,233.3,256.2z
			 M655.6,313.9c-5.4,0-2.7-4.2-2.8-6.3c-0.3-9.2-0.1-18.3-0.2-27.5c-0.1-7.2-2.8-10.6-8.4-10.7c-6.6-0.1-11.1,4.2-11.2,11
			c-0.1,9.4-0.4,18.7,0.1,28.1c0.3,6.1-3.9,4.9-7.2,5.3c-4.6,0.6-2.9-3-3-5c-0.2-9.9,0-19.9-0.1-29.8c0-6.3-2.8-9.5-8.1-9.6
			c-6.2-0.1-11.2,3.9-11.3,9.7c-0.2,9.9-0.3,19.9,0,29.8c0.2,5.9-3.9,4.4-6.9,4.9c-4.3,0.8-3.4-2.5-3.4-4.8c0-13.9-0.1-27.9,0-41.8
			c0-2.5-1.1-5.7,3.3-5.9c3.3-0.1,7.6-1.9,5.9,5.7c7-6.3,14.6-8.6,20.7-4.7c5.9,3.7,9.4,2.3,14.8,0c13.4-5.6,24.2,2.1,24.3,16.6
			c0,9.6-0.4,19.1,0.2,28.7C662.7,313.3,659.8,313.9,655.6,313.9z M705.6,300.8c-1.1,7.9-8.6,13.3-18.2,13.3
			c-5.3,0-10.3-1.2-14.3-4.9c-1.4-1.3-4.9-2.6-1.7-5.2c1.9-1.6,3.6-5.6,7.4-1.8c3.2,3.3,7.5,3.6,11.8,2.6c2.8-0.6,5.1-2.2,5.5-5.2
			c0.4-2.9-1.3-5.1-3.8-6.5c-3.2-1.8-6.9-2.3-10.3-3.3c-8.6-2.5-12.3-7.2-11.5-14.7c0.9-7.8,6.9-13.6,14.8-14.2
			c5.9-0.5,11.4,0.5,16.1,4.5c1.5,1.3,3.3,2.6,0.9,4.5c-1.7,1.4-2.4,5.6-6.1,2.4c-3.1-2.6-6.7-3.7-10.7-2.6
			c-2.5,0.6-4.7,1.8-5.1,4.7c-0.4,3.1,1.1,5.2,3.9,6.3c2.5,1,5.1,1.7,7.6,2.4C702.9,286.1,707,291.3,705.6,300.8z"/>
		<text transform="matrix(1 0 0 1 294.4493 357.2096)" class="st58 st69 st72">Design &amp; Development Firm</text>
	</g>
</g>
<g id="Layer_2">
</g>
</svg>
