<?xml version="1.0" encoding="utf-8"?>
<!-- Generator: Adobe Illustrator 25.2.1, SVG Export Plug-In . SVG Version: 6.00 Build 0)  -->
<svg version="1.1" xmlns="http://www.w3.org/2000/svg" xmlns:xlink="http://www.w3.org/1999/xlink" x="0px" y="0px"
	 viewBox="0 0 952.5 723.2" style="enable-background:new 0 0 952.5 723.2;" xml:space="preserve">
<style type="text/css">
	.st0{fill:#FFFFFF;}
	.st1{fill:#FFFFFF;stroke:#FFFFFF;stroke-width:18;stroke-linecap:round;stroke-linejoin:round;stroke-miterlimit:10;}
	.st2{fill:#315477;}
	.st3{fill:#FDC212;}
	.st4{fill:#315478;}
	.st5{fill:#FEC311;}
	.st6{fill:#B19637;}
	.st7{fill:#F6F7F8;}
	.st8{fill:#FAFAFB;}
	.st9{fill:#C1CAD5;}
	.st10{fill:#FEFEFE;}
	.st11{fill:#335475;}
	.st12{fill:#335578;}
	.st13{fill:#F9BF15;}
	.st14{fill:#F17C21;}
	.st15{fill:#F89A53;}
	.st16{fill:#102A4A;}
	.st17{fill:#F47D21;}
	.st18{fill:#112B4B;}
	.st19{fill:#00AB64;}
	.st20{fill:#F7F7F8;}
	.st21{fill:#F1F1F1;}
	.st22{fill:#F3F3F3;}
	.st23{fill:#112A36;}
	.st24{fill:#EFEEEF;}
	.st25{fill:#FCFCFC;}
	.st26{fill:#0B293F;}
	.st27{fill:#0B2938;}
	.st28{fill:#0F2946;}
	.st29{fill:#FEDC3A;}
	.st30{fill:#FEE68E;}
	.st31{fill:#DEE6F4;}
	.st32{fill:#375385;}
	.st33{fill:#FFD537;}
	.st34{fill:#0F0C04;}
	.st35{fill:#FFD838;}
	.st36{fill:#F5D764;}
	.st37{fill:#F4D87A;}
	.st38{fill:#DAB457;}
	.st39{fill:#090A0C;}
	.st40{fill:#EDAC3B;}
	.st41{fill:#BE8931;}
	.st42{fill:#FFEDB0;}
	.st43{fill:#C44F27;}
	.st44{fill:#E1422E;}
	.st45{fill:#DD4530;}
	.st46{fill:none;stroke:#FFFFFF;stroke-width:5;stroke-linecap:round;stroke-linejoin:round;stroke-miterlimit:10;}
	.st47{fill:#C8302A;}
	.st48{fill:#7E8C94;}
	.st49{fill:#F2654D;}
	.st50{fill:#F2664E;}
	.st51{fill:#F2644C;}
	.st52{fill:#EF442F;}
	.st53{fill:#E4573C;}
	.st54{fill:#EF5E43;}
	.st55{fill:#D95338;}
	.st56{fill:#EDEDED;}
	.st57{fill:#F04B2D;}
	.st58{fill:#094D79;}
	.st59{fill:#F9A61C;}
	.st60{fill:#F68920;}
	.st61{fill:#035382;}
	.st62{fill:#0064A0;}
	.st63{fill:#0E5684;}
	.st64{fill:#FBA920;}
	.st65{fill:#FBAD27;}
	.st66{fill:#F7F7F7;}
	.st67{fill:#FEFDFC;}
</style>
<g id="Layer_1">
	<g>
		<g>
			<path class="st0" d="M487,717.4c0-22.9-0.1-45.8-0.1-68.7c0-1.5-1.3-4.3,1.9-4c2.9,0.2,6.6-1.8,8.4,2.2c0.6,1.3,0.7,2.8,1.2,4.6
				c1.8-1.6,3.4-3.3,5.3-4.6c8.9-6.4,20.6-3.7,25.2,6.2c5.2,11.2,5.4,22.8,0.7,34.3c-4.4,10.8-17.2,18-30.6,8.5c0,7.5,0,14.5,0,21.5
				C495,717.4,491,717.4,487,717.4z M499,672.8c0,3.2,0.2,6.3-0.1,9.5c-0.3,3.6,1.5,5.7,4.4,7.1c5.7,2.8,12,0.7,14.6-5.1
				c3.2-7.3,3-14.9,1.2-22.4c-1.5-6.2-5.2-8.9-10.5-8.2c-5.6,0.8-9.6,5.2-9.6,10.7C499,667.1,499,669.9,499,672.8z"/>
			<path class="st0" d="M652.8,717.4c2.7-6.2,5.3-12.5,8.1-18.6c1.2-2.6,0.7-4.8-0.3-7.1c-5.6-14-11.1-28-16.6-42.1
				c-0.6-1.5-1.7-2.9-1.2-4.7c0.2-0.1,0.3-0.2,0.5-0.2c11.5-0.9,11.5-0.9,15.5,9.9c3.1,8.5,6.2,17.1,9.5,26
				c3.4-9.8,6.7-19.3,10-28.8c2.5-7.3,2.5-7.3,10.5-7.3c1.2,0,2.3,0,4.1,0c-9.5,24.6-18.8,48.7-28.1,72.9
				C660.8,717.4,656.8,717.4,652.8,717.4z"/>
			<path class="st0" d="M125.1,659.1c13.4,7.9,16.7,17.3,10.4,28.8c-4.3,7.9-11.7,11.2-20.3,11.5c-8.6,0.4-17.3,0-25.9,0.1
				c-2.4,0-3.1-0.6-3.1-3c0.1-24,0.1-48.1,0-72.1c0-1.6,0-2.9,2.3-2.8c9.8,0.3,19.6-0.7,29.4,0.5c12.2,1.5,19,9.7,18.3,21.3
				C135.9,650.7,131.8,655.6,125.1,659.1z M99.5,676.5c0,12,0,12,12.1,12c2.2,0,4.3-0.2,6.4-0.8c3.5-1,5.7-3.2,6.7-6.7
				c2.7-9-1.8-15.1-11.2-15.5C99.5,665,99.5,665,99.5,676.5z M99.5,644.5c0.4,3.1-1.7,8.8,0.7,10.2c3.8,2.2,9.3,1.2,14,0.3
				c0.8-0.2,1.6-0.3,2.4-0.5c3.2-1.1,5.2-3.3,6.1-6.6c2.4-9.2-1.9-15-11.4-15.3C99.5,632.2,99.5,632.2,99.5,644.5z"/>
			<path class="st0" d="M415.4,650c11.6-9.6,18.4-8.9,25.5,2.6c4.8-7.4,11.6-10.4,20.1-8.6c7.3,1.6,12,7.1,12.5,16
				c0.7,12.3,0.3,24.6,0.4,36.9c0,2-0.8,2.4-2.7,2.5c-9.4,0.8-9.4,0.9-9.4-8.7c0-9.5,0-19-0.2-28.4c-0.1-3.7-1.4-6.8-5.2-8.3
				c-3.4-1.3-6.3-0.4-8.7,2c-2.3,2.3-2.9,5.5-2.8,8.8c0.1,10.1-0.1,20.3,0.1,30.4c0.1,3.6-1,4.4-4.5,4.3c-7.7-0.2-7.7,0-7.7-7.5
				c0-9.6,0.1-19.3-0.1-28.9c-0.1-3.9-0.9-7.8-5.3-9.2c-4-1.2-7,0.5-9.8,3.2c-1.7,1.6-1.7,3.4-1.7,5.5c0,10.8-0.1,21.6,0.1,32.4
				c0.1,3.4-0.7,5-4.3,4.4c-1.1-0.2-2.3-0.2-3.5,0c-3.5,0.5-4.5-0.7-4.4-4.3c0.2-15.1,0-30.3,0.2-45.4c0-1.8-1.6-5,1.8-5.1
				c3.2-0.1,7.7-2.1,8.9,3.5C414.9,648.7,415.1,649.1,415.4,650z"/>
			<path class="st0" d="M830.8,649.9c12.3-9.4,19-8.7,25.5,3c3.5-5.7,8.3-9.1,15-9.3c8.6-0.3,14.6,4,17,12.4
				c1.7,5.9,1.1,11.9,1.1,17.9c0.1,7.3-0.2,14.6,0.1,22c0.1,3.2-1,3.8-4,3.8c-8.2,0-8.2,0.1-8.2-8c0-8.8,0-17.6,0-26.5
				c0-2.3-0.1-4.7-1-6.9c-1.2-2.7-3.4-4.5-6.5-4.7c-3.3-0.2-5.9,1.1-7.6,3.8c-1.5,2.3-1.8,4.9-1.8,7.6c0.1,10.1-0.1,20.3,0.1,30.4
				c0.1,3.4-1,4.1-4.2,4.1c-7.9-0.1-7.9,0-7.9-7.7c0-9.6,0.1-19.3-0.1-28.9c-0.1-4-1.1-7.8-5.6-9c-4-1.1-7,0.8-9.8,3.5
				c-1.7,1.6-1.5,3.6-1.5,5.5c0,10.8-0.1,21.6,0.1,32.4c0.1,3.1-0.6,4.3-4,4.2c-8.1-0.1-8.1,0.1-8.1-8.1c0-14-0.1-28,0.1-41.9
				c0-1.7-1.8-4.9,2-4.9c3.1,0,7.4-1.9,8.6,3.3C830.3,648.6,830.6,649.2,830.8,649.9z"/>
			<path class="st0" d="M282,661c0.2-14.7,4.2-27.6,17.5-35.8c11.3-7,26.2-5.9,37.1,1.6c5.1,3.6,1.9,6.1,0.2,9.1
				c-2.1,3.7-4.5,3.1-7.3,0.8c-3-2.5-6.7-3.8-10.5-4.2c-7.6-0.7-14,1.9-18.5,8.4c-6.9,9.9-6.9,28.9,0.2,38.8
				c7,9.9,20.4,11.7,29.8,4.1c2-1.7,4-4.2,6.4-0.6c1.9,2.8,6,4.7,1.2,9.1c-16,15-43.4,8.9-52.3-12C283.1,674.2,281.9,667.8,282,661z
				"/>
			<path class="st0" d="M345.3,672.1c-0.1-14.6,6.7-24.8,18.6-27.8c12.4-3.1,23.6,2.4,28.3,14.2c3.6,9.2,3.5,18.6-0.2,27.7
				c-4,9.7-12.5,14.7-23.4,14.3c-9.8-0.3-17.9-6.5-21.2-16.1C346,680.4,345.4,676.3,345.3,672.1z M382.2,672.3
				c0.2-4-0.4-7.9-1.8-11.7c-1.8-4.6-5.2-7.2-10.3-7.1c-5.2,0.1-8.9,2.5-10.6,7.4c-2.5,7.3-2.5,14.7-0.1,22
				c1.6,4.9,5.3,7.4,10.6,7.5c5.1,0.1,8.6-2.4,10.5-7.4C381.9,679.6,382.3,676,382.2,672.3z"/>
			<path class="st0" d="M787.3,643.5c9.4,0.2,17,4.7,21,14c4.1,9.6,4.1,19.5,0,29.1c-3.7,8.7-10.7,13.4-20.1,13.9
				c-10,0.6-18-3.2-22.6-12.4c-5.7-11.5-5.4-23.2,1.2-34.3C771.1,646.5,778.3,643.6,787.3,643.5z M798.7,672.4
				c0.4-3.2-0.3-6.7-1.1-10c-1.4-5.5-5.3-8.7-10.5-8.8c-5.5-0.1-9.4,2.5-11.1,8c-2.3,7-2.2,14.1,0,21c1.6,5.1,5.6,7.9,10.8,7.8
				c5.2-0.1,8.7-2.6,10.5-7.5C798.3,679.6,798.8,676.2,798.7,672.4z"/>
			<path class="st0" d="M171.7,673.5c-4.5,0-9,0.1-13.5,0c-2.3-0.1-2.7,0.7-2.4,2.9c1.9,13.2,11.4,17.7,23.1,10.8
				c2.3-1.4,4.2-2.9,6.8,0.2c3,3.6,2.5,5.6-1.1,8.2c-15.7,11.3-36.6,3.1-40.2-15.8c-1.8-9.5-1.3-18.5,4.4-26.7
				c5.9-8.6,17.4-12,27-8.1c8.7,3.5,15.1,15.7,13.3,25.2c-0.4,2.3-1.5,3.5-4,3.4C180.7,673.4,176.2,673.5,171.7,673.5z M167,665.5
				c3,0,6-0.1,9,0c2.1,0.1,2.5-0.8,2.2-2.7c-0.8-5.3-4.4-8.9-9.4-9.3c-5.6-0.5-10.4,2.9-12.1,8.3c-0.9,2.8-0.2,4,2.9,3.7
				C162,665.3,164.5,665.5,167,665.5z"/>
			<path class="st0" d="M604.2,650.7c4.2-3.8,8.5-6.9,14.1-7.2c9.4-0.5,16.9,5.8,17.4,16c0.6,12.4,0.2,24.8,0.4,37.2
				c0,1.9-0.5,2.5-2.4,2.7c-9.4,1-9.6,0.9-9.6-8.6c0-9,0-18,0-26.9c0-7-3-10.5-8.5-10.5c-6.2,0.1-10.6,4.7-10.6,11
				c0,10.3-0.1,20.6,0.1,30.9c0.1,3.4-1,4.1-4.2,4.1c-7.9-0.1-7.9,0-7.9-7.7c0-14.1-0.1-28.3,0.1-42.4c0-1.7-1.8-4.9,2.1-4.8
				c3.1,0.1,7.4-1.8,8.5,3.4C603.7,648.8,603.9,649.6,604.2,650.7z"/>
			<path class="st0" d="M569.1,693.3c-5.2,4.6-10.4,7.5-17,7.1c-6.5-0.4-11.1-3.6-12.9-9.1c-2.1-6.4-0.4-12.7,4.6-16.6
				c6.1-4.7,13.3-5.9,20.6-6.2c3.2-0.1,4-1.1,3.7-4c-0.4-3.8-0.3-7.8-4.3-10c-4.1-2.2-8-1-11.7,1.3c-1.1,0.7-2.1,1.7-3.3,2.1
				c-2.3,0.8-4.5,1-5.9-1.8c-1.2-2.4-2.8-4.3,0.5-6.6c6.5-4.7,13.6-7,21.5-5.9c8.3,1.2,14.5,8.4,14.9,18.1
				c0.5,11.6,0.2,23.2,0.2,34.9c0,1.3,0.2,2.9-1.8,2.7c-2.5-0.2-5.5,1.1-7.3-1.8C570.1,696.5,569.8,695.2,569.1,693.3z M568.1,681.3
				c-1-1.3,2-4.9-2.4-4.8c-4.3,0.1-8.6,0.7-12.4,2.9c-2.4,1.3-3.5,3.3-3.4,6.1c0.1,2.4,1,4.1,3.2,5.2
				C559.4,693.8,568,688.6,568.1,681.3z"/>
			<path class="st0" d="M214.4,700.5c-5.7,0-10.4-1.9-14.8-4.6c-3.7-2.3-1.9-4.5-0.5-7c1.5-2.7,3.4-3.5,6.1-1.7
				c3.1,2,6.4,3.7,10.2,3.3c3.3-0.3,6.2-1.4,7.1-5.1c0.9-4-1.6-5.9-4.6-7.2c-3.2-1.4-6.6-2.3-9.8-3.7c-7.2-3.1-10.1-7.6-9.8-15.1
				c0.3-6.9,4.2-12.3,10.9-14.6c7.6-2.6,14.7-1.3,21.4,3c2.7,1.7,2.7,3.4,1,6c-1.6,2.4-2.7,4-5.8,2.2c-2.9-1.7-6-2.9-9.5-2.5
				c-3.3,0.3-5.9,1.7-6.5,5.1c-0.5,3.1,1.4,4.9,4.1,6c2.7,1.1,5.5,2.2,8.3,3.3c9,3.6,12.6,8.6,11.6,16.2c-1.1,9-6.6,14.7-15.8,16
				C216.7,700.4,215.4,700.4,214.4,700.5z"/>
			<path class="st0" d="M713.9,671.8c0.4-14.9,7-25.1,18.3-27.7c7.5-1.7,14.5-0.5,20.7,4.4c2.8,2.2,1.9,3.9,0.3,6.2
				c-1.7,2.4-3.2,3.6-6.1,1.7c-1.8-1.2-3.8-2.2-5.8-2.7c-4.9-1.3-10.3,1.1-12.5,6c-3.7,8.1-3.7,16.5,0.1,24.6
				c3.2,6.8,11,8.4,17.3,3.4c3.8-3,5.8-2.3,8.2,1.4c1.5,2.2,1,3.3-0.7,5c-11.7,11.6-31.4,7.3-37.3-8.2
				C714.6,681.2,713.9,676.3,713.9,671.8z"/>
			<path class="st0" d="M248.3,672.4c0-4.8-0.1-9.6,0-14.5c0.1-2.3-0.2-3.9-3.1-3.5c-2.9,0.4-4.3-0.9-4.2-3.9
				c0.1-2.5-0.4-5.1,3.5-5.1c3.6,0,5.2-1.9,5.3-5.6c0.2-3,1-5.9,1.4-8.8c0.3-2.3,1.3-3.4,3.8-3.6c3.9-0.3,6.1,0.5,5.2,4.9
				c-0.1,0.5,0,1,0,1.5c0,10.2,0,10.5,9.9,10.5c4.8,0,3.2,3.1,3.3,5.4c0.1,2.3,0.9,4.8-3.4,4.8c-9.9,0-9.9,0.3-9.9,10
				c0,6.3-0.1,12.6,0,19c0.1,6.4,2,7.8,7.9,5.6c4.4-1.6,3.5,2.8,5.1,4.3c1.8,1.7,1,3-1.1,4.2c-5.6,3-11.4,4.1-17.2,1.2
				c-5.6-2.8-6.7-8.3-6.8-14C248.3,680.8,248.3,676.6,248.3,672.4z"/>
			<path class="st0" d="M698.2,684.5c4.2,0,7.6,3.8,7.5,8.2c-0.1,4.2-3.5,7.8-7.4,7.8c-4.3,0-7.5-3.6-7.4-8.2
				C691,687.9,694.3,684.5,698.2,684.5z"/>
		</g>
		<g>
			<g>
				<path class="st1" d="M644.8,358.4c25.1-0.8,50.2-1.7,75.3-1.3c2.8,0,3.5-1.1,4.1-3.6c2.3-11.1,3.9-22.2,4.8-33.5
					c3.5-43-3.3-84.5-20.6-124C661.8,89.3,550,24.8,433.1,41.3c-56.5,8-105.8,31.3-145.8,71.7c-72.3,73.1-94.7,160.3-68.6,259.7
					c3.8,14.5,1.2,11.8,15.7,12.1c1.8,0,3.7,0,5.5,0c8.4,0,16.8,0,25.9,0c-2.7-3.9-5.5-6.6-6.9-10.1c13.6-6.6,28.2-4.5,36.9,5.8
					c2.8,3.4,5.6,4.2,9.8,3c-10-25.7-14-52.4-13.3-79.9c0.7-27.6,7.1-53.8,18.1-79c11.4-26,37.6-61,46.9-65.6c0.1,2-1.5,2.8-2.5,4
					c-6.9,7.5-13.1,15.5-18.9,23.8c-23,33.3-36.1,70.1-38.3,110.5c-1.5,27.9,1.3,55.4,11,81.8c1.4,3.8,3.3,5,7.2,4.7
					c22.9-1.4,45.8-2.4,68.7-3.9c23.2-1.5,46.4-3.8,69.5-6.5c23.1-2.7,46.2-5.1,69.4-7.4c23.5-2.3,47-4.1,70.6-5.2
					c2.3-0.1,2.7-0.7,2.4-2.9c-0.8-6.4,0-12.7,2.1-19.1c6.8,3,13.5,6.3,16.1,12.6c3.4,8,8.8,8.5,15.7,7.5c0.7-0.1,1.3-0.1,2,0
					c3,0.2,4.2-1,4.8-4.1c3.3-17,4.6-34.2,4.2-51.5c-0.7-30.3-7.8-59.1-20.8-86.4c-9.7-20.4-22.8-38.5-37.6-55.5
					c-5-5-10.1-10-15.1-14.9c-0.3-0.1-0.5-0.2-0.8-0.3c0.2,0.1,0.5,0.3,0.8,0.3c5,5,10.1,10,15.1,14.9c0.4-0.4,0.8-0.8,1.2-1.2
					c2.6,2.8,5.3,5.4,7.8,8.3c32.7,37.5,51.8,80.8,54.6,130.8c1,18.3-0.8,36.5-4.5,54.5C641.5,356.1,640.3,358.5,644.8,358.4z
					 M358.4,134.4c0,4.9-1.2,9.5-4.6,13.3C357.2,143.9,358.3,139.4,358.4,134.4c0.2-6.6-2.5-11.8-6.4-16.4
					C355.9,122.6,358.6,127.8,358.4,134.4z M365.7,149.5c-0.3,0.4-1.1,0.7-1.4,1.1C364.6,150.2,365.4,149.9,365.7,149.5
					c0.1-0.1,0.3-0.3,0.4-0.4C365.9,149.3,365.8,149.4,365.7,149.5z M391.6,152.1c-5.2,0-9.8,1.3-13.8,4.4
					C381.8,153.4,386.4,152,391.6,152.1c1.6,0,3.1,0.1,4.5,0.4C394.7,152.2,393.2,152.1,391.6,152.1z M566.9,144.3
					c-0.5-0.5-1-1.1-1.5-1.6C565.9,143.3,566.4,143.8,566.9,144.3c0.5,0.4,1.1,0.9,1.6,1.3C568,145.2,567.5,144.8,566.9,144.3z"/>
				<path class="st1" d="M770.6,502.4c21.9,0.7,43.8,2.1,65.6,3.7c3.3,0.2,3.5-0.7,3.6-3.3c0.4-10.4,1.1-20.9,1.5-31.3
					c1.2-31.4,2.2-62.7,3.4-94.1c0.1-3-0.8-4-3.7-4.5c-28.4-4.7-57.2-5.1-85.9-5.6c-29.1-0.6-58.2-0.6-87.3,0.5
					c-15.4,0.6-30.9,0.7-46.3,1.5c-28.3,1.4-56.7,2.9-85,5.7c-18.7,1.8-37.3,3.3-56,5.3c-19.4,2-38.8,4.8-58.3,6.6
					c-19.7,1.8-39.4,2.8-59.1,4.3c-30.5,2.3-61.1,2.8-91.6,3.4c-17.1,0.4-34.3,0-51.4-0.3c-35.1-0.5-70.1-2.1-105-4.6
					c-3.1-0.2-3.9,0.3-3.9,3.5c-0.4,16.6-1.2,33.2-1.8,49.8c-1,24.9-1.9,49.8-2.9,74.7c-0.1,3.3,0.8,4.8,4.2,5.1
					c9.6,0.6,19.2,1.5,28.8,2c21.4,1,42.8,2.4,64.2,2.7c33.3,0.5,66.5,0.7,99.8-0.3c33.9-1,67.7-2.5,101.5-5.3
					c19.2-1.6,38.4-3.1,57.5-5.3c26.5-3,53-6.3,79.6-8.5c25.3-2.1,50.7-3.8,76-4.9c26.9-1.2,53.8-1.6,80.7-2.1c14-0.3,27.9,0,41.9,0
					C750.7,501.7,760.6,502.1,770.6,502.4z M191,441.1c-4.7-0.1-6.7-0.2-7.5,1.4C184.4,440.9,186.4,441,191,441.1c0.3,0,0.7,0,1,0
					C191.7,441.1,191.4,441.1,191,441.1z"/>
				<path class="st1" d="M183.6,312.7c3.5,5.7,4,11.6,1.4,17.6c-4.1,9.2-2.6,17.4,3.8,25c4.1,4.9,5.6,10.4,3.9,16.8
					c-0.7,2.7-0.8,5.6-1.1,8.4c-0.3,2.5,0.7,3.5,3.4,3.5c6.3-0.1,12.7,0,18.9,0.4c4.3,0.3,4.5-1,3.3-4.7
					c-11.3-35.1-14.8-71-11-107.7c4.8-46.8,20.8-89.6,48.8-127.2C308.2,73.4,380,37.5,468.9,35.3c13.5,0,26.7,1.2,39.8,3.2
					c42.7,6.4,81.6,22.3,116.2,48C677,125,711,176,726.2,239.1c6.8,28.3,8.6,57,5.7,86.1c-0.9,9.6-2.5,19.1-4.2,28.6
					c-0.2,1.1-1.7,3.2,1.2,3.3c6,0.1,12,0,18,0c1.4,0,1.9-1.2,2.6-2.1c6.1-7.3,7.7-15.2,3.8-24.1c-2.7-6.2-2.6-12.2,1.1-18
					c5.3-8.4,5.3-16.9,0-25.3c-3.6-5.7-4-11.7-1.4-17.6c4.1-9.3,2.6-17.4-3.8-25c-4.1-4.9-5.6-10.4-3.8-16.7
					c2.7-9.4,0.5-17.4-7-23.8c-5.4-4.6-7.4-10.3-6.7-17.3c0.9-9.3-2.4-16.6-10.4-21.6c-6.3-3.9-9.1-9.7-9.6-17
					c-0.5-7.7-3.4-14.4-11-17.6c-8.5-3.7-13.2-10-15-19c-1.4-6.9-5.8-11.6-12.6-13.5c-8.8-2.5-14.7-7.7-17.8-16.4
					c-2.5-7-7.9-11.1-15.3-11.9c-8.8-1-15-5.5-19.2-13.2c-3.4-6.3-9-9.7-16.3-9.6c-8.8,0.1-16.1-2.7-21.5-10.2
					c-4.7-6.5-11.6-8.6-19.5-7.1c-7.4,1.4-13.8-0.2-19.2-5.6c-6.7-6.6-14.4-8.3-23.3-5.2c-6.4,2.3-12.4,1.5-17.9-2.6
					c-7.9-5.8-16.1-6.6-24.8-2c-6,3.2-12,3.3-18.1,0.1c-8.6-4.6-16.9-4.1-24.8,1.8c-5.5,4-11.5,5-17.9,2.7c-9.1-3.3-17-1.5-23.8,5.3
					c-5.1,5.1-11.3,6.9-18.3,5.5c-8.5-1.6-15.6,0.7-20.8,7.6c-5,6.7-11.6,9.7-19.8,9.5c-8.6-0.2-14.6,3.9-18.6,11.2
					c-3.6,6.6-9,10.4-16.5,11.3c-8.6,1.1-14.8,5.6-17.7,14c-2.6,7.5-7.9,11.9-15.5,14.1c-7.7,2.2-12.9,7.2-14.5,15.5
					c-1.5,8.1-6,13.8-13.6,17.1c-8.1,3.5-11.6,10.1-12.1,18.5c-0.4,7.1-3.2,12.7-9.4,16.6c-8,5-11.5,12.2-10.6,21.5
					c0.8,7.2-1.5,13-6.9,17.7c-7.1,6.1-9.4,13.8-6.9,22.9c1.9,6.6,0.5,12.5-3.9,17.7c-6.3,7.4-7.6,15.5-3.7,24.5
					c2.6,6.1,2.3,12.2-1.4,18C178.3,296.1,178.5,304.5,183.6,312.7z"/>
				<path class="st1" d="M644.2,511.9c-4.5,0.1-9,0.8-13.4,0.6c-4.1-0.2-7.3,1.2-10.5,3.5c-41.4,29.1-87.5,44.9-138,47.4
					c-45.3,2.3-88.5-6.5-129.3-26.5c-1.6-0.8-3.3-1.4-5.2-1.4c-11.4,0.1-22.8,0-35.2,0c5.7,11.9,12.7,18.7,24.7,18
					c7.2-0.4,12.4,3,16.5,8.5c5.6,7.4,13.1,10,22,8.4c7-1.3,12.8,0.5,17.8,5.4c6.8,6.7,14.7,8.5,23.8,5.3c6.2-2.2,12.1-1.6,17.5,2.4
					c8.2,6.1,16.7,6.6,25.7,2c5.7-3,11.4-2.9,17.1,0c9,4.7,17.5,4,25.7-2c4.8-3.6,10.3-4.8,16-2.7c10.2,3.7,18.8,1.6,26.4-6
					c4.3-4.2,9.6-5.6,15.6-4.5c9.2,1.7,17.1-0.6,22.9-8.4c4.4-5.9,10.1-8.7,17.6-8.5c8.9,0.3,15.8-3.5,20-11.5
					c3.6-6.9,9.4-10.4,17.1-11.3c10.9-1.4,16-8.8,18.9-18.7C653.1,511.9,648.7,511.8,644.2,511.9z"/>
				<path class="st1" d="M491,559.6c42.3-3.5,115.6-30.4,125.8-46.3c-86.2,2-171.5,18.1-259,21.4C387.3,550.9,438.9,563.9,491,559.6
					z"/>
				<path class="st1" d="M170.6,557.6c-1.6-1.2-3.5-0.7-5.3-0.8c-8.3-0.3-16.6,0.2-24.9-0.8c-16-2.3-30.9-7-43.3-18
					c-2.2-1.9-3-4-2.9-6.9c1.1-31.3,2.1-62.7,3.3-94c0.1-3.6-1.1-4.6-4.2-5.1c-26.3-3.9-52.4-9.2-77.8-17c-1.2-0.4-2.4-1.8-3.6-0.6
					c-1.1,1.1,0.1,2.5,0.4,3.7c6.6,24.2,13.1,48.4,19.8,72.6c0.9,3.1,0.6,5.7-0.8,8.5C22.8,515.6,14.5,532,6,548.5
					c-0.9,1.8-2.5,3.4,1.1,4.2c14.6,3.4,29.3,6.5,44.1,9.1c17.8,3.1,35.6,5.7,53.6,7.6c12.8,1.4,25.7,2.8,38.6,3.1
					c8,0.4,15.9,1.6,23.9,1c5,0.4,10,0.6,15,0.1c7.8,0.4,15.6,0.2,24.5-0.2c-7.5-6.7-15-10.8-23.4-12.9
					C179.4,558.4,175.1,557.7,170.6,557.6z"/>
				<path class="st1" d="M917.8,495.9c7.5-17.9,15-35.7,22.6-53.8c-1.4-0.4-2.6-0.9-3.9-1.2c-10.3-2.2-20.6-4.6-31.1-6.5
					c-15.5-2.7-31-5.1-46.5-7.5c-2.2-0.3-4.1-0.5-4.2,3c-0.9,28.7-2.2,57.4-3,86c-0.1,3.6-1.2,5.7-4.2,7.6
					c-9.5,6.1-20,9.2-30.9,11.5c-8.3,1.2-16.6,1.8-24.9,1.8c-5.4-0.1-10.9-0.7-16.2,0.8c-4.8-0.2-9.3,1-13.8,2.4
					c-7.8,2.4-15.3,5.2-22.3,11.5c6.2,0,11.3,0,16.3,0c3.6,0.1,7.2,0.2,10.8,0.2c7.7,1.2,15.5,1.2,23.2,1.7
					c9.3,0.8,18.6,1.6,27.8,2.4c9.5,1.3,19,2.6,28.4,3.9c22.8,3,45.4,6.9,67.6,12.6c7.9,2,15.7,4.3,23.9,6.5
					c-6.8-25.7-13.4-50.7-20.2-75.7C916.6,500.4,916.8,498.2,917.8,495.9z"/>
				<path class="st1" d="M782.7,526.7c5.7,0,11.3,0,17,0c7.5,0.1,14.8-0.5,21.9-3.1c5.6-0.6,10.4-3,16.1-5.7
					c-5.6-1.2-10.3-1.4-15.1-1.2c-7.2-1.6-14.6-1-22-1.6c-5.6-0.2-11.2-0.3-16.8-0.5c-9.7-1.5-19.4-0.9-29.1-0.9
					c-5.5-1.5-11.2-0.4-16.8-1c-1.8-0.2-2.9,0.6-2.9,2.5c0,9.2,0,18.3,0,27.6c6.5-5.3,14.6-8.9,22.9-12.1
					C766,528.7,774.4,527.8,782.7,526.7z"/>
				<path class="st1" d="M211.3,538.9c-5.3,0-10.6-0.1-15.9-0.1c-10.3-0.3-20.6-0.7-30.9-1c0.2,0.2,0.4,0.5,0.6,0.7
					c-0.2-0.2-0.4-0.5-0.6-0.7c-2.6-0.1-5.3-0.2-7.9-0.2c-1.3-1.1-2.7-0.7-4-0.3l0,0c-2-0.1-4.1-0.3-6.1-0.4c-6.3-0.3-12.6-0.7-19-1
					c-5.9-0.9-11.8-1.4-18.9-1c6.6,3.9,12.4,7,18.8,8.6c6.8,2.1,13.8,3.5,21,3.3c5.3,0,10.7,0,16,0c10.2,1.3,20.3,3.4,30,7
					c6.4,4,13.2,7.3,18.9,13.3c1.5-9.1,0.9-17.5,1.1-25.9C214.4,538.8,212.8,538.9,211.3,538.9z"/>
			</g>
			<g>
				<path class="st2" d="M582.9,161.4c14.7,17,27.9,35.1,37.6,55.5c13,27.4,20.1,56.1,20.8,86.4c0.4,17.3-0.9,34.5-4.2,51.5
					c-0.6,3.2-1.8,4.4-4.8,4.1c-0.7,0-1.3-0.1-2,0c-6.9,1-12.3,0.4-15.7-7.5c-2.7-6.3-9.3-9.6-16.1-12.6c-2,6.4-2.9,12.7-2.1,19.1
					c0.3,2.2-0.1,2.8-2.4,2.9c-23.6,1-47.1,2.9-70.6,5.2c-23.2,2.3-46.3,4.7-69.4,7.4c-23.1,2.7-46.3,5-69.5,6.5
					c-22.9,1.5-45.8,2.5-68.7,3.9c-3.9,0.2-5.8-0.9-7.2-4.7c-9.8-26.5-12.6-53.9-11-81.8c2.2-40.4,15.2-77.2,38.3-110.5
					c5.8-8.3,12.1-16.3,18.9-23.8c1-1.1,2.6-2,2.5-4c-9.3,4.5-35.5,39.5-46.9,65.6c-11.1,25.2-17.5,51.4-18.1,79
					c-0.7,27.5,3.3,54.2,13.3,79.9c-4.2,1.1-6.9,0.3-9.8-3c-8.7-10.3-23.3-12.4-36.9-5.8c1.4,3.6,4.2,6.2,6.9,10.1
					c-9.1,0-17.5,0-25.9,0c-1.8,0-3.7,0-5.5,0c-14.6-0.3-11.9,2.4-15.7-12.1c-26-99.4-3.7-186.6,68.6-259.7
					c40-40.4,89.4-63.7,145.8-71.7C550,24.8,661.8,89.3,708.4,196.1c17.2,39.5,24,80.9,20.6,124c-0.9,11.3-2.5,22.4-4.8,33.5
					c-0.5,2.5-1.2,3.6-4.1,3.6c-25.1-0.4-50.2,0.5-75.3,1.3c-4.5,0.1-3.4-2.3-2.9-4.6c3.7-18,5.5-36.1,4.5-54.5
					c-2.8-50-21.9-93.2-54.6-130.8c-2.5-2.9-5.2-5.5-7.8-8.3c-4.6-5.5-9.9-10.1-15.4-14.6c-0.5-0.4-1.1-0.9-1.6-1.3
					c-1.9-2.2-4.2-4-6.9-5.1c-0.2-0.8-0.9-1.2-1.3-0.8c-0.5,0.7,0.4,1,0.9,1.2c1.6,1.9,3.4,3.7,5.7,4.7c0.6,0.9,1.3,1.8,2.4,2.1
					C572.8,151.5,577.8,156.4,582.9,161.4z M367.4,149.5c0.3,0,0.5-0.1,0.7-0.4c1.5-1.3,3.1-2.6,4.6-4c2.4-2,4.9-4.1,7.3-6.1
					c-3.3,0.8-6,2.6-8.1,5c-1.9,1.1-3.6,2.4-4.9,4.2c-0.3,0-0.6,0.2-0.7,0.5c-0.2,0.2-0.5,0.5-0.7,0.7c-0.5,0.7-2.2,1-1.3,2
					c0.9,1,1.5-0.2,2.1-1C366.8,150.2,367.1,149.9,367.4,149.5z M446.4,298.5c0.7-1.8,2.6-1.9,3.9-2.8c6-4,9.1-9.4,8.9-16.7
					c-0.3-11.9-6.8-19.3-19.9-21.7c-13.5-2.5-27.2-0.7-40.8-1.4c-4.2-0.2-5.6,0.7-5.5,5.3c0.3,23.6,0.1,47.2,0.1,70.8
					c0,11.9,0,12,11.7,11.8c11.1-0.2,22.3,1,33.4-0.9c12.5-2.2,21.7-11.1,22.8-21.8C462.3,309.3,458.8,303.9,446.4,298.5z
					 M512.5,255c-18.4,0.4-32.1,8-39.9,25.2c-3.8,8.3-4.4,17-3.5,25.9c1.7,15.5,8.5,28.1,23.2,34.6c15,6.6,30.1,6.2,44.2-2.9
					c8.7-5.6,8.4-6.2,1.4-13.6c-3.2-3.4-5.8-4.1-9.8-1.1c-14.3,10.5-32.8,3.5-37.2-13.7c-1.2-4.7-1.4-9.6-0.9-14.3
					c1.9-18.7,18-28.4,33.8-20.5c9.8,4.8,9.8,4.8,16.4-4.1c0.3-0.4,0.5-0.9,0.9-1.2c2-1.8,1.4-3.1-0.5-4.7
					C532.5,257.9,523.1,254.8,512.5,255z M318.2,368c-0.4,3.4,0.7,7,2.4,10.6c1,2.1,2.2,2.4,4.3,1.3c16.7-9,19.7-20.6,15.5-39.1
					c-0.5-2.2-1.4-1.5-2.8-0.9C326.1,344.2,318.2,355.5,318.2,368z M661,344.3c11.5,0.8,18.5-6,24.4-14.5c6-8.7,6-8.7-4.3-10.1
					c-0.3,0-0.6-0.2-1-0.2c-12.8-1.5-26.1,6.4-29.9,17.6c-1.3,3.9-0.9,6.4,3.8,6.7C656.4,343.9,658.7,344.1,661,344.3z M277.4,344.2
					c1.7-0.1,3.3-0.1,5-0.3c6.4-0.6,7.5-2.3,4.9-8.2c-7-15.2-22.7-18.8-37-14.9c-1.4,0.4-2,0.8-1.2,2.3
					C254.8,334.5,262.9,345.2,277.4,344.2z M280,295.3c4.1,1.1,4.7-1.4,4.4-5.2c-1-12.7-11.6-23.2-25.2-24.8
					c-7.5-0.9-7.8-0.5-5.7,6.7C257.9,287.3,266.2,294.7,280,295.3z M657.5,295.3c15.2-0.2,27.3-12.4,28.2-27.9
					c0.1-1.9-0.6-2.1-2.2-2.2c-14.5-1.5-29.5,11.4-29.9,25.7C653.5,294,654.1,296.2,657.5,295.3z M627.8,202.9
					c-0.1,5.7,0.8,6.4,6.2,5.1c12.7-3,20.9-13.8,20.5-26.8c-0.1-1.9-0.8-2.2-2.4-2C638.7,180.6,628.5,190,627.8,202.9z M310.3,202.9
					c-0.7-13.5-11.4-22.3-24.4-23.7c-1.6-0.2-2.3,0.1-2.3,2c-0.2,13.2,7.9,23.9,20.6,26.8C309.5,209.3,310.3,208.6,310.3,202.9z
					 M292.3,243c-0.1-11.6-11.5-23.2-23.4-23.8c-2-0.1-2.5,0.3-2.6,2.3c-0.5,13.2,6.6,23.3,19.1,26.9
					C291.3,250.1,292.3,249.3,292.3,243z M671.7,222.4c0.1-3.2,0.1-3.2-2.1-3.3c-12.4-0.4-25.3,14-23.7,26.4
					c0.4,3.2,1.7,4.2,4.9,3.5C663.6,246.2,671.1,236.9,671.7,222.4z M306.2,312.6c-0.1,6.6,0.3,6.9,6.7,5.3
					c11.9-2.9,20-14.2,19.4-26.7c-0.1-2.2-0.8-2.5-2.7-2.2C316.9,290.9,306.6,299.6,306.2,312.6z M631.9,313.1
					c-0.1-13.2-10.6-22.3-23.4-24.1c-1.9-0.3-2.5,0.2-2.6,2.3c-0.7,12.8,7.4,23.8,19.9,26.7C631.6,319.4,631.8,319.2,631.9,313.1z
					 M600.1,236c-0.7,0.1-2.9,0.1-5,0.4c-1.8,0.3-3.1,1-1.9,3.3c6.8,13,13.9,20.3,30.2,17.6c3.3-0.5,3.6-1.6,2.9-4.5
					C623.4,242.5,613.9,235.8,600.1,236z M337,236c-12.9-0.1-23,7-25.3,17.3c-0.6,2.5-0.2,3.4,2.6,4c11.7,2.2,20.9-1.3,27.2-11.6
					c1.6-2.6,4.7-5.6,3.4-8.1C343.7,235,339.4,236.3,337,236z M556.9,125.6c-0.5-1.7-0.8-3.7-1.5-5.5c-3.3-8.2-16.5-16.6-25.2-16.4
					c-2.4,0.1-1.6,1.5-1.5,2.7c1.6,15.7,10.4,21.1,24.3,23.9C556.9,131.1,556.1,127.8,556.9,125.6z M409.2,103.6
					c-8,1.2-15.2,3.4-21.1,8.7c-4.1,3.7-6.8,8.2-6.7,13.9c0,2.2,0.3,4.9,3.9,4.1C397.9,127.5,409,122.5,409.2,103.6z M312.5,144.4
					c-0.4,2.9-0.9,5.5-1,8.2c-0.4,9.3,2.6,16.9,11.1,21.7c6.2,3.5,7.9,2.7,8.6-4.4C332.3,158.3,325.5,148.8,312.5,144.4z
					 M358.4,134.4c0.3-8.1-3.9-14.1-9.4-19.5c-1.3-1.3-2-1-3,0.4c-7.4,10.3-6,24.1,3.3,32.5c1.8,1.6,2.9,1.6,4.4-0.1
					C357.2,143.9,358.3,139.4,358.4,134.4z M625.5,144.3c-5.5,1.7-9.8,4.4-13.2,8.4c-5.3,6.2-6.9,13.4-4.4,21.4c0.7,2.4,2,3,4.4,1.9
					c8.3-4.1,13.9-10,14.2-19.8C626.7,152.2,626.3,148.5,625.5,144.3z M586.5,207.3c4,0.2,7.5-1.4,11.1-2.5c4.6-1.4,4.2-3.7,1.8-6.7
					c-7.6-9.4-19.9-10.8-31.5-4.3c-1.2,0.7-1.9,1.3-0.6,2.6C572.6,201.9,578.3,206.8,586.5,207.3z M371.6,194.7
					c-2.7-2.1-5.8-3.2-9-4.1c-9.3-2.7-19.6,0.7-24.4,7.9c-1.7,2.5-2.3,4.2,1.5,5.9C352.3,210,363.7,206.7,371.6,194.7z M545.1,152
					c-4.5-0.2-9.8,2.4-14.7,6.1c-1.1,0.8-2.6,1.4-0.9,3.4c7.9,8.9,24.4,9.7,33.1,1.7c2-1.8,1.3-3.1-0.1-4.6
					C558.3,154.1,553,152.2,545.1,152z M391.6,152.1c-5.9,0-11.1,1.8-15.4,5.8c-2.5,2.4-2.6,4.1,0.4,6.2c10.1,7,22.6,6.1,31.5-2.3
					c1.5-1.4,1.4-2.3-0.1-3.5C403.1,154.7,397.9,152,391.6,152.1z M579.7,135.1c-0.1,3.8,1.1,8.2,4,12c1.7,2.2,3.1,2.8,5.5,0.3
					c9.6-10.1,9.8-18.9,2.8-32.1c-1-1.8-1.8-1.4-3-0.3C583.6,120.2,579.6,126.1,579.7,135.1z"/>
				<path class="st3" d="M740.7,500.9c-14,0-27.9-0.2-41.9,0c-26.9,0.5-53.8,0.9-80.7,2.1c-25.4,1.1-50.7,2.8-76,4.9
					c-26.6,2.2-53.1,5.5-79.6,8.5c-19.1,2.2-38.3,3.6-57.5,5.3c-33.8,2.8-67.6,4.3-101.5,5.3c-33.3,1-66.5,0.8-99.8,0.3
					c-21.4-0.3-42.8-1.6-64.2-2.7c-9.6-0.5-19.2-1.4-28.8-2c-3.4-0.2-4.4-1.7-4.2-5.1c1.1-24.9,2-49.8,2.9-74.7
					c0.6-16.6,1.4-33.2,1.8-49.8c0.1-3.2,0.9-3.7,3.9-3.5c35,2.5,70,4.1,105,4.6c17.1,0.3,34.3,0.6,51.4,0.3
					c30.5-0.7,61.1-1.1,91.6-3.4c19.7-1.5,39.4-2.5,59.1-4.3c19.5-1.8,38.8-4.6,58.3-6.6c18.6-2,37.3-3.5,56-5.3
					c28.3-2.8,56.6-4.3,85-5.7c15.4-0.8,30.9-0.9,46.3-1.5c29.1-1.1,58.2-1.1,87.3-0.5c28.7,0.6,57.4,0.9,85.9,5.6
					c2.9,0.5,3.8,1.5,3.7,4.5c-1.2,31.4-2.2,62.7-3.4,94.1c-0.4,10.4-1.1,20.9-1.5,31.3c-0.1,2.6-0.3,3.6-3.6,3.3
					c-21.9-1.6-43.7-3-65.6-3.7C760.6,502.1,750.7,501.7,740.7,500.9z M259.5,460.1c-0.1-17.4-11.9-29.5-28.9-29.4
					c-16.7,0.1-28.4,12.7-28.4,30.6c0,17.3,12.1,29.5,28.9,29.4C247.8,490.7,259.6,478,259.5,460.1z M611.4,445
					c-5.7-6.9-11-13.3-16.2-19.7c-3.7-4.5-7.4-9-11-13.5c-2.9-3.6-6.8-2.4-10.1-1.8c-2.7,0.5-1.1,3.7-1.1,5.6
					c0,4.1,0.5,8.3,0.7,12.4c0.5,12.3,1,24.5,1.6,36.8c0.1,1.4-0.5,3.4,1.8,3.4c3,0,6.1,0.1,8.7-1c0.9-0.4,0.3-4.2,0.3-6.5
					c0-0.2,0-0.3,0-0.5c0-9.3,0-18.7,0-27.9c1.2,1.4,2.7,3.1,4.2,4.9c7.1,8.6,14.3,17,21,25.9c3.1,4.2,7,3.8,10.7,2.7
					c2.8-0.8,1.2-4.3,1.1-6.5c-0.5-14.9-1.3-29.8-1.9-44.8c-0.3-7.1-0.2-6.8-7.4-6.9c-3.5,0-4.1,1.2-3.9,4.3
					C610.5,422.7,610.9,433.4,611.4,445z M746.7,446.7c-0.4,0-0.8,0-1.2,0c0,5,0.1,10-0.1,14.9c-0.1,2.6,0.8,3.4,3.4,3.4
					c4.8-0.1,9.7-0.4,14.4,0.2c19.4,2.3,32.4-11.4,32.9-28.1c0.5-15.7-9.8-29.1-24.7-30.1c-6.9-0.5-13.9-0.3-20.9-0.7
					c-3-0.2-4,0.5-4,3.7C746.8,422.1,746.7,434.4,746.7,446.7z M489.4,450.1c1-0.8,2.3-1.6,3.3-2.7c5.5-5.5,6.6-12,4.3-19.2
					c-2.2-6.6-7.2-9.8-13.8-10.4c-8.2-0.8-16.2,0.7-24.3,1.6c-2,0.2-2.7,0.8-2.5,3.1c1.8,15.3,3.2,30.7,5,46
					c1.1,9.8,1.3,9.7,11.1,8.4c2.3-0.3,2.7-1.1,2.4-3.1c-0.7-4.6-1.3-9.2-1.6-13.8c-0.1-1.7-1.6-4.3,1.2-5.1
					c2.5-0.7,4.8-0.1,6.4,2.5c2.9,4.6,6.2,9,9.3,13.5c1.2,1.7,2.5,3.6,4.7,3.3c3.9-0.5,8,0.1,12.1-1.9
					C500.9,465.1,496.5,456.6,489.4,450.1z M687.6,464c-7.6-10.4-12.7-21.7-21.1-30.8c6.6-8.5,12.3-17.8,18.5-27.3
					c-2.5,0-4.2,0.2-5.8,0c-6.2-0.9-10.3,1.5-13.2,7.2c-2.6,5.2-6.1,9.9-9.1,14.9c-1.3,2.1-3.5,2.9-5.6,2.4
					c-2.1-0.5-1.2-2.8-1.2-4.3c-0.1-3.7-0.1-7.3-0.2-11c0-8.4,0-8.1-8.3-8.4c-4-0.1-4.7,1.3-4.6,4.8c0.5,15.3,0.8,30.6,1,45.8
					c0.1,8.9,0.4,9.2,9.5,8.1c2.3-0.3,3.5-1.1,3.3-3.7c-0.3-5.3-0.2-10.6-0.2-16c0-2-1.7-4.7,1.3-5.5c2.9-0.9,5.5,0.2,7.2,3.1
					c2,3.4,4.2,6.8,6.4,10.1c9,13.7,4.7,11.5,20.6,11C686.5,464.4,686.6,464.3,687.6,464z M510.2,472.8c3.6-0.3,6.9-0.6,10.2-0.9
					c2.1-0.2,3.6-1.6,3.6-3.6c0.2-9.4,5.9-11.5,13.8-11c1.6,0.1,3.4,0,5-0.4c3.8-0.8,5.6,1,6.9,4.4c3.1,8,3.2,7.7,11.3,7.7
					c4.9,0,4.4-1.8,2.9-5.2c-6.8-14.8-13.4-29.6-20-44.4c-3.8-8.5-4.3-8.6-13.8-7c-2.1,0.4-3.2,1.1-3.7,3.1
					C521,434.5,515.6,453.4,510.2,472.8z M268.2,460.8c0.1,0,0.3,0,0.4,0c0,8.8,0,17.6,0,26.4c0,2.3,0.1,3.5,3.2,3.4
					c9.8-0.4,9.8-0.2,9.6-10.3c0-1.2,0.1-2.3-0.1-3.5c-0.6-4.3,0.2-7,5.6-6.2c2.2,0.3,4.6-0.4,6.9-0.7c11-1.8,16.7-9.2,16.2-20.8
					c-0.5-10.1-7.4-16.8-18.2-17.3c-6.6-0.3-13.3,0-19.9-0.1c-2.8-0.1-3.7,0.8-3.6,3.7C268.3,443.8,268.2,452.3,268.2,460.8z
					 M419.4,458.1c-0.1-8.2-1.2-16.2-5.6-23.4c-4.1-6.8-10.2-9.7-18-8.9c-7.1,0.7-12.1,4.6-14.6,11.1c-5.2,13.8-4.3,27.6,3.2,40.1
					c7.6,12.7,25.3,11.3,31.9-2C419,469.7,419.5,463.9,419.4,458.1z M697.5,435.1c0,8.6,0.1,17.3-0.1,25.9c-0.1,3.1,0.9,3.9,3.9,3.9
					c9-0.2,18-0.3,26.9,0c3.9,0.1,4.5-1.2,4.6-4.7c0.2-4.6-1.2-6.2-5.8-5.6c-3,0.4-6,0.1-9,0.1c-8.3,0-8,0-8.4-8.4
					c-0.2-4.6,0.7-6.9,5.9-6.2c2.8,0.4,5.6,0,8.5-0.1c1.1,0,2.3,0.3,3.1-1c2.4-4.5,0-8.7-5-8.7c-0.8,0-1.7,0-2.5,0
					c-10.7,0-10.7,0-9.9-11c0.2-2.4,1-3.2,3.3-3.1c5.2,0.1,10.3-0.3,15.5,0.1c4.5,0.4,4.3-2.2,4.2-5.1c-0.1-2.7,0.8-5.5-4-5.3
					c-9,0.4-18,0.3-26.9,0c-3.4-0.1-4.6,0.7-4.5,4.3C697.7,418.4,697.5,426.8,697.5,435.1z M191,441.1c0.3,0,0.7,0,1,0
					c7.1,0.2,7,0.2,7.1-7.1c0-2.2-0.3-3.2-2.9-3.3c-12.1-0.4-24.2-0.8-36.3-1.6c-3.7-0.2-4.5,0.6-4.8,4.4c-0.4,5.2,1.1,7.3,6.3,6.5
					c1.6-0.2,3.3,0.2,5,0c3.4-0.4,4.2,1,4,4.3c-0.8,12.7-1.2,25.5-2.1,38.3c-0.3,4.7,0.9,6.9,5.8,6.2c0.8-0.1,1.7-0.1,2.5,0
					c3.6,0.7,4.5-1,4.6-4.4c0.3-11.8,1-23.5,1.5-35.3C183,440.9,182.9,440.9,191,441.1z M350.1,445.6c0.5,9.5,0.9,18.1,1.4,26.7
					c0.4,6.9,0.4,7-6.8,7.7c-3.2,0.3-3.8,1.5-3.3,4.5c0.4,2.5-0.3,4.9,3.8,4.5c8.3-0.7,16.6-0.9,24.9-1.3c1,0,2.5,0.3,2.6-0.7
					c0.2-2.3,0.1-4.6-0.3-6.9c-0.5-2.5-2.8-1.5-4.1-1.3c-4,0.8-5-0.6-5.2-4.6c-0.4-13.9-1.2-27.9-1.9-41.8c-0.1-1.1,0.3-3.1-0.9-3
					c-3.6,0.5-7.7-1.2-10.9,2c-4.1,4.2-8.2,8.3-12.4,12.3c-1.7,1.6-1.7,2.6-0.3,4.5c3.7,4.8,5.1,5,9.4,0.9
					C347.2,448.2,348.3,447.3,350.1,445.6z M447.1,457.9c-0.1-7.1-0.3-7.2-6.8-6.4c-2.8,0.4-5.6,1-8.4,0.8c-5.9-0.4-6.1,2.4-5.2,7.1
					c0.5,2.6,0.9,3.7,3.9,3.2c4.5-0.8,9.2-1.3,13.8-1.6C446.8,460.8,447.5,459.9,447.1,457.9z"/>
				<path class="st4" d="M468.9,35.3C380,37.5,308.2,73.4,255,144.8c-28,37.6-44,80.4-48.8,127.2c-3.8,36.7-0.3,72.6,11,107.7
					c1.2,3.6,1,5-3.3,4.7c-6.3-0.4-12.6-0.4-18.9-0.4c-2.7,0-3.7-1-3.4-3.5c0.3-2.8,0.4-5.7,1.1-8.4c1.7-6.3,0.2-11.9-3.9-16.8
					c-6.4-7.6-7.8-15.8-3.8-25c2.6-6,2.1-11.9-1.4-17.6c-5.1-8.2-5.3-16.6-0.1-24.9c3.7-5.8,4-11.9,1.4-18c-3.9-9-2.7-17.1,3.7-24.5
					c4.4-5.2,5.8-11.1,3.9-17.7c-2.6-9.1-0.2-16.8,6.9-22.9c5.5-4.7,7.7-10.6,6.9-17.7c-1-9.3,2.6-16.6,10.6-21.5
					c6.2-3.8,9-9.4,9.4-16.6c0.5-8.4,4-15.1,12.1-18.5c7.6-3.3,12.1-9,13.6-17.1c1.6-8.2,6.8-13.2,14.5-15.5
					c7.6-2.2,12.8-6.6,15.5-14.1c2.9-8.4,9.1-12.9,17.7-14c7.5-0.9,12.9-4.7,16.5-11.3c4-7.3,10-11.4,18.6-11.2
					c8.2,0.2,14.7-2.8,19.8-9.5c5.2-6.9,12.3-9.2,20.8-7.6c7,1.4,13.2-0.4,18.3-5.5c6.8-6.7,14.7-8.5,23.8-5.3
					c6.4,2.3,12.4,1.3,17.9-2.7c7.9-5.8,16.2-6.3,24.8-1.8c6.1,3.2,12.1,3.1,18.1-0.1c8.7-4.6,16.9-3.8,24.8,2
					c5.5,4,11.6,4.8,17.9,2.6c8.9-3.2,16.7-1.4,23.3,5.2c5.4,5.3,11.8,7,19.2,5.6c7.9-1.5,14.7,0.6,19.5,7.1
					c5.4,7.4,12.7,10.3,21.5,10.2c7.3-0.1,12.9,3.3,16.3,9.6c4.2,7.8,10.3,12.2,19.2,13.2c7.4,0.9,12.8,4.9,15.3,11.9
					c3.1,8.7,9,13.9,17.8,16.4c6.8,1.9,11.2,6.6,12.6,13.5c1.8,9,6.5,15.3,15,19c7.6,3.3,10.5,9.9,11,17.6c0.5,7.3,3.3,13.1,9.6,17
					c8,5,11.4,12.3,10.4,21.6c-0.7,7,1.4,12.7,6.7,17.3c7.5,6.4,9.7,14.4,7,23.8c-1.8,6.3-0.3,11.8,3.8,16.7
					c6.3,7.6,7.9,15.7,3.8,25c-2.6,5.9-2.2,11.9,1.4,17.6c5.3,8.4,5.3,16.9,0,25.3c-3.7,5.9-3.8,11.9-1.1,18
					c3.9,8.9,2.3,16.8-3.8,24.1c-0.7,0.9-1.2,2.1-2.6,2.1c-6,0-12,0.1-18,0c-2.8,0-1.4-2.2-1.2-3.3c1.7-9.5,3.3-19,4.2-28.6
					c2.9-29,1.1-57.7-5.7-86.1C711,176,677,125,624.9,86.4c-34.6-25.6-73.5-41.6-116.2-48C495.5,36.4,482.3,35.3,468.9,35.3z"/>
				<path class="st4" d="M312.6,535.6c12.4,0,23.8,0,35.2,0c1.9,0,3.6,0.6,5.2,1.4c40.8,20,84,28.8,129.3,26.5
					c50.4-2.6,96.6-18.4,138-47.4c3.2-2.3,6.4-3.7,10.5-3.5c4.5,0.2,8.9-0.5,13.4-0.6c4.4-0.1,8.9,0,13.7,0c-3,9.9-8,17.4-18.9,18.7
					c-7.6,1-13.4,4.4-17.1,11.3c-4.2,8-11.1,11.8-20,11.5c-7.5-0.2-13.2,2.6-17.6,8.5c-5.8,7.8-13.7,10.1-22.9,8.4
					c-6-1.1-11.3,0.2-15.6,4.5c-7.6,7.6-16.2,9.7-26.4,6c-5.7-2.1-11.2-0.9-16,2.7c-8.2,6-16.7,6.7-25.7,2c-5.7-3-11.4-3-17.1,0
					c-8.9,4.7-17.5,4.1-25.7-2c-5.4-4-11.3-4.5-17.5-2.4c-9.1,3.1-16.9,1.4-23.8-5.3c-5-4.9-10.8-6.7-17.8-5.4
					c-8.9,1.7-16.4-0.9-22-8.4c-4.1-5.5-9.4-8.9-16.5-8.5C325.2,554.2,318.2,547.4,312.6,535.6z"/>
				<path class="st4" d="M357.8,534.7c87.5-3.3,172.8-19.5,259-21.4c-10.2,15.8-83.5,42.7-125.8,46.3
					C438.9,563.9,387.3,550.9,357.8,534.7z"/>
				<path class="st5" d="M183.5,560.5c-4-2.1-8.4-2.8-12.9-2.9c-1.6-1.2-3.5-0.7-5.3-0.8c-8.3-0.3-16.6,0.2-24.9-0.8
					c-16-2.3-30.9-7-43.3-18c-2.2-1.9-3-4-2.9-6.9c1.1-31.3,2.1-62.7,3.3-94c0.1-3.6-1.1-4.6-4.2-5.1c-26.3-3.9-52.4-9.2-77.8-17
					c-1.2-0.4-2.4-1.8-3.6-0.6c-1.1,1.1,0.1,2.5,0.4,3.7c6.6,24.2,13.1,48.4,19.8,72.6c0.9,3.1,0.6,5.7-0.8,8.5
					C22.8,515.6,14.5,532,6,548.5c-0.9,1.8-2.5,3.4,1.1,4.2c14.6,3.4,29.3,6.5,44.1,9.1c17.8,3.1,35.6,5.7,53.6,7.6
					c12.8,1.4,25.7,2.8,38.6,3.1c8,0.4,15.9,1.6,23.9,1c5,0.4,10,0.6,15,0.1c7.8,0.4,15.6,0.2,24.5-0.2
					C199.4,566.6,192,562.6,183.5,560.5z"/>
				<path class="st5" d="M917.8,495.9c7.5-17.9,15-35.7,22.6-53.8c-1.4-0.4-2.6-0.9-3.9-1.2c-10.3-2.2-20.6-4.6-31.1-6.5
					c-15.5-2.7-31-5.1-46.5-7.5c-2.2-0.3-4.1-0.5-4.2,3c-0.9,28.7-2.2,57.4-3,86c-0.1,3.6-1.2,5.7-4.2,7.6
					c-9.5,6.1-20,9.2-30.9,11.5c-8.3,1.2-16.6,1.8-24.9,1.8c-5.4-0.1-10.9-0.7-16.2,0.8c-4.8-0.2-9.3,1-13.8,2.4
					c-7.8,2.4-15.3,5.2-22.3,11.5c6.2,0,11.3,0,16.3,0c3.6,0.1,7.2,0.2,10.8,0.2c7.7,1.2,15.5,1.2,23.2,1.7
					c9.3,0.8,18.6,1.6,27.8,2.4c9.5,1.3,19,2.6,28.4,3.9c22.8,3,45.4,6.9,67.6,12.6c7.9,2,15.7,4.3,23.9,6.5
					c-6.8-25.7-13.4-50.7-20.2-75.7C916.6,500.4,916.8,498.2,917.8,495.9z"/>
				<path class="st6" d="M822.6,516.8c-7.2-1.6-14.6-1-22-1.6c-5.6-0.2-11.2-0.3-16.8-0.5c-9.7-1.5-19.4-0.9-29.1-0.9
					c-5.5-1.5-11.2-0.4-16.8-1c-1.8-0.2-2.9,0.6-2.9,2.5c0,9.2,0,18.3,0,27.6c6.5-5.3,14.6-8.9,22.9-12.1c8.2-2.1,16.5-3,24.8-4.1
					l0,0c5.7,0,11.3,0,17,0c7.5,0.1,14.8-0.5,21.9-3.1c5.6-0.6,10.4-3,16.1-5.7C832.1,516.7,827.4,516.5,822.6,516.8z"/>
				<path class="st7" d="M582.9,161.4c-5-5-10.1-10-15.1-14.9c0.3-0.3,0.5-0.6,0.8-0.9c5.5,4.5,10.9,9.1,15.4,14.6
					C583.6,160.6,583.2,161,582.9,161.4z"/>
				<path class="st6" d="M214.4,541.1c0-2.3-1.6-2.1-3.1-2.1c-5.3,0-10.6-0.1-15.9-0.1c-10.3-0.3-20.6-0.7-30.9-1
					c1.3,1.3,1.6,2.6,1.4,3.9c0.1-1.3-0.2-2.6-1.4-3.9c-2.6-0.1-5.3-0.2-7.9-0.2c-1.3-1.1-2.7-0.7-4-0.3l0,0c-2-0.1-4.1-0.3-6.1-0.4
					c-6.3-0.3-12.6-0.7-19-1c-5.9-0.9-11.8-1.4-18.9-1c6.6,3.9,12.4,7,18.8,8.6c6.8,2.1,13.8,3.5,21,3.3c5.3,0,10.7,0,16,0
					c10.2,1.3,20.3,3.4,30,7c6.4,4,13.2,7.3,18.9,13.3C214.8,557.9,214.2,549.4,214.4,541.1z"/>
				<path class="st8" d="M446.4,298.5c12.4,5.4,15.9,10.8,14.7,22.6c-1.1,10.7-10.4,19.6-22.8,21.8c-11.1,1.9-22.2,0.7-33.4,0.9
					c-11.7,0.2-11.7,0-11.7-11.8c0-23.6,0.2-47.2-0.1-70.8c-0.1-4.6,1.3-5.5,5.5-5.3c13.6,0.6,27.3-1.2,40.8,1.4
					c13.1,2.4,19.6,9.9,19.9,21.7c0.2,7.3-2.9,12.8-8.9,16.7C449,296.6,447.1,296.7,446.4,298.5z M414,317.5c0,2.7,0.1,5.3,0,8
					c-0.1,1.8,0.3,2.8,2.4,2.7c5-0.1,10,0.2,14.9-0.2c6.1-0.5,9.7-5,9.6-11.2c-0.2-6.1-3.4-9.3-10.1-9.8c-2-0.1-4-0.2-6-0.3
					C414,306.6,414,306.6,414,317.5z M414,281.8c0,12.4,0,12.5,12.5,11c1.6-0.2,3.3-0.4,4.9-0.8c4.1-1.1,6.6-3.5,7-7.9
					c0.8-8.9-2.6-12.2-13.3-12.8C414,270.7,414,270.7,414,281.8z"/>
				<path class="st8" d="M512.5,255c10.6-0.2,20,2.8,28.2,9.5c1.9,1.6,2.6,2.9,0.5,4.7c-0.4,0.3-0.6,0.8-0.9,1.2
					c-6.6,8.9-6.6,8.9-16.4,4.1c-15.8-7.9-32,1.9-33.8,20.5c-0.5,4.8-0.3,9.6,0.9,14.3c4.3,17.2,22.8,24.2,37.2,13.7
					c4-2.9,6.6-2.2,9.8,1.1c6.9,7.4,7.2,8-1.4,13.6c-14.1,9.1-29.2,9.5-44.2,2.9c-14.8-6.5-21.5-19.1-23.2-34.6
					c-1-8.8-0.3-17.6,3.5-25.9C480.4,263.1,494.2,255.4,512.5,255z"/>
				<path class="st7" d="M318.2,368c0-12.6,7.9-23.8,19.3-28.2c1.3-0.5,2.3-1.3,2.8,0.9c4.3,18.6,1.3,30.1-15.5,39.1
					c-2.1,1.1-3.3,0.9-4.3-1.3C319,375.1,317.8,371.5,318.2,368z"/>
				<path class="st7" d="M661,344.3c-2.3-0.2-4.6-0.4-7-0.5c-4.7-0.3-5.1-2.8-3.8-6.7c3.8-11.2,17.1-19.1,29.9-17.6
					c0.3,0,0.6,0.2,1,0.2c10.2,1.4,10.2,1.4,4.3,10.1C679.5,338.3,672.5,345.1,661,344.3z"/>
				<path class="st7" d="M277.4,344.2c-14.5,1-22.6-9.7-28.4-21.1c-0.8-1.6-0.2-1.9,1.2-2.3c14.3-3.9,30-0.2,37,14.9
					c2.7,5.8,1.5,7.5-4.9,8.2C280.7,344.1,279.1,344.1,277.4,344.2z"/>
				<path class="st8" d="M280,295.3c-13.8-0.5-22.1-8-26.5-23.3c-2.1-7.3-1.8-7.6,5.7-6.7c13.6,1.6,24.2,12.1,25.2,24.8
					C284.7,293.9,284.1,296.3,280,295.3z"/>
				<path class="st8" d="M657.5,295.3c-3.4,0.9-4-1.2-3.9-4.4c0.4-14.4,15.4-27.3,29.9-25.7c1.6,0.2,2.3,0.4,2.2,2.2
					C684.8,282.9,672.8,295.1,657.5,295.3z"/>
				<path class="st7" d="M627.8,202.9c0.6-12.9,10.9-22.3,24.3-23.7c1.6-0.2,2.3,0.1,2.4,2c0.4,13-7.8,23.8-20.5,26.8
					C628.6,209.3,627.8,208.6,627.8,202.9z"/>
				<path class="st7" d="M310.3,202.9c0.1,5.7-0.7,6.4-6.2,5.1c-12.7-2.9-20.8-13.6-20.6-26.8c0-2,0.8-2.2,2.3-2
					C298.9,180.6,309.6,189.4,310.3,202.9z"/>
				<path class="st7" d="M292.3,243c0.1,6.3-1,7.1-6.8,5.4c-12.5-3.7-19.6-13.7-19.1-26.9c0.1-2,0.6-2.5,2.6-2.3
					C280.8,219.8,292.1,231.3,292.3,243z"/>
				<path class="st7" d="M671.7,222.4c-0.6,14.5-8.1,23.9-20.9,26.6c-3.2,0.7-4.5-0.3-4.9-3.5c-1.6-12.4,11.3-26.8,23.7-26.4
					C671.8,219.2,671.8,219.2,671.7,222.4z"/>
				<path class="st7" d="M306.2,312.6c0.4-13,10.7-21.8,23.4-23.6c1.8-0.3,2.6,0.1,2.7,2.2c0.6,12.4-7.5,23.7-19.4,26.7
					C306.5,319.5,306.2,319.3,306.2,312.6z"/>
				<path class="st7" d="M631.9,313.1c0,6-0.3,6.3-6.2,4.9c-12.5-2.9-20.6-13.9-19.9-26.7c0.1-2.1,0.7-2.6,2.6-2.3
					C621.3,290.8,631.7,300,631.9,313.1z"/>
				<path class="st7" d="M600.1,236c13.8-0.1,23.3,6.5,26.1,16.7c0.8,2.9,0.5,4-2.9,4.5c-16.2,2.7-23.4-4.6-30.2-17.6
					c-1.2-2.2,0.1-3,1.9-3.3C597.2,236.1,599.4,236,600.1,236z"/>
				<path class="st7" d="M337,236c2.4,0.3,6.7-0.9,7.9,1.5c1.3,2.5-1.8,5.5-3.4,8.1c-6.3,10.4-15.4,13.8-27.2,11.6
					c-2.8-0.5-3.1-1.5-2.6-4C314,243,324.1,235.9,337,236z"/>
				<path class="st7" d="M556.9,125.6c-0.8,2.2,0,5.5-3.8,4.7c-13.9-2.8-22.7-8.2-24.3-23.9c-0.1-1.2-1-2.6,1.5-2.7
					c8.7-0.2,21.9,8.2,25.2,16.4C556.1,121.9,556.5,123.9,556.9,125.6z"/>
				<path class="st7" d="M409.2,103.6c-0.2,18.9-11.3,23.9-23.9,26.7c-3.6,0.8-3.9-1.9-3.9-4.1c0-5.6,2.7-10.2,6.7-13.9
					C394,107,401.3,104.8,409.2,103.6z"/>
				<path class="st7" d="M312.5,144.4c13,4.4,19.8,13.9,18.7,25.5c-0.7,7.1-2.4,7.9-8.6,4.4c-8.5-4.8-11.6-12.4-11.1-21.7
					C311.6,149.9,312.1,147.3,312.5,144.4z"/>
				<path class="st7" d="M358.4,134.4c0,4.9-1.2,9.5-4.6,13.3c-1.5,1.7-2.6,1.8-4.4,0.1c-9.3-8.4-10.8-22.2-3.3-32.5
					c1-1.4,1.7-1.7,3-0.4C354.5,120.3,358.7,126.3,358.4,134.4z"/>
				<path class="st7" d="M625.5,144.3c0.8,4.2,1.2,7.9,1.1,11.7c-0.3,9.8-5.9,15.7-14.2,19.8c-2.4,1.2-3.7,0.5-4.4-1.9
					c-2.5-7.9-0.9-15.1,4.4-21.4C615.7,148.7,620,146,625.5,144.3z"/>
				<path class="st7" d="M586.5,207.3c-8.3-0.4-14-5.3-19.3-11c-1.2-1.3-0.5-1.9,0.6-2.6c11.7-6.5,23.9-5,31.5,4.3
					c2.4,3,2.8,5.3-1.8,6.7C594,205.9,590.5,207.5,586.5,207.3z"/>
				<path class="st7" d="M371.6,194.7c-7.9,12-19.3,15.3-31.9,9.7c-3.8-1.7-3.1-3.4-1.5-5.9c4.8-7.2,15.1-10.6,24.4-7.9
					C365.8,191.6,369,192.7,371.6,194.7z"/>
				<path class="st7" d="M545.1,152c7.9,0.2,13.2,2.1,17.4,6.6c1.4,1.5,2.1,2.7,0.1,4.6c-8.6,8-25.2,7.2-33.1-1.7
					c-1.8-2-0.2-2.6,0.9-3.4C535.3,154.5,540.6,151.8,545.1,152z"/>
				<path class="st7" d="M391.6,152.1c6.3-0.1,11.5,2.7,16.4,6.3c1.6,1.1,1.6,2.1,0.1,3.5c-8.9,8.4-21.4,9.3-31.5,2.3
					c-3-2.1-3-3.9-0.4-6.2C380.5,153.8,385.7,152,391.6,152.1z"/>
				<path class="st7" d="M579.7,135.1c-0.1-8.9,3.9-14.8,9.3-20c1.2-1.1,2-1.6,3,0.3c7,13.2,6.9,22-2.8,32.1
					c-2.3,2.4-3.8,1.9-5.5-0.3C580.8,143.2,579.6,138.8,579.7,135.1z"/>
				<path class="st9" d="M372,144.1c2.2-2.4,4.8-4.2,8.1-5c-2.4,2-4.9,4.1-7.3,6.1C372.5,144.8,372.2,144.5,372,144.1z"/>
				<path class="st9" d="M560,139.2c2.7,1.1,4.9,2.9,6.9,5.1c-0.5,0-1,0-1.6,0c-2.4-1-4.1-2.8-5.7-4.7
					C559.8,139.5,559.9,139.4,560,139.2z"/>
				<path class="st9" d="M372.8,145.2c-1.5,1.3-3.1,2.6-4.6,4c-0.3-0.3-0.7-0.6-1-0.9c1.3-1.8,3-3.1,4.9-4.2
					C372.2,144.5,372.5,144.8,372.8,145.2z"/>
				<path class="st7" d="M565.3,144.4c0.5,0,1,0,1.6,0c0.5,0.4,1.1,0.9,1.6,1.3c-0.3,0.3-0.5,0.6-0.8,0.9
					C566.6,146.1,565.9,145.3,565.3,144.4z"/>
				<path class="st9" d="M559.6,139.7c-0.5-0.3-1.5-0.6-0.9-1.2c0.4-0.5,1.2,0,1.3,0.8C559.9,139.4,559.8,139.5,559.6,139.7z"/>
				<path class="st10" d="M366.4,150.6c-0.5,0.7-1.2,2-2.1,1c-0.9-1,0.8-1.3,1.3-2C365.9,149.9,366.2,150.2,366.4,150.6z"/>
				<path class="st10" d="M367.1,148.3c0.3,0.3,0.7,0.6,1,0.9c-0.2,0.3-0.4,0.4-0.7,0.4c-0.3-0.3-0.7-0.5-1-0.8
					C366.5,148.5,366.8,148.3,367.1,148.3z"/>
				<path class="st10" d="M367.4,149.5c-0.3,0.3-0.7,0.7-1,1c-0.2-0.3-0.5-0.7-0.7-1c0.2-0.2,0.5-0.5,0.7-0.7
					C366.7,149,367.1,149.3,367.4,149.5z"/>
				<path class="st11" d="M259.5,460.1c0.1,17.8-11.7,30.6-28.3,30.6c-16.9,0.1-28.9-12.2-28.9-29.4c0-17.9,11.6-30.5,28.4-30.6
					C247.6,430.7,259.5,442.7,259.5,460.1z M215.4,461.3c0,1.2-0.1,2.5,0,3.8c0.7,7.6,5.8,13.3,12.8,14.4c7.1,1.1,14.1-2.5,16.6-9.1
					c2.4-6.4,2.6-13,0.2-19.4c-2.3-6-7.2-9.2-13.9-9.2c-6.6,0-11.6,3.3-14,9.1C215.7,454.2,215.1,457.6,215.4,461.3z"/>
				<path class="st11" d="M611.4,445c-0.5-11.6-1-22.3-1.6-33c-0.2-3.1,0.4-4.4,3.9-4.3c7.2,0,7.1-0.2,7.4,6.9
					c0.6,14.9,1.4,29.8,1.9,44.8c0.1,2.2,1.7,5.6-1.1,6.5c-3.6,1.1-7.5,1.5-10.7-2.7c-6.7-8.9-14-17.3-21-25.9
					c-1.4-1.8-2.9-3.5-4.2-4.9c0,9.3,0,18.6,0,27.9c0,0.2,0,0.3,0,0.5c-0.1,2.3,0.5,6.1-0.3,6.5c-2.6,1.1-5.8,1-8.7,1
					c-2.3,0-1.7-2-1.8-3.4c-0.5-12.3-1-24.5-1.6-36.8c-0.2-4.1-0.7-8.3-0.7-12.4c0-1.9-1.6-5.1,1.1-5.6c3.3-0.6,7.3-1.8,10.1,1.8
					c3.6,4.6,7.3,9,11,13.5C600.5,431.8,605.7,438.1,611.4,445z"/>
				<path class="st11" d="M746.7,446.7c0-12.3,0.1-24.5-0.1-36.8c-0.1-3.2,1-3.9,4-3.7c7,0.4,13.9,0.2,20.9,0.7
					c14.9,1.1,25.2,14.4,24.7,30.1c-0.5,16.7-13.5,30.4-32.9,28.1c-4.8-0.6-9.6-0.3-14.4-0.2c-2.6,0.1-3.5-0.7-3.4-3.4
					c0.2-5,0.1-10,0.1-14.9C745.9,446.7,746.3,446.7,746.7,446.7z M764.7,454.8c7.6,0.2,11.3-1,14.2-5.1c5.5-7.7,5.7-16.2,2.2-24.5
					c-3.2-7.7-10.2-8.3-17.5-8.4c-3.7-0.1-4.5,1.4-4.5,4.4c-0.2,8.9-0.4,17.9-0.7,26.8C758.1,454.7,758,454.7,764.7,454.8z"/>
				<path class="st11" d="M489.4,450.1c7.1,6.5,11.4,15,17.5,22.3c-4.1,2-8.2,1.4-12.1,1.9c-2.1,0.3-3.5-1.6-4.7-3.3
					c-3.1-4.5-6.3-8.9-9.3-13.5c-1.6-2.6-3.9-3.2-6.4-2.5c-2.9,0.8-1.3,3.4-1.2,5.1c0.3,4.6,0.9,9.2,1.6,13.8
					c0.3,2.1-0.1,2.8-2.4,3.1c-9.8,1.3-9.9,1.4-11.1-8.4c-1.8-15.3-3.2-30.7-5-46c-0.3-2.3,0.5-2.9,2.5-3.1
					c8.1-0.9,16.1-2.4,24.3-1.6c6.6,0.7,11.6,3.8,13.8,10.4c2.4,7.2,1.2,13.8-4.3,19.2C491.7,448.5,490.5,449.3,489.4,450.1z
					 M476.1,427.7c-6.5,0.3-6.6,0.5-5.7,6.9c0.2,1.6,0.5,3.3,0.7,4.9c0.5,6.9,0.4,6.9,7.3,5.5c5.2-1.1,8.1-4.9,7.5-9.9
					C485.2,429.8,482,427.4,476.1,427.7z"/>
				<path class="st11" d="M687.6,464c-1,0.3-1.2,0.4-1.3,0.4c-16,0.5-11.6,2.7-20.6-11c-2.2-3.3-4.4-6.6-6.4-10.1
					c-1.7-2.9-4.3-4-7.2-3.1c-3,0.9-1.3,3.6-1.3,5.5c0,5.3-0.1,10.7,0.2,16c0.1,2.7-1,3.4-3.3,3.7c-9.1,1.1-9.4,0.8-9.5-8.1
					c-0.2-15.3-0.5-30.6-1-45.8c-0.1-3.6,0.6-5,4.6-4.8c8.2,0.3,8.2,0,8.3,8.4c0,3.7,0,7.3,0.2,11c0.1,1.5-0.9,3.9,1.2,4.3
					c2.1,0.5,4.2-0.3,5.6-2.4c3-5,6.5-9.7,9.1-14.9c2.9-5.7,6.9-8.1,13.2-7.2c1.6,0.2,3.3,0,5.8,0c-6.2,9.6-11.9,18.9-18.5,27.3
					C674.9,442.3,680.1,453.6,687.6,464z"/>
				<path class="st11" d="M510.2,472.8c5.4-19.3,10.8-38.3,16.1-57.3c0.6-2.1,1.7-2.8,3.7-3.1c9.5-1.6,10-1.5,13.8,7
					c6.7,14.8,13.3,29.6,20,44.4c1.5,3.4,2,5.2-2.9,5.2c-8,0-8.2,0.3-11.3-7.7c-1.3-3.4-3.1-5.2-6.9-4.4c-1.6,0.3-3.3,0.5-5,0.4
					c-8-0.5-13.7,1.6-13.8,11c0,2-1.5,3.3-3.6,3.6C517.1,472.2,513.8,472.4,510.2,472.8z M543.8,447.1c-3-7.2-5.9-14.5-9.3-22.6
					c-1.1,4.5-1.9,7.9-2.7,11.3c-3.5,14.1-3.5,14.1,10.9,12C543,447.7,543.3,447.4,543.8,447.1z"/>
				<path class="st11" d="M268.2,460.8c0-8.5,0.1-17-0.1-25.4c-0.1-2.9,0.9-3.7,3.6-3.7c6.6,0.2,13.3-0.2,19.9,0.1
					c10.8,0.5,17.7,7.2,18.2,17.3c0.5,11.6-5.2,19-16.2,20.8c-2.3,0.4-4.7,1.1-6.9,0.7c-5.3-0.8-6.2,1.8-5.6,6.2
					c0.2,1.1,0.1,2.3,0.1,3.5c0.2,10,0.2,9.9-9.6,10.3c-3.1,0.1-3.2-1.1-3.2-3.4c0.1-8.8,0-17.6,0-26.4
					C268.5,460.8,268.3,460.8,268.2,460.8z M281,450.4c0,1,0,2,0,3c0,7.7,1.2,8.7,9,7.1c5.3-1.1,8.1-5.6,7.2-11.7
					c-0.8-5.3-4.7-7.3-11.7-7.2c-7.2,0.1-3.8,5.2-4.5,8.3C280.9,450,281,450.2,281,450.4z"/>
				<path class="st11" d="M419.4,458.1c0.1,5.8-0.4,11.6-3.1,16.9c-6.6,13.3-24.3,14.7-31.9,2c-7.5-12.6-8.4-26.3-3.2-40.1
					c2.5-6.5,7.5-10.4,14.6-11.1c7.8-0.8,13.9,2.1,18,8.9C418.1,441.9,419.2,449.9,419.4,458.1z M407.4,457.6
					c-0.4-5.8-0.6-12.2-3.8-18.1c-1.4-2.6-3.4-4-6.4-3.8c-3,0.2-5,2-5.7,4.8c-2.6,10.6-1.7,21,2.4,31.1c1.1,2.6,3.3,4.2,6.3,4.1
					c3-0.1,4.8-2.1,5.8-4.7C407.6,466.8,407.5,462.5,407.4,457.6z"/>
				<path class="st2" d="M697.5,435.1c0-8.3,0.2-16.6-0.1-24.9c-0.1-3.6,1.1-4.4,4.5-4.3c9,0.2,18,0.4,26.9,0c4.8-0.2,3.9,2.6,4,5.3
					c0.1,3,0.4,5.5-4.2,5.1c-5.1-0.4-10.3,0-15.5-0.1c-2.3,0-3.1,0.7-3.3,3.1c-0.8,11-0.9,11,9.9,11c0.8,0,1.7,0,2.5,0
					c5,0,7.4,4.2,5,8.7c-0.7,1.3-2,1-3.1,1c-2.8,0.1-5.7,0.4-8.5,0.1c-5.1-0.7-6,1.6-5.9,6.2c0.4,8.4,0.1,8.4,8.4,8.4
					c3,0,6,0.3,9-0.1c4.5-0.5,6,1,5.8,5.6c-0.2,3.5-0.7,4.9-4.6,4.7c-9-0.3-18-0.2-26.9,0c-3,0.1-4-0.7-3.9-3.9
					C697.7,452.4,697.5,443.7,697.5,435.1z"/>
				<path class="st11" d="M191,441.1c-8.1-0.2-8.1-0.2-8.4,8c-0.5,11.8-1.1,23.5-1.5,35.3c-0.1,3.4-1,5-4.6,4.4
					c-0.8-0.1-1.7-0.1-2.5,0c-4.9,0.6-6.1-1.6-5.8-6.2c0.9-12.7,1.3-25.5,2.1-38.3c0.2-3.2-0.6-4.7-4-4.3c-1.6,0.2-3.4-0.2-5,0
					c-5.2,0.7-6.7-1.3-6.3-6.5c0.3-3.7,1.1-4.6,4.8-4.4c12.1,0.8,24.2,1.2,36.3,1.6c2.5,0.1,2.9,1,2.9,3.3c-0.1,7.3,0,7.3-7.1,7.1
					C191.7,441.1,191.4,441.1,191,441.1z"/>
				<path class="st11" d="M350.1,445.6c-1.8,1.6-2.9,2.6-4,3.6c-4.3,4.1-5.7,3.9-9.4-0.9c-1.5-1.9-1.4-2.9,0.3-4.5
					c4.2-4,8.3-8.2,12.4-12.3c3.2-3.2,7.3-1.5,10.9-2c1.2-0.2,0.8,1.9,0.9,3c0.7,13.9,1.5,27.9,1.9,41.8c0.1,4,1.2,5.4,5.2,4.6
					c1.3-0.2,3.6-1.2,4.1,1.3c0.4,2.2,0.5,4.6,0.3,6.9c-0.1,1-1.7,0.7-2.6,0.7c-8.3,0.4-16.6,0.6-24.9,1.3c-4.1,0.3-3.4-2-3.8-4.5
					c-0.5-2.9,0.1-4.2,3.3-4.5c7.2-0.7,7.2-0.8,6.8-7.7C351.1,463.8,350.6,455.2,350.1,445.6z"/>
				<path class="st11" d="M447.1,457.9c0.5,2-0.3,2.9-2.8,3.1c-4.6,0.3-9.2,0.8-13.8,1.6c-3,0.5-3.3-0.6-3.9-3.2
					c-1-4.7-0.7-7.5,5.2-7.1c2.8,0.2,5.6-0.5,8.4-0.8C446.8,450.6,446.9,450.8,447.1,457.9z"/>
				<path class="st4" d="M414,317.5c0-10.9,0-10.9,10.8-10.8c2,0,4,0.1,6,0.3c6.7,0.5,10,3.6,10.1,9.8c0.2,6.1-3.4,10.6-9.6,11.2
					c-4.9,0.4-9.9,0.1-14.9,0.2c-2.1,0.1-2.5-1-2.4-2.7C414.1,322.8,414,320.1,414,317.5z"/>
				<path class="st12" d="M414,281.8c0-11.1,0-11.1,11.1-10.5c10.7,0.5,14.1,3.9,13.3,12.8c-0.4,4.4-2.9,6.9-7,7.9
					c-1.6,0.4-3.3,0.6-4.9,0.8C414,294.2,414,294.2,414,281.8z"/>
				<path class="st13" d="M215.4,461.3c-0.3-3.7,0.3-7.1,1.6-10.4c2.4-5.8,7.4-9.1,14-9.1c6.7,0,11.7,3.2,13.9,9.2
					c2.4,6.5,2.3,13-0.2,19.4c-2.5,6.5-9.5,10.2-16.6,9.1c-7.1-1.1-12.2-6.8-12.8-14.4C215.3,463.8,215.4,462.5,215.4,461.3z"/>
				<path class="st13" d="M764.7,454.8c-6.7-0.2-6.6-0.2-6.4-6.8c0.3-8.9,0.5-17.9,0.7-26.8c0.1-3,0.9-4.5,4.5-4.4
					c7.3,0.1,14.3,0.8,17.5,8.4c3.5,8.4,3.3,16.9-2.2,24.5C776,453.8,772.3,455,764.7,454.8z"/>
				<path class="st13" d="M476.1,427.7c5.9-0.3,9.1,2.1,9.8,7.4c0.6,5-2.3,8.8-7.5,9.9c-6.8,1.4-6.8,1.4-7.3-5.5
					c-0.1-1.6-0.4-3.3-0.7-4.9C469.5,428.2,469.6,428,476.1,427.7z"/>
				<path class="st13" d="M543.8,447.1c-0.6,0.3-0.8,0.6-1.1,0.6c-14.4,2.1-14.4,2.1-10.9-12c0.8-3.4,1.7-6.8,2.7-11.3
					C537.9,432.6,540.9,439.9,543.8,447.1z"/>
				<path class="st13" d="M281,450.4c0-0.2,0-0.3,0-0.5c0.8-3.2-2.6-8.3,4.5-8.3c7-0.1,10.9,1.9,11.7,7.2c0.9,6.1-1.9,10.6-7.2,11.7
					c-7.8,1.6-9,0.6-9-7.1C281,452.3,281,451.4,281,450.4z"/>
				<path class="st13" d="M407.4,457.6c0,4.9,0.2,9.3-1.4,13.4c-1,2.6-2.8,4.6-5.8,4.7c-3,0.1-5.2-1.4-6.3-4.1
					c-4.2-10.1-5-20.5-2.4-31.1c0.7-2.8,2.7-4.5,5.7-4.8c3-0.2,4.9,1.2,6.4,3.8C406.9,445.3,407,451.8,407.4,457.6z"/>
			</g>
		</g>
	</g>
</g>
<g id="Layer_2">
</g>
</svg>
