<?xml version="1.0" encoding="utf-8"?>
<!-- Generator: Adobe Illustrator 25.2.1, SVG Export Plug-In . SVG Version: 6.00 Build 0)  -->
<svg version="1.1" xmlns="http://www.w3.org/2000/svg" xmlns:xlink="http://www.w3.org/1999/xlink" x="0px" y="0px"
	 viewBox="0 0 811.5 723.2" style="enable-background:new 0 0 811.5 723.2;" xml:space="preserve">
<style type="text/css">
	.st0{fill:#FFFFFF;}
	.st1{fill:#FFFFFF;stroke:#FFFFFF;stroke-width:18;stroke-linecap:round;stroke-linejoin:round;stroke-miterlimit:10;}
	.st2{fill:#315477;}
	.st3{fill:#FDC212;}
	.st4{fill:#315478;}
	.st5{fill:#FEC311;}
	.st6{fill:#B19637;}
	.st7{fill:#F6F7F8;}
	.st8{fill:#FAFAFB;}
	.st9{fill:#C1CAD5;}
	.st10{fill:#FEFEFE;}
	.st11{fill:#335475;}
	.st12{fill:#335578;}
	.st13{fill:#F9BF15;}
	.st14{fill:#F17C21;}
	.st15{fill:#F89A53;}
	.st16{fill:#102A4A;}
	.st17{fill:#F47D21;}
	.st18{fill:#112B4B;}
	.st19{fill:#00AB64;}
	.st20{fill:#F7F7F8;}
	.st21{fill:#F1F1F1;}
	.st22{fill:#F3F3F3;}
	.st23{fill:#112A36;}
	.st24{fill:#EFEEEF;}
	.st25{fill:#FCFCFC;}
	.st26{fill:#0B293F;}
	.st27{fill:#0B2938;}
	.st28{fill:#0F2946;}
	.st29{fill:#FEDC3A;}
	.st30{fill:#FEE68E;}
	.st31{fill:#DEE6F4;}
	.st32{fill:#375385;}
	.st33{fill:#FFD537;}
	.st34{fill:#0F0C04;}
	.st35{fill:#FFD838;}
	.st36{fill:#F5D764;}
	.st37{fill:#F4D87A;}
	.st38{fill:#DAB457;}
	.st39{fill:#090A0C;}
	.st40{fill:#EDAC3B;}
	.st41{fill:#BE8931;}
	.st42{fill:#FFEDB0;}
	.st43{fill:#C44F27;}
	.st44{fill:#E1422E;}
	.st45{fill:#DD4530;}
	.st46{fill:none;stroke:#FFFFFF;stroke-width:5;stroke-linecap:round;stroke-linejoin:round;stroke-miterlimit:10;}
	.st47{font-family:'SFUIDisplay-Semibold';}
	.st48{font-size:56.284px;}
	.st49{fill:#C8302A;}
	.st50{fill:#7E8C94;}
	.st51{fill:#F2654D;}
	.st52{fill:#F2664E;}
	.st53{fill:#F2644C;}
	.st54{fill:#EF442F;}
	.st55{fill:#E4573C;}
	.st56{fill:#EF5E43;}
	.st57{fill:#D95338;}
	.st58{fill:#EDEDED;}
	.st59{fill:#F04B2D;}
	.st60{fill:#094D79;}
	.st61{fill:#F9A61C;}
	.st62{fill:#F68920;}
	.st63{fill:#035382;}
	.st64{fill:#0064A0;}
	.st65{fill:#0E5684;}
	.st66{fill:#FBA920;}
	.st67{fill:#FBAD27;}
	.st68{fill:#F7F7F7;}
	.st69{fill:#FEFDFC;}
</style>
<g id="Layer_1">
	<g>
		<polygon class="st44" points="6.8,456.7 787.7,456.7 747.9,523.3 787.7,592 6.8,592 49.6,524.3 		"/>
		<polygon class="st45" points="130.7,86.6 398.3,7 663.9,86.6 663.9,634.7 398.3,714.3 130.7,634.7 		"/>
		<polygon class="st46" points="162.7,118.7 401.5,48.6 631.9,118.7 631.9,604.4 397.5,676.3 162.7,603.5 		"/>
		<text transform="matrix(1 0 0 1 276.2165 158.2919)"><tspan x="0" y="0" class="st0 st47 st48">TOP WEB</tspan><tspan x="21.8" y="67.5" class="st0 st47 st48">DESIGN</tspan><tspan x="-17" y="135.1" class="st0 st47 st48">COMPANY</tspan></text>
		<g>
			<path class="st0" d="M427.4,321.1c0,26.9,0,53.1,0,79.9c-8.9,0-17.5,0-26.6,0c0-26.5,0-52.9,0-79.9
				C409.4,321.1,418,321.1,427.4,321.1z M413.8,346.3c-2.3,1.5-4.6,3-7.7,5.1c3.6,1.8,5.8,2.9,8.2,4.1c-2.8,2-4.8,3.4-6.8,4.9
				c2.1,1.9,4.2,3.9,6.8,6.3c-2.5,1.1-4.7,2-8.6,3.8c3.6,2.3,5.9,3.7,9.1,5.8c-11.8,3.4-6.3,11.3-6.9,17.6c4.5,0,8.1,0,11.6,0
				c0-22.4,0-44.1,0-67.2c-4.6,1.2-8.2,2.1-11.9,3.1c2,2.1,4.1,4.3,6,6.3c-2.1,1.4-4.1,2.8-6.1,4.2
				C409.4,342.1,411.3,343.9,413.8,346.3z"/>
			<path class="st0" d="M387,401.2c-6.6,0-12.8,0-19.5,0c0-19,0-37.5,0-56.7c6.3,0,12.5,0,19.5,0C387,363.1,387,381.8,387,401.2z"/>
			<path class="st0" d="M387.8,337.3c-7.3,0-13.1,0-20.6,0c3.4-5.8,6.3-10.7,10.1-17.1C381,326.2,384.1,331.3,387.8,337.3z"/>
		</g>
		<g>
			<polygon class="st49" points="663.9,592 722.6,553.5 663.9,553.5 			"/>
			<polygon class="st49" points="130.7,592 72,553.5 130.7,553.5 			"/>
			<g>
				<rect x="72" y="411.3" class="st0" width="650.6" height="142.2"/>
				<g>
					<g>
						<g>
							<path class="st50" d="M344,500.6c0,4.7,0,9.1,0,13.4c0,2-1,3.4-2.8,4.1c-1.5,0.6-2.8-0.2-3.8-1.3c-0.7-0.8-0.8-1.8-0.8-2.8
								c0-15.5,0-31,0-46.6c0-1.8,0.7-3.1,2.4-3.7c1.6-0.6,3.3-0.4,4.2,1.2c0.7,1.2,1.3,0.8,2.2,0.3c11.3-5.5,23.6,1.7,24.3,14.3
								c0.1,2.7,0.2,5.4-0.1,8c-1.2,12.1-12.6,18.7-23.8,13.8C345.3,501.2,344.9,501,344,500.6z M344,483c0,1.3,0,2.5,0,3.8
								c0.1,5.1,3.9,8.8,9,8.8c5.1,0,9-3.7,9.2-8.7c0.1-2.4,0.1-4.9,0-7.3c-0.1-5.1-4.2-9.1-9.2-9.1c-5.1,0-8.9,3.9-9,9.2
								C344,480.9,344,482,344,483z"/>
							<path class="st50" d="M381.3,500.7c0,4.2,0,8.1,0,12c0,0.9,0,1.9-0.2,2.7c-0.6,1.8-1.8,2.9-3.7,2.8c-1.9-0.2-3.3-1.3-3.4-3.4
								c-0.1-1.1-0.1-2.2-0.1-3.3c0-14.5,0-29,0-43.5c0-3.2,1.6-4.9,4.3-4.5c0.5,0.1,1.2,0.2,1.4,0.5c1.4,2.7,3.2,1.2,4.9,0.5
								c10.9-3.9,21.5,3,22.5,14.8c0.2,2.9,0,5.9-0.1,8.8c-0.3,9.5-10.9,18.4-23,13.7C383.1,501.4,382.3,501.1,381.3,500.7z
								 M381.3,483.1c0,1.1,0,2.2,0,3.3c0.1,5.6,3.7,9.3,9.1,9.3c5.3,0,9-3.8,9.1-9.3c0-2.2,0-4.4,0-6.5c-0.1-5.2-4.2-9.3-9.3-9.2
								c-5.1,0.1-8.8,4-8.9,9.3C381.3,480.9,381.3,482,381.3,483.1z"/>
							<path class="st51" d="M583.6,483c0,4.9,0,9.9,0,14.8c0,2-0.2,3.8-2.2,4.6c-1.8,0.7-3.6,0.5-4.8-1.4c-0.8-1.3-1.7,0-2.3,0.3
								c-8.9,4.1-19.6,0.1-22.7-9c-2-6-2-12.5,0.1-18.6c3.1-9.1,13.8-13,22.7-8.8c1.2,0.6,1.9,0.9,2.8-0.5c0.9-1.4,2.6-1.5,4.1-0.9
								c1.6,0.6,2.4,2,2.4,3.8C583.6,472.6,583.6,477.8,583.6,483z M576.1,483.1c0-1.2,0-2.3,0-3.5c-0.1-5-3.9-8.9-8.9-9
								c-5.1-0.1-9.2,3.7-9.3,8.8c-0.1,2.5-0.1,5,0,7.5c0.2,5.1,4.1,8.8,9.4,8.7c5-0.1,8.8-3.9,8.8-9
								C576.1,485.4,576.1,484.3,576.1,483.1z"/>
							<path class="st50" d="M331.5,483.2c0,5.1,0,10.2,0,15.3c0,1.8-0.4,3.3-2.1,3.9c-1.7,0.6-3.5,0.7-4.7-1.2
								c-0.9-1.5-1.8-0.3-2.5,0c-8.4,3.8-18.1,0.5-22.1-7.7c-0.9-1.8-1.5-3.6-1.5-5.5c-0.1-3.3-0.3-6.7,0-10.1
								c1.1-11.5,13.2-18.2,23.8-13.2c1.1,0.5,1.8,1.1,2.8-0.4c0.9-1.5,2.6-1.5,4.1-0.9c1.5,0.6,2.4,1.8,2.4,3.5
								C331.5,472.5,331.5,477.9,331.5,483.2z M324,483.3C324,483.3,324,483.3,324,483.3c0-1.4,0.1-2.9,0-4.3
								c-0.2-4.7-4.1-8.4-8.9-8.5c-4.6-0.1-8.8,3.4-9.2,8c-0.2,3-0.2,6.1,0,9.1c0.4,4.9,4.5,8.2,9.6,8c4.6-0.1,8.4-3.9,8.6-8.6
								C324.1,485.8,324,484.5,324,483.3z"/>
							<path class="st52" d="M465,483.3c0,5,0,10.1,0,15.1c0,1.8-0.4,3.4-2.2,4.1c-1.7,0.6-3.6,0.6-4.7-1.3c-0.8-1.4-1.6-0.3-2.3,0
								c-10.2,4.8-22.5-1.1-23.7-12.1c-0.8-7.5-0.3-15.1-0.2-22.6c0-2.1,1.7-3.3,3.8-3.2c2.2,0.1,3.5,1.4,3.5,3.5
								c0.1,3.6,0.1,7.2,0.1,10.8c0,3,0,6,0,9.1c0.1,5,3.8,8.7,8.8,8.8c5.1,0.1,9.3-3.5,9.4-8.5c0.2-6.5,0-13.1,0.1-19.6
								c0-2.8,1.7-4.5,4.1-4.1c2.3,0.4,3.3,1.8,3.3,4.1C465,472.7,465,478,465,483.3z"/>
							<path class="st52" d="M525.1,483.2c0,5,0,9.9,0,14.9c0,1.9-0.3,3.7-2.2,4.4c-1.8,0.7-3.6,0.5-4.8-1.4c-0.8-1.3-1.6,0-2.3,0.3
								c-7.9,3.6-17.1,0.9-21.6-6.5c-1.5-2.4-2.2-5.1-2.2-7.9c0-6.4,0-12.8,0-19.1c0-2.8,1.4-4.4,3.7-4.4c2.3,0,3.7,1.6,3.7,4.4
								c0,6.3,0,12.6,0,18.9c0,4.1,2.4,7.3,6.2,8.6c3.7,1.2,7.7,0,10.2-3.1c1.3-1.6,1.8-3.5,1.8-5.6c0-6.4,0-12.8,0-19.1
								c0-2.1,0.9-3.6,3.1-4c1.9-0.3,3.3,0.5,4,2.3c0.3,0.7,0.3,1.6,0.3,2.5C525.1,473.2,525.1,478.2,525.1,483.2z"/>
							<path class="st52" d="M476.7,457.3c0,2.1-0.8,4.7,0.2,6.1c1,1.5,3.8,0.3,5.7,0.5c2.1,0.3,3.4,1.4,3.6,3.6
								c0.1,2-1.4,3.5-3.7,3.7c-1.3,0.1-2.5,0.1-3.8,0c-1.5-0.1-2.3,0.3-2.2,2c0.1,4.4,0,8.9,0.1,13.3c0.1,5.2,3.4,8.6,8.6,9
								c2.7,0.2,4.1,1.5,4.1,3.8c-0.1,2.2-1.6,3.4-4.4,3.4c-8.4,0-15.6-7-15.7-15.5c-0.1-11.6,0-23.2,0-34.7c0-2.6,1.5-4.2,3.7-4.2
								c2.2,0,3.7,1.6,3.7,4.1c0,1.6,0,3.2,0,4.8C476.6,457.3,476.7,457.3,476.7,457.3z"/>
							<path class="st53" d="M411.1,480.8c0-5.5-0.1-10.9,0-16.4c0.2-8.7,6.9-15.7,15.2-16.1c2.9-0.1,4.8,1.2,4.9,3.5
								c0.1,2.2-1.4,3.6-4.3,3.9c-3.8,0.4-6.4,2.3-7.9,5.8c-0.7,1.6-0.7,2.8,1.6,2.5c1.2-0.1,2.5-0.1,3.8,0c2.2,0.1,3.5,1.3,3.6,3.5
								c0.1,2.1-1.1,3.5-3.3,3.7c-1.3,0.1-2.7,0.2-4,0.1c-1.8-0.2-2.2,0.6-2.2,2.3c0.1,8.3,0.1,16.6,0,24.9c0,2.8-1.2,4.2-3.4,4.4
								c-2.5,0.1-3.9-1.3-4-4.1C411,492.8,411.1,486.8,411.1,480.8z"/>
							<path class="st52" d="M530.1,483.1c0-5,0-10.1,0-15.1c0-1.9,0.4-3.6,2.3-4.3c1.9-0.7,3.5-0.2,4.6,1.5c0.7,1,1.2,0.5,1.8,0.1
								c2.3-1.2,4.8-1.9,7.5-1.9c2.2,0,3.8,1.5,4,3.4c0.1,1.9-1.3,3.5-3.5,3.8c-6.9,1-9.2,3.8-9.2,10.7c0,5.4,0,10.9,0,16.3
								c0,3.6-1.1,5.1-3.8,5c-2.6,0-3.6-1.5-3.6-4.9C530.1,493,530.1,488,530.1,483.1z"/>
						</g>
						<g>
							<path class="st54" d="M268.6,514h-53.8c-2.1,0-3.8-1.7-3.8-3.8v-53.8c0-2.1,1.7-3.8,3.8-3.8h53.8c2.1,0,3.8,1.7,3.8,3.8v53.8
								C272.5,512.3,270.7,514,268.6,514z"/>
							<g>
								<g id="Gzys9D_2_">
									<g>
										<path class="st0" d="M224.3,490.4c1.3-1.8,2.5-3.6,3.8-5.4c3.2-4.6,6.5-9.2,9.7-13.8c2.1-2.9,3.8-2.9,5.9,0
											c3.3,4.7,6.6,9.4,9.9,14.1c0,0.2,0,0.4,0,0.6c-0.3,0-0.5,0.1-0.7,0.3c-4,1.3-7.6,3.8-11.5,5.3c-0.4,0.1-0.4,0.4-0.2,0.6
											c-0.5,0.1-1,0-1.5,0.2c-3.9,1.9-7.9,3.6-11.7,5.8c-1.3,0.4-2.6,1.1-3.8,1.8c-1.4,0.2-2.8,0.3-3.5-1.1
											c-0.7-1.3-0.3-2.6,0.6-3.9C222.3,493.5,223.3,491.9,224.3,490.4z"/>
										<path class="st55" d="M248.1,495.3c-1-0.3-1.9-0.7-2.8-1.3c2.3-2.1,4.6-4.3,7-6.4c0.4-0.4,0.5-0.8,0.5-1.4
											c0.1-0.3,0.4-0.3,0.7-0.3c0,1.6,0,3.1,0,4.7c-0.6-0.1-1,0.2-1.4,0.6C250.8,492.6,249.5,494,248.1,495.3z"/>
										<path class="st56" d="M248.1,495.3c1.3-1.4,2.6-2.7,3.9-4.1c0.4-0.4,0.8-0.7,1.4-0.6c0,2.4,0,4.8,0,7.3
											C251.7,497,249.9,496.2,248.1,495.3z"/>
										<path class="st57" d="M252.8,486.3c0,0.5-0.1,1-0.5,1.4c-2.3,2.1-4.6,4.3-7,6.4c-1.4-0.6-2.9-1.2-4.3-1.8
											c-0.1-0.3-0.1-0.5,0.2-0.6C245.3,490,248.8,487.6,252.8,486.3z"/>
									</g>
								</g>
								<path class="st58" d="M260.2,495.2c-0.9-1.3-1.9-2.6-2.8-3.8l0,0l-3.9-6l-12.8,6.9h0.3l16.1,7.5c1.4,0.4,2.5,0.2,3.4-1
									C261.5,497.4,261,496.3,260.2,495.2z"/>
							</g>
						</g>
					</g>
					<g>
						<polygon class="st59" points="608.8,473.5 623.8,471.4 631.7,457.2 639.9,471.4 655,473.5 644.2,486 647.3,502.7 631.9,493.9 
							618.3,502.7 620.5,485.7 						"/>
						<polygon class="st59" points="139.6,473.5 154.7,471.4 162.6,457.2 170.7,471.4 185.8,473.5 175,486 178.1,502.7 162.7,493.9 
							149.2,502.7 151.3,485.7 						"/>
					</g>
				</g>
			</g>
		</g>
	</g>
</g>
<g id="Layer_2">
</g>
</svg>
